<svg width="100" height="22" viewBox="0 0 100 22" fill="none" xmlns="http://www.w3.org/2000/svg">
<path d="M78.3527 17.6418V21.0439H77.0487C73.3033 21.0029 71.1571 18.7843 71.1571 14.9776V9.42624H68.9141V6.03686H71.1571V1.81128H74.6499V6.03757H78.3527V9.42695H74.6499V14.9783C74.6499 16.7632 75.3364 17.5583 76.9505 17.6425H78.3527V17.6418Z" fill="#111111"/>
<path d="M13.1139 9.84039L13.0855 9.8262C13.0855 9.8262 12.9458 9.76943 12.7224 9.69917C13.4067 8.67792 13.7556 7.75461 13.7556 6.18761C13.7556 2.94077 10.6241 0.534912 7.84289 0.534912H0.501953V3.99111H7.84289C8.68108 3.99111 10.2901 4.45241 10.2901 6.18761C10.2901 8.2592 9.54835 8.67792 7.53583 8.77586H0.501953V21.187H10.1071C13.6443 21.187 16.3986 18.4717 16.3986 15.0169C16.3986 12.7629 15.1817 10.8325 13.1132 9.83969M10.1071 17.647H4.22135V12.2463H10.1071C11.5892 12.2463 12.7345 13.4215 12.7345 14.9331C12.7345 16.4448 11.5885 17.647 10.1071 17.647Z" fill="#111111"/>
<path d="M21.7623 2.4323C21.7623 3.60755 20.7964 4.57344 19.607 4.57344C18.4176 4.57344 17.439 3.60755 17.439 2.4323C17.439 1.25705 18.419 0.25 19.607 0.25C20.795 0.25 21.7623 1.22867 21.7623 2.4323Z" fill="#111111"/>
<path d="M21.3661 6.06909H17.8887V21.1146H21.3661V6.06909Z" fill="#111111"/>
<path d="M87.3711 5.72187C82.6685 5.51782 78.9433 9.243 79.1408 13.9487C79.31 17.9658 82.684 21.3204 86.7001 21.4635C91.3793 21.6314 95.0634 17.9325 94.8815 13.2601C94.7251 9.25079 91.3765 5.89403 87.3711 5.72187ZM85.8146 17.8942C84.2978 17.5442 83.0748 16.2952 82.7393 14.7748C82.0562 11.6667 84.1152 9.1346 87.0037 9.1346C89.5157 9.1346 91.414 11.0489 91.414 13.5902C91.414 16.5049 88.8907 18.6034 85.8146 17.8935" fill="#111111"/>
<path d="M51.8088 11.9787V21.0425H48.2473V12.1179C48.2473 11.8672 48.2473 11.673 48.2061 11.4915C48.1776 11.2973 48.1776 11.214 48.1506 11.144L48.0937 10.9343C48.0525 10.8241 48.024 10.7401 47.997 10.6568H47.9543L47.8284 10.3362C47.8 10.2952 47.7445 10.1829 47.603 10.0156C47.3662 9.75217 47.1137 9.55656 46.8179 9.40332C46.6365 9.31928 46.4971 9.2642 46.3841 9.23596L46.1871 9.18087C46.0761 9.15263 45.936 9.12579 45.7675 9.11167C45.5435 9.08342 45.3891 9.0693 45.1921 9.0693C44.3658 9.0693 43.6646 9.25079 43.0892 9.61235C43.0338 9.64059 42.9491 9.69638 42.8794 9.76559C42.7521 9.84892 42.6824 9.90612 42.6412 9.9612C42.5281 10.0714 42.4869 10.1003 42.4726 10.1286C41.9528 10.7677 41.6591 11.5614 41.5602 12.5635C41.5474 12.7873 41.5332 12.9533 41.5332 13.1489V21.0432H37.9717V6.14573H41.5602V6.96631C42.191 6.47834 43.1177 6.0052 44.407 5.82513L44.5898 5.79688C44.6737 5.78276 44.8551 5.75592 45.0663 5.7418C45.36 5.72768 45.7113 5.68672 46.0754 5.7418C46.1743 5.72768 46.3421 5.7418 46.5092 5.75592L46.6778 5.78276L46.889 5.811C47.0291 5.83925 47.1542 5.85196 47.2815 5.89433C47.4629 5.93529 47.6457 5.97837 47.8284 6.03345C48.024 6.08853 48.1926 6.15985 48.3753 6.22906C48.9364 6.45151 49.4257 6.75799 49.8617 7.16192C49.9726 7.27208 50.1269 7.39849 50.24 7.52348C50.5629 7.87233 50.8708 8.3031 51.1382 8.83202C51.2349 9.02763 51.3195 9.22183 51.3764 9.43157C51.4319 9.52761 51.4874 9.70909 51.5308 9.89058C51.7263 10.642 51.8103 11.2966 51.8103 11.9787" fill="#111111"/>
<path d="M36.3398 17.7417V21.1146H23.2109V18.7917L30.6502 9.44266H23.5201V6.06909H36.0328V8.11297L28.3978 17.7417H36.3398Z" fill="#111111"/>
<path d="M99.5018 3.49341C99.5018 5.58892 97.5228 7.21456 95.3712 6.5623C94.2423 6.22044 93.3511 5.21488 93.1595 4.03981C92.8277 2.00866 94.3873 0.25 96.3352 0.25C98.0787 0.25 99.5011 1.70256 99.5011 3.49269" fill="#FF3C50"/>
<path d="M68.63 13.7632C68.6144 12.3364 68.3278 11.004 67.7084 9.79928C67.0884 8.62578 66.1988 7.65874 65.0384 6.94499C62.337 5.32735 59.6036 5.27981 56.8382 6.94499C55.6621 7.65874 54.7562 8.62578 54.1525 9.79928C53.5325 10.9728 53.231 12.3045 53.231 13.7632C53.231 15.2219 53.5332 16.316 54.2165 17.537C54.8366 18.7424 55.7738 19.7095 56.9499 20.4069C58.1096 21.1044 59.4927 21.469 61.0656 21.469C62.8774 21.469 64.4027 21.0249 65.5944 20.1529C66.7542 19.2966 67.6125 18.1869 68.1529 16.7913L68.3278 16.3472H64.6409C64.291 16.9183 63.8466 17.3781 63.2898 17.7428C62.7174 18.1075 61.9708 18.2976 61.0969 18.2976C60.223 18.2976 59.5233 18.1231 58.9039 17.774C58.2682 17.4249 57.7754 16.9496 57.4099 16.3628C57.1554 15.9662 56.9648 15.6178 56.8539 15.2212H68.534C68.534 15.2212 68.6449 14.4763 68.6293 13.7625M56.8866 12.0193C57.1412 11.258 57.5379 10.6081 58.0784 10.0852C58.7937 9.40339 59.7472 9.05431 60.9227 9.05431C62.0981 9.05431 63.068 9.40339 63.799 10.0852C64.3394 10.6244 64.7369 11.2743 64.9751 12.0193H56.8866Z" fill="#111111"/>
</svg>
