<svg width="148" height="32" viewBox="0 0 148 32" fill="none" xmlns="http://www.w3.org/2000/svg">
<path d="M116.384 25.9994V31.0852H114.434C108.835 31.0239 105.627 27.7073 105.627 22.0165V13.7177H102.273V8.65088H105.627V2.33398H110.848V8.65194H116.384V13.7188H110.848V22.0176C110.848 24.6859 111.875 25.8746 114.288 26.0004H116.384V25.9994Z" fill="#111111"/>
<path d="M18.8544 14.3357L18.812 14.3145C18.812 14.3145 18.6031 14.2297 18.2692 14.1246C19.2922 12.5979 19.8138 11.2177 19.8138 8.87513C19.8138 4.02136 15.1323 0.424805 10.9744 0.424805H0V5.59154H10.9744C12.2275 5.59154 14.6329 6.28115 14.6329 8.87513C14.6329 11.972 13.524 12.5979 10.5154 12.7443H0V31.2979H14.3594C19.6473 31.2979 23.7649 27.2388 23.7649 22.0742C23.7649 18.7047 21.9457 15.8189 18.8533 14.3347M14.3594 26.006H5.56037V17.9323H14.3594C16.5751 17.9323 18.2872 19.6892 18.2872 21.949C18.2872 24.2088 16.574 26.006 14.3594 26.006Z" fill="#111111"/>
<path d="M31.7835 3.26237C31.7835 5.01927 30.3396 6.4632 28.5615 6.4632C26.7833 6.4632 25.3203 5.01927 25.3203 3.26237C25.3203 1.50546 26.7855 0 28.5615 0C30.3375 0 31.7835 1.46303 31.7835 3.26237Z" fill="#111111"/>
<path d="M31.1908 8.69922H25.9922V31.191H31.1908V8.69922Z" fill="#111111"/>
<path d="M129.866 8.1809C122.836 7.87588 117.267 13.4447 117.562 20.4794C117.815 26.4846 122.859 31.4995 128.863 31.7134C135.858 31.9644 141.366 26.4348 141.094 19.4499C140.86 13.4564 135.854 8.43827 129.866 8.1809ZM127.539 26.3776C125.272 25.8544 123.443 23.9872 122.942 21.7143C121.92 17.068 124.999 13.2827 129.317 13.2827C133.072 13.2827 135.91 16.1444 135.91 19.9435C135.91 24.3007 132.138 27.4378 127.539 26.3765" fill="#111111"/>
<path d="M76.7017 17.5344V31.084H71.3773V17.7424C71.3773 17.3676 71.3773 17.0773 71.3157 16.806C71.2731 16.5157 71.2731 16.3911 71.2327 16.2866L71.1477 15.9731C71.086 15.8084 71.0435 15.6828 71.0031 15.5582H70.9393L70.7511 15.0789C70.7086 15.0177 70.6257 14.8498 70.4141 14.5996C70.0601 14.2059 69.6826 13.9135 69.2404 13.6844C68.9693 13.5588 68.7609 13.4764 68.5918 13.4342L68.2973 13.3518C68.1315 13.3096 67.922 13.2695 67.6701 13.2484C67.3352 13.2062 67.1045 13.185 66.81 13.185C65.5746 13.185 64.5263 13.4564 63.6662 13.9969C63.5832 14.0391 63.4567 14.1225 63.3525 14.2259C63.1622 14.3505 63.058 14.436 62.9964 14.5184C62.8273 14.683 62.7657 14.7263 62.7444 14.7686C61.9672 15.7239 61.5281 16.9105 61.3804 18.4085C61.3612 18.7432 61.34 18.9913 61.34 19.2837V31.0851H56.0156V8.81455H61.3804V10.0412C62.3234 9.31177 63.7087 8.60447 65.6362 8.33527L65.9095 8.29304C66.0349 8.27193 66.306 8.23181 66.6218 8.2107C67.0609 8.18959 67.5861 8.12836 68.1304 8.2107C68.2782 8.18959 68.5291 8.2107 68.7789 8.23181L69.0309 8.27193L69.3467 8.31416C69.5561 8.35638 69.7432 8.37539 69.9335 8.43873C70.2047 8.49996 70.4779 8.56435 70.7511 8.64669C71.0435 8.72904 71.2955 8.83566 71.5687 8.93912C72.4075 9.27165 73.139 9.72982 73.7907 10.3337C73.9566 10.4983 74.1873 10.6873 74.3563 10.8742C74.839 11.3957 75.2994 12.0396 75.6991 12.8303C75.8437 13.1228 75.9702 13.4131 76.0553 13.7266C76.1382 13.8702 76.2211 14.1415 76.286 14.4128C76.5783 15.536 76.7038 16.5146 76.7038 17.5344" fill="#111111"/>
<path d="M53.5765 26.1488V31.191H33.9492V27.7185L45.0706 13.7424H34.4115V8.69922H53.1174V11.7547L41.7034 26.1488H53.5765Z" fill="#111111"/>
<path d="M148.002 4.84863C148.002 7.98126 145.043 10.4115 141.826 9.43638C140.139 8.92532 138.807 7.42209 138.52 5.66546C138.024 2.62906 140.356 0 143.268 0C145.874 0 148 2.17146 148 4.84756" fill="#FF3C50"/>
<path d="M101.849 20.2021C101.826 18.0691 101.397 16.0773 100.471 14.2763C99.5445 12.522 98.2146 11.0764 96.4798 10.0094C92.4413 7.59113 88.355 7.52007 84.2209 10.0094C82.4626 11.0764 81.1083 12.522 80.2058 14.2763C79.2789 16.0306 78.8281 18.0214 78.8281 20.2021C78.8281 22.3827 79.2799 24.0182 80.3015 25.8436C81.2285 27.6456 82.6295 29.0913 84.3878 30.1339C86.1216 31.1765 88.1892 31.7216 90.5406 31.7216C93.2492 31.7216 95.5294 31.0577 97.3111 29.7542C99.0449 28.474 100.328 26.8151 101.136 24.7289L101.397 24.0649H95.8855C95.3625 24.9187 94.6981 25.606 93.8658 26.1512C93.01 26.6963 91.8939 26.9806 90.5874 26.9806C89.2809 26.9806 88.2349 26.7197 87.309 26.1978C86.3586 25.676 85.622 24.9654 85.0756 24.0882C84.695 23.4954 84.4101 22.9746 84.2443 22.3817H101.706C101.706 22.3817 101.871 21.268 101.848 20.201M84.2932 17.595C84.6737 16.457 85.2669 15.4854 86.0748 14.7037C87.1442 13.6845 88.5698 13.1626 90.3269 13.1626C92.0841 13.1626 93.5341 13.6845 94.6269 14.7037C95.4348 15.5098 96.029 16.4814 96.3852 17.595H84.2932Z" fill="#111111"/>
</svg>
