<svg width="148" height="32" viewBox="0 0 148 32" fill="none" xmlns="http://www.w3.org/2000/svg">
<path d="M116.384 25.9994V31.0852H114.434C108.835 31.0239 105.627 27.7073 105.627 22.0165V13.7177H102.273V8.65088H105.627V2.33398H110.848V8.65194H116.384V13.7188H110.848V22.0176C110.848 24.6859 111.875 25.8746 114.288 26.0004H116.384V25.9994Z" fill="white"/>
<path d="M18.8544 14.3357L18.812 14.3145C18.812 14.3145 18.6031 14.2297 18.2692 14.1246C19.2922 12.5979 19.8138 11.2177 19.8138 8.87513C19.8138 4.02136 15.1323 0.424805 10.9744 0.424805H0V5.59154H10.9744C12.2275 5.59154 14.6329 6.28115 14.6329 8.87513C14.6329 11.972 13.524 12.5979 10.5154 12.7443H0V31.2979H14.3594C19.6473 31.2979 23.7649 27.2388 23.7649 22.0742C23.7649 18.7047 21.9457 15.8189 18.8533 14.3347M14.3594 26.006H5.56037V17.9323H14.3594C16.5751 17.9323 18.2872 19.6892 18.2872 21.949C18.2872 24.2088 16.574 26.006 14.3594 26.006Z" fill="white"/>
<path d="M31.7845 3.26237C31.7845 5.01927 30.3406 6.4632 28.5624 6.4632C26.7843 6.4632 25.3213 5.01927 25.3213 3.26237C25.3213 1.50546 26.7864 0 28.5624 0C30.3384 0 31.7845 1.46303 31.7845 3.26237Z" fill="white"/>
<path d="M31.1917 8.69922H25.9932V31.191H31.1917V8.69922Z" fill="white"/>
<path d="M129.866 8.1809C122.836 7.87588 117.267 13.4447 117.562 20.4794C117.815 26.4846 122.859 31.4995 128.863 31.7134C135.858 31.9644 141.366 26.4348 141.094 19.4499C140.86 13.4564 135.854 8.43827 129.866 8.1809ZM127.539 26.3776C125.272 25.8544 123.443 23.9872 122.942 21.7143C121.92 17.068 124.999 13.2827 129.317 13.2827C133.072 13.2827 135.91 16.1444 135.91 19.9435C135.91 24.3007 132.138 27.4378 127.539 26.3765" fill="white"/>
<path d="M76.7036 17.5344V31.084H71.3793V17.7424C71.3793 17.3676 71.3793 17.0773 71.3176 16.806C71.2751 16.5157 71.2751 16.3911 71.2347 16.2866L71.1496 15.9731C71.088 15.8084 71.0454 15.6828 71.005 15.5582H70.9413L70.7531 15.0789C70.7106 15.0177 70.6276 14.8498 70.4161 14.5996C70.062 14.2059 69.6846 13.9135 69.2423 13.6844C68.9712 13.5588 68.7628 13.4764 68.5938 13.4342L68.2993 13.3518C68.1334 13.3096 67.924 13.2695 67.672 13.2484C67.3371 13.2062 67.1064 13.185 66.8119 13.185C65.5765 13.185 64.5282 13.4564 63.6681 13.9969C63.5852 14.0391 63.4587 14.1225 63.3545 14.2259C63.1642 14.3505 63.06 14.436 62.9983 14.5184C62.8293 14.683 62.7676 14.7263 62.7464 14.7686C61.9692 15.7239 61.5301 16.9105 61.3823 18.4085C61.3632 18.7432 61.3419 18.9913 61.3419 19.2837V31.0851H56.0176V8.81455H61.3823V10.0412C62.3253 9.31177 63.7107 8.60447 65.6382 8.33527L65.9114 8.29304C66.0369 8.27193 66.308 8.23181 66.6237 8.2107C67.0628 8.18959 67.588 8.12836 68.1324 8.2107C68.2802 8.18959 68.5311 8.2107 68.7809 8.23181L69.0329 8.27193L69.3486 8.31416C69.5581 8.35638 69.7452 8.37539 69.9355 8.43873C70.2066 8.49996 70.4798 8.56435 70.7531 8.64669C71.0454 8.72904 71.2974 8.83566 71.5707 8.93912C72.4095 9.27165 73.141 9.72982 73.7927 10.3337C73.9585 10.4983 74.1892 10.6873 74.3583 10.8742C74.841 11.3957 75.3013 12.0396 75.7011 12.8303C75.8457 13.1228 75.9722 13.4131 76.0572 13.7266C76.1401 13.8702 76.2231 14.1415 76.2879 14.4128C76.5803 15.536 76.7058 16.5146 76.7058 17.5344" fill="white"/>
<path d="M53.5765 26.1488V31.191H33.9492V27.7185L45.0706 13.7424H34.4115V8.69922H53.1174V11.7547L41.7034 26.1488H53.5765Z" fill="white"/>
<path d="M148 4.84863C148 7.98126 145.041 10.4115 141.824 9.43638C140.137 8.92532 138.805 7.42209 138.518 5.66546C138.022 2.62906 140.354 0 143.266 0C145.872 0 147.999 2.17146 147.999 4.84756" fill="#FF3C50"/>
<path d="M101.849 20.2021C101.826 18.0691 101.397 16.0773 100.471 14.2763C99.5445 12.522 98.2146 11.0764 96.4798 10.0094C92.4413 7.59113 88.355 7.52007 84.2209 10.0094C82.4626 11.0764 81.1083 12.522 80.2058 14.2763C79.2789 16.0306 78.8281 18.0214 78.8281 20.2021C78.8281 22.3827 79.2799 24.0182 80.3015 25.8436C81.2285 27.6456 82.6295 29.0913 84.3878 30.1339C86.1216 31.1765 88.1892 31.7216 90.5406 31.7216C93.2492 31.7216 95.5294 31.0577 97.3111 29.7542C99.0449 28.474 100.328 26.8151 101.136 24.7289L101.397 24.0649H95.8855C95.3625 24.9187 94.6981 25.606 93.8658 26.1512C93.01 26.6963 91.8939 26.9806 90.5874 26.9806C89.2809 26.9806 88.2349 26.7197 87.309 26.1978C86.3586 25.676 85.622 24.9654 85.0756 24.0882C84.695 23.4954 84.4101 22.9746 84.2443 22.3817H101.706C101.706 22.3817 101.871 21.268 101.848 20.201M84.2932 17.595C84.6737 16.457 85.2669 15.4854 86.0748 14.7037C87.1442 13.6845 88.5698 13.1626 90.3269 13.1626C92.0841 13.1626 93.5341 13.6845 94.6269 14.7037C95.4348 15.5098 96.029 16.4814 96.3852 17.595H84.2932Z" fill="white"/>
</svg>
