<svg width="100" height="23" viewBox="0 0 100 23" fill="none" xmlns="http://www.w3.org/2000/svg">
<path d="M78.6889 18.3207V21.7314H77.3816C73.6266 21.6903 71.4748 19.4661 71.4748 15.6497V10.0842H69.2261V6.68625H71.4748V2.44995H74.9767V6.68696H78.6889V10.0849H74.9767V15.6504C74.9767 17.4398 75.6649 18.237 77.2832 18.3214H78.6889V18.3207Z" fill="white"/>
<path d="M13.2827 10.4985L13.2543 10.4843C13.2543 10.4843 13.1142 10.4274 12.8903 10.3569C13.5764 9.33311 13.9261 8.40745 13.9261 6.83648C13.9261 3.5814 10.7866 1.16943 7.99822 1.16943H0.638428V4.6344H7.99822C8.83856 4.6344 10.4517 5.09688 10.4517 6.83648C10.4517 8.91332 9.70806 9.3331 7.69037 9.43129H0.638428V21.8739H10.2683C13.8145 21.8739 16.5759 19.1517 16.5759 15.6882C16.5759 13.4285 15.3559 11.4932 13.282 10.4978M10.2683 18.325H4.36738V12.9105H10.2683C11.7542 12.9105 12.9024 14.0887 12.9024 15.6042C12.9024 17.1197 11.7535 18.325 10.2683 18.325Z" fill="white"/>
<path d="M21.9543 3.07261C21.9543 4.25084 20.9859 5.21918 19.7935 5.21918C18.601 5.21918 17.6199 4.25084 17.6199 3.07261C17.6199 1.89437 18.6024 0.884766 19.7935 0.884766C20.9845 0.884766 21.9543 1.86591 21.9543 3.07261Z" fill="white"/>
<path d="M21.5566 6.71851H18.0703V21.8022H21.5566V6.71851Z" fill="white"/>
<path d="M87.7306 6.37106C83.0159 6.1665 79.2812 9.90113 79.4792 14.6188C79.6488 18.646 83.0315 22.0092 87.0579 22.1527C91.7492 22.321 95.4427 18.6127 95.2603 13.9284C95.1035 9.90894 91.7463 6.54365 87.7306 6.37106ZM86.1702 18.5743C84.6495 18.2234 83.4233 16.9712 83.0869 15.447C82.4021 12.331 84.4664 9.79245 87.3623 9.79245C89.8808 9.79245 91.7839 11.7116 91.7839 14.2594C91.7839 17.1814 89.2542 19.2853 86.1702 18.5736" fill="white"/>
<path d="M52.0783 12.6438V21.7306H48.5076V12.7833C48.5076 12.532 48.5076 12.3373 48.4662 12.1553C48.4377 11.9606 48.4377 11.8771 48.4106 11.807L48.3536 11.5967C48.3122 11.4863 48.2837 11.402 48.2566 11.3185H48.2138L48.0876 10.9971C48.0591 10.956 48.0035 10.8434 47.8616 10.6757C47.6242 10.4116 47.3711 10.2155 47.0745 10.0619C46.8927 9.9776 46.7529 9.92238 46.6396 9.89406L46.442 9.83884C46.3308 9.81052 46.1904 9.78362 46.0214 9.76946C45.7968 9.74114 45.6421 9.72698 45.4446 9.72698C44.6161 9.72698 43.9131 9.90893 43.3363 10.2714C43.2806 10.2997 43.1958 10.3557 43.1259 10.425C42.9983 10.5086 42.9284 10.5659 42.8871 10.6211C42.7737 10.7316 42.7324 10.7606 42.7181 10.7889C42.1969 11.4296 41.9024 12.2254 41.8033 13.23C41.7905 13.4544 41.7762 13.6208 41.7762 13.8169V21.7313H38.2056V6.796H41.8033V7.61866C42.4357 7.12945 43.3648 6.65511 44.6574 6.47458L44.8407 6.44626C44.9248 6.4321 45.1066 6.4052 45.3184 6.39104C45.6128 6.37688 45.9651 6.33582 46.3301 6.39104C46.4292 6.37688 46.5975 6.39104 46.765 6.4052L46.934 6.4321L47.1458 6.46042C47.2862 6.48874 47.4117 6.50148 47.5393 6.54396C47.7212 6.58502 47.9044 6.62821 48.0876 6.68343C48.2837 6.73865 48.4527 6.81016 48.6359 6.87954C49.1985 7.10255 49.689 7.40981 50.1261 7.81476C50.2373 7.92521 50.392 8.05193 50.5054 8.17724C50.8291 8.52698 51.1378 8.95884 51.4059 9.48911C51.5029 9.68521 51.5877 9.8799 51.6448 10.0902C51.7004 10.1865 51.756 10.3684 51.7995 10.5504C51.9955 11.3036 52.0797 11.9599 52.0797 12.6438" fill="white"/>
<path d="M36.5686 18.4207V21.8022H23.406V19.4734L30.8643 10.1006H23.716V6.71851H36.2608V8.76757L28.6062 18.4207H36.5686Z" fill="white"/>
<path d="M99.8915 4.1364C99.8915 6.23724 97.9074 7.867 95.7503 7.21309C94.6185 6.87036 93.725 5.86224 93.5329 4.6842C93.2003 2.64789 94.7639 0.884766 96.7168 0.884766C98.4647 0.884766 99.8908 2.34101 99.8908 4.13568" fill="#FF3C50"/>
<path d="M68.9418 14.4328C68.9261 13.0024 68.6388 11.6666 68.0178 10.4588C67.3962 9.28234 66.5044 8.31285 65.3409 7.59729C62.6326 5.97554 59.8922 5.92788 57.1197 7.59729C55.9406 8.31285 55.0323 9.28234 54.4271 10.4588C53.8054 11.6353 53.5032 12.9704 53.5032 14.4328C53.5032 15.8952 53.8062 16.9921 54.4913 18.2162C55.1129 19.4247 56.0525 20.3942 57.2316 21.0934C58.3944 21.7926 59.781 22.1582 61.3579 22.1582C63.1744 22.1582 64.7036 21.7129 65.8984 20.8387C67.0611 19.9802 67.9216 18.8677 68.4634 17.4686L68.6388 17.0234H64.9424C64.5916 17.5959 64.1461 18.0569 63.5879 18.4225C63.014 18.7881 62.2654 18.9787 61.3893 18.9787C60.5131 18.9787 59.8116 18.8037 59.1907 18.4538C58.5534 18.1038 58.0593 17.6272 57.6929 17.039C57.4377 16.6414 57.2466 16.2921 57.1354 15.8945H68.8455C68.8455 15.8945 68.9567 15.1477 68.9411 14.4321M57.1682 12.6845C57.4234 11.9212 57.8212 11.2697 58.363 10.7455C59.0802 10.0619 60.0362 9.71196 61.2146 9.71196C62.3931 9.71196 63.3655 10.0619 64.0983 10.7455C64.6401 11.2861 65.0386 11.9376 65.2775 12.6845H57.1682Z" fill="white"/>
</svg>
