<svg width="46" height="47" viewBox="0 0 46 47" fill="none" xmlns="http://www.w3.org/2000/svg">
<rect x="0.6" y="1.57705" width="44.8" height="44.8" rx="22.4" stroke="#111111" stroke-width="1.2"/>
<path fill-rule="evenodd" clip-rule="evenodd" d="M26.2364 28.2785L26.2149 21.6235L19.6146 28.2237C19.3803 28.458 18.9966 28.4587 18.7575 28.2196C18.5183 27.9805 18.5191 27.5968 18.7533 27.3625L25.3536 20.7622L18.6986 20.7407C18.3631 20.7396 18.0897 20.4662 18.0886 20.1307C18.0875 19.7967 18.3569 19.5274 18.6908 19.5285L26.8124 19.5548C27.1478 19.5558 27.4212 19.8292 27.4223 20.1647L27.4486 28.2862C27.4497 28.6202 27.1804 28.8895 26.8464 28.8885C26.5109 28.8874 26.2375 28.614 26.2364 28.2785Z" fill="#111111"/>
</svg>
