<svg width="49" height="11" viewBox="0 0 49 11" fill="none" xmlns="http://www.w3.org/2000/svg">
<path d="M38.2014 9.04373V10.6749H37.5762C35.7803 10.6553 34.7513 9.59153 34.7513 7.76631V5.10462H33.6758V3.47952H34.7513V1.45349H36.426V3.47986H38.2014V5.10496H36.426V7.76664C36.426 8.62244 36.7552 9.0037 37.5291 9.04406H38.2014V9.04373Z" fill="#CFCFCF"/>
<path d="M6.92024 5.30256L6.90664 5.29575C6.90664 5.29575 6.83965 5.26853 6.73255 5.23485C7.06067 4.74519 7.22795 4.30249 7.22795 3.55117C7.22795 1.99441 5.72644 0.840881 4.3929 0.840881H0.873047V2.49802H4.3929C4.7948 2.49802 5.56629 2.7192 5.56629 3.55117C5.56629 4.54443 5.21064 4.74519 4.24567 4.79215H0.873047V10.7429H5.47857C7.17457 10.7429 8.49519 9.44098 8.49519 7.78452C8.49519 6.70381 7.91173 5.77826 6.9199 5.30222M5.47857 9.04558H2.65643V6.45609H5.47857C6.1892 6.45609 6.73833 7.01959 6.73833 7.74437C6.73833 8.46916 6.18886 9.04558 5.47857 9.04558Z" fill="#CFCFCF"/>
<path d="M11.0671 1.75154C11.0671 2.31504 10.604 2.77815 10.0337 2.77815C9.46338 2.77815 8.99414 2.31504 8.99414 1.75154C8.99414 1.18805 9.46406 0.7052 10.0337 0.7052C10.6033 0.7052 11.0671 1.17444 11.0671 1.75154Z" fill="#CFCFCF"/>
<path d="M10.8763 3.49573H9.20898V10.7095H10.8763V3.49573Z" fill="#CFCFCF"/>
<path d="M42.526 3.32873C40.2712 3.23089 38.4851 5.017 38.5798 7.27323C38.6609 9.19928 40.2787 10.8077 42.2043 10.8763C44.4479 10.9569 46.2144 9.18332 46.1272 6.94305C46.0522 5.02073 44.4466 3.41127 42.526 3.32873ZM41.7798 9.16498C41.0525 8.99717 40.466 8.39829 40.3052 7.66931C39.9777 6.17908 40.9649 4.96502 42.3499 4.96502C43.5544 4.96502 44.4646 5.88287 44.4646 7.10135C44.4646 8.49884 43.2547 9.50501 41.7798 9.16464" fill="#CFCFCF"/>
<path d="M25.4745 6.3287V10.6745H23.7668V6.3954C23.7668 6.2752 23.7668 6.18209 23.7471 6.09507C23.7334 6.00196 23.7334 5.962 23.7205 5.92848L23.6932 5.82792C23.6734 5.7751 23.6598 5.73481 23.6468 5.69486H23.6263L23.566 5.54114C23.5523 5.5215 23.5257 5.46767 23.4579 5.38742C23.3443 5.26113 23.2233 5.16734 23.0814 5.09386C22.9945 5.05357 22.9276 5.02716 22.8734 5.01362L22.779 4.98721C22.7258 4.97366 22.6586 4.9608 22.5778 4.95403C22.4704 4.94048 22.3964 4.93371 22.3019 4.93371C21.9057 4.93371 21.5695 5.02073 21.2936 5.19409C21.267 5.20763 21.2264 5.23438 21.193 5.26756C21.132 5.30751 21.0986 5.33494 21.0788 5.36135C21.0246 5.41417 21.0048 5.42805 20.998 5.44159C20.7487 5.74802 20.6079 6.12859 20.5605 6.60905C20.5543 6.71638 20.5475 6.79595 20.5475 6.88974V10.6748H18.8398V3.53196H20.5605V3.92539C20.8629 3.69143 21.3073 3.46458 21.9255 3.37824L22.0131 3.36469C22.0533 3.35792 22.1403 3.34505 22.2416 3.33828C22.3824 3.33151 22.5509 3.31187 22.7254 3.33828C22.7728 3.33151 22.8533 3.33828 22.9334 3.34505L23.0143 3.35792L23.1155 3.37146C23.1827 3.38501 23.2427 3.3911 23.3038 3.41142C23.3907 3.43106 23.4783 3.45171 23.566 3.47812C23.6598 3.50453 23.7406 3.53873 23.8282 3.57191C24.0972 3.67856 24.3319 3.82551 24.5409 4.01918C24.5941 4.072 24.6681 4.13261 24.7223 4.19254C24.8771 4.3598 25.0247 4.56634 25.153 4.81995C25.1993 4.91373 25.2399 5.00685 25.2672 5.10741C25.2938 5.15346 25.3204 5.24047 25.3412 5.32749C25.435 5.68775 25.4752 6.00162 25.4752 6.3287" fill="#CFCFCF"/>
<path d="M18.0568 9.09237V10.7095H11.7617V9.5958L15.3287 5.11325H11.91V3.49573H17.9096V4.4757L14.2487 9.09237H18.0568Z" fill="#CFCFCF"/>
<path d="M48.3418 2.26031C48.3418 3.26504 47.3929 4.04448 46.3612 3.73175C45.82 3.56783 45.3926 3.0857 45.3007 2.52229C45.1417 1.54842 45.8895 0.7052 46.8235 0.7052C47.6594 0.7052 48.3414 1.40166 48.3414 2.25997" fill="#006EEF"/>
<path d="M33.5132 7.87453C33.565 7.61643 33.578 7.46159 33.578 7.20353C33.578 4.99698 32.0112 3.37109 29.8747 3.37109C27.7641 3.37109 26.0938 5.03569 26.0938 7.13899C26.0938 9.22943 27.79 10.8553 29.9783 10.8553C31.1566 10.8553 32.0759 10.4295 32.827 9.5649C33.0989 9.22943 33.2802 8.93262 33.3967 8.57131H31.5192C31.0789 9.08746 30.6516 9.28102 29.9394 9.28102C28.9165 9.28102 28.1655 8.73907 27.9583 7.87453H33.5132ZM27.9065 6.36478C28.1785 5.43569 28.8777 4.94536 29.9006 4.94536C30.9624 4.94536 31.6616 5.44861 31.8817 6.36478H27.9065Z" fill="#CFCFCF"/>
</svg>
