<svg width="256" height="40" viewBox="0 0 256 40" fill="none" xmlns="http://www.w3.org/2000/svg">
<path d="M112.707 25.7532V30.6784H110.82C105.397 30.619 102.29 27.4072 102.29 21.8962V13.8597H99.043V8.95297H102.29V2.83569H107.347V8.954H112.707V13.8607H107.347V21.8973C107.347 24.4812 108.341 25.6324 110.678 25.7542H112.707V25.7532Z" fill="#111111"/>
<path d="M18.2585 14.4574L18.2175 14.4369C18.2175 14.4369 18.0152 14.3547 17.6919 14.253C18.6825 12.7745 19.1876 11.4379 19.1876 9.16937C19.1876 4.46899 14.6541 0.986084 10.6276 0.986084H0V5.98955H10.6276C11.8411 5.98955 14.1705 6.65736 14.1705 9.16937C14.1705 12.1684 13.0967 12.7745 10.1831 12.9163H0V30.8836H13.9057C19.0265 30.8836 23.0139 26.9527 23.0139 21.9513C23.0139 18.6883 21.2522 15.8937 18.2575 14.4564M13.9057 25.7589H5.38465V17.9403H13.9057C16.0513 17.9403 17.7093 19.6417 17.7093 21.8301C17.7093 24.0185 16.0503 25.7589 13.9057 25.7589Z" fill="#111111"/>
<path d="M30.7804 3.7352C30.7804 5.43658 29.3821 6.83488 27.6602 6.83488C25.9383 6.83488 24.5215 5.43658 24.5215 3.7352C24.5215 2.03382 25.9403 0.575928 27.6602 0.575928C29.3801 0.575928 30.7804 1.99272 30.7804 3.7352Z" fill="#111111"/>
<path d="M30.2062 9.00171H25.1719V30.7827H30.2062V9.00171Z" fill="#111111"/>
<path d="M125.762 8.49766C118.954 8.20228 113.561 13.5951 113.847 20.4075C114.092 26.2229 118.976 31.0793 124.791 31.2865C131.565 31.5296 136.898 26.1747 136.635 19.4106C136.409 13.6064 131.561 8.7469 125.762 8.49766ZM123.509 26.1193C121.313 25.6126 119.542 23.8044 119.056 21.6034C118.068 17.1039 121.048 13.4382 125.23 13.4382C128.867 13.4382 131.615 16.2095 131.615 19.8885C131.615 24.108 127.962 27.146 123.509 26.1183" fill="#111111"/>
<path d="M74.2784 17.5556V30.677H69.1224V17.757C69.1224 17.3941 69.1224 17.1129 69.0626 16.8502C69.0215 16.5691 69.0215 16.4484 68.9823 16.3472L68.9 16.0436C68.8403 15.8841 68.7991 15.7625 68.7599 15.6418H68.6982L68.5159 15.1777C68.4748 15.1184 68.3944 14.9559 68.1896 14.7136C67.8467 14.3322 67.4812 14.0491 67.0529 13.8272C66.7904 13.7056 66.5886 13.6258 66.4249 13.5849L66.1397 13.5052C65.9791 13.4643 65.7762 13.4255 65.5322 13.405C65.2079 13.3641 64.9845 13.3437 64.6993 13.3437C63.503 13.3437 62.4878 13.6064 61.6549 14.1298C61.5746 14.1707 61.4521 14.2515 61.3512 14.3517C61.1669 14.4723 61.066 14.5551 61.0062 14.6349C60.8425 14.7943 60.7828 14.8362 60.7622 14.8771C60.0096 15.8023 59.5844 16.9514 59.4413 18.4021C59.4228 18.7262 59.4022 18.9664 59.4022 19.2496V30.678H54.2461V9.11128H59.4413V10.2992C60.3545 9.59279 61.6961 8.90784 63.5627 8.64715L63.8273 8.60626C63.9488 8.58581 64.2113 8.54697 64.5171 8.52652C64.9423 8.50607 65.4509 8.44678 65.978 8.52652C66.1212 8.50607 66.3641 8.52652 66.6061 8.54697L66.8501 8.58581L67.1559 8.62671C67.3587 8.6676 67.5399 8.686 67.7242 8.74734C67.9867 8.80663 68.2513 8.86899 68.5159 8.94874C68.7991 9.02848 69.0431 9.13173 69.3077 9.23192C70.12 9.55395 70.8284 9.99763 71.4595 10.5824C71.6201 10.7419 71.8435 10.9249 72.0072 11.1058C72.4746 11.6108 72.9204 12.2345 73.3076 13.0002C73.4476 13.2833 73.5701 13.5645 73.6525 13.8681C73.7328 14.0071 73.8131 14.2699 73.8759 14.5326C74.159 15.6204 74.2805 16.568 74.2805 17.5556" fill="#111111"/>
<path d="M51.882 25.8999V30.7827H32.875V27.4199L43.6449 13.8856H33.3226V9.00171H51.4374V11.9606L40.3842 25.8999H51.882Z" fill="#111111"/>
<path d="M143.325 5.27133C143.325 8.30497 140.46 10.6584 137.345 9.71411C135.711 9.2192 134.42 7.76347 134.143 6.06236C133.663 3.1219 135.92 0.575928 138.74 0.575928C141.265 0.575928 143.324 2.67877 143.324 5.2703" fill="#006EEF"/>
<path d="M98.5524 22.2222C98.7086 21.4429 98.7478 20.9754 98.7478 20.1962C98.7478 13.5339 94.0171 8.62476 87.5664 8.62476C81.1937 8.62476 76.1504 13.6507 76.1504 20.0013C76.1504 26.3131 81.2719 31.2221 87.8791 31.2221C91.4369 31.2221 94.2127 29.9365 96.4802 27.326C97.3012 26.3131 97.8486 25.4169 98.2005 24.326H92.5316C91.2023 25.8844 89.9121 26.4688 87.7618 26.4688C84.6733 26.4688 82.4057 24.8325 81.7802 22.2222H98.5524ZM81.6238 17.6637C82.4449 14.8585 84.556 13.378 87.6445 13.378C90.8505 13.378 92.9616 14.8975 93.6263 17.6637H81.6238Z" fill="#111111"/>
<g clip-path="url(#clip0_1423_1808)">
<path d="M204.815 12.1858V30.4847C204.815 36.4443 200.019 39.4241 195.031 39.4241C190.043 39.4241 186.225 37.2274 185.822 32.9679H189.314C189.774 35.2409 191.347 36.3297 195.108 36.3297C199.098 36.3297 201.515 34.0758 201.515 30.4847V27.7724C199.981 30.1027 197.525 31.5926 194.302 31.5926C188.853 31.5926 184.518 27.1993 184.518 21.6218C184.518 16.0443 188.853 11.6892 194.302 11.6892C197.525 11.6892 199.981 13.1409 201.515 15.4712V12.1858H204.815ZM201.515 21.6218C201.515 17.8016 198.561 14.86 194.686 14.86C190.81 14.86 187.856 17.8016 187.856 21.6218C187.856 25.442 190.81 28.4218 194.686 28.4218C198.561 28.4218 201.515 25.4802 201.515 21.6218Z" fill="#111111"/>
<path d="M176.288 17.8784C176.288 25.2896 170.954 31.2492 163.549 31.2492H153.074V4.50757H163.549C170.954 4.50757 176.288 10.4671 176.288 17.8784ZM172.873 17.8784C172.873 12.2244 169.074 7.86937 163.549 7.86937H156.643V27.8874H163.549C169.074 27.8874 172.873 23.5323 172.873 17.8784Z" fill="#111111"/>
<path d="M247.699 27.3332C247.258 26.8939 247.047 26.2827 247.047 25.9771V12.2815H243.767V15.5287C242.251 13.2175 239.834 11.7849 236.63 11.7849C231.373 11.7849 227.057 16.1209 227.057 21.6984C227.057 27.2759 231.373 31.5928 236.63 31.5928C239.834 31.5928 242.942 30.1602 244.246 27.7726C244.246 27.8108 244.285 27.8681 244.304 27.9254C244.534 28.4602 244.899 28.995 245.378 29.5299C245.858 30.0265 246.414 30.4085 247.066 30.695C247.987 31.1344 249.081 31.3445 250.328 31.3445V28.1546C249.138 28.1546 248.256 27.8681 247.719 27.3332H247.699ZM237.033 28.4411C233.253 28.4411 230.337 25.5377 230.337 21.6984C230.337 17.8591 233.253 14.9366 237.033 14.9366C240.812 14.9366 243.767 17.8591 243.767 21.6984C243.767 25.5377 240.851 28.4411 237.033 28.4411Z" fill="#111111"/>
<path d="M220.394 15.3382V23.6472C220.394 26.5315 221.679 27.8876 224.212 28.0214H224.384C224.384 28.0214 224.5 28.0405 224.557 28.0214H225.459V31.2494H224.384C219.588 31.1921 217.056 28.3843 217.056 23.6472V15.3382H213.986V12.1292H217.056V6.34155H220.394V12.1292H225.459V15.3382H220.394Z" fill="#111111"/>
<path d="M178.148 6.60916C178.148 5.38669 179.146 4.35522 180.412 4.35522C181.678 4.35522 182.638 5.38669 182.638 6.60916C182.638 7.83163 181.64 8.82489 180.412 8.82489C179.184 8.82489 178.148 7.83163 178.148 6.60916ZM178.724 12.1485H182.062V31.2496H178.724V12.1485Z" fill="#111111"/>
<path d="M207.559 6.45486C207.559 5.23239 208.556 4.20093 209.822 4.20093C211.089 4.20093 212.048 5.23239 212.048 6.45486C212.048 7.67734 211.05 8.6706 209.822 8.6706C208.595 8.6706 207.559 7.67734 207.559 6.45486ZM208.134 12.147H211.472V31.2482H208.134V12.147Z" fill="#111111"/>
<path d="M256.002 3.36108H252.664V31.2488H256.002V3.36108Z" fill="#111111"/>
</g>
<defs>
<clipPath id="clip0_1423_1808">
<rect width="102.926" height="36.063" fill="white" transform="translate(153.074 3.36108)"/>
</clipPath>
</defs>
</svg>
