<svg width="158" height="25" viewBox="0 0 158 25" fill="none" xmlns="http://www.w3.org/2000/svg">
<path d="M69.5611 15.9755V19.0152H68.396C65.0494 18.9786 63.1317 16.9963 63.1317 13.595V8.63494H61.1276V5.60657H63.1317V1.83105H66.2527V5.6072H69.5611V8.63557H66.2527V13.5956C66.2527 15.1904 66.866 15.9009 68.3083 15.9761H69.5611V15.9755Z" fill="white"/>
<path d="M11.269 9.00405L11.2436 8.99136C11.2436 8.99136 11.1188 8.94064 10.9192 8.87786C11.5306 7.96539 11.8424 7.14042 11.8424 5.74032C11.8424 2.8393 9.04431 0.689697 6.55925 0.689697H0V3.77778H6.55925C7.30819 3.77778 8.74588 4.18994 8.74588 5.74032C8.74588 7.59127 8.08311 7.96539 6.28489 8.05289H0V19.1421H8.5824C11.7429 19.1421 14.2039 16.716 14.2039 13.6292C14.2039 11.6153 13.1166 9.89052 11.2683 9.00341M8.5824 15.9792H3.32334V11.1537H8.5824C9.90667 11.1537 10.93 12.2037 10.93 13.5544C10.93 14.905 9.90604 15.9792 8.5824 15.9792Z" fill="white"/>
<path d="M18.9973 2.3859C18.9973 3.43597 18.1343 4.29899 17.0715 4.29899C16.0088 4.29899 15.1343 3.43597 15.1343 2.3859C15.1343 1.33583 16.01 0.436035 17.0715 0.436035C18.133 0.436035 18.9973 1.31046 18.9973 2.3859Z" fill="white"/>
<path d="M18.6431 5.63574H15.5359V19.0787H18.6431V5.63574Z" fill="white"/>
<path d="M77.6194 5.32575C73.4175 5.14344 70.089 8.47185 70.2655 12.6763C70.4166 16.2656 73.4314 19.2629 77.0198 19.3908C81.2008 19.5408 84.4926 16.2358 84.3301 12.0611C84.1903 8.47881 81.1983 5.47957 77.6194 5.32575ZM76.2287 16.2016C74.8734 15.8889 73.7805 14.7729 73.4808 13.4144C72.8705 10.6374 74.7102 8.37499 77.2912 8.37499C79.5356 8.37499 81.2318 10.0854 81.2318 12.356C81.2318 14.9603 78.9772 16.8353 76.2287 16.201" fill="white"/>
<path d="M45.8443 10.9162V19.0146H42.662V11.0405C42.662 10.8165 42.662 10.643 42.6252 10.4808C42.5998 10.3073 42.5998 10.2329 42.5756 10.1704L42.5248 9.98301C42.4879 9.88458 42.4625 9.8095 42.4384 9.73504H42.4002L42.2878 9.44859C42.2623 9.41199 42.2128 9.31167 42.0863 9.16213C41.8747 8.92678 41.6492 8.75201 41.3848 8.61509C41.2228 8.54 41.0982 8.49079 40.9972 8.46555L40.8212 8.41634C40.722 8.3911 40.5969 8.36712 40.4463 8.3545C40.2461 8.32926 40.1082 8.31665 39.9322 8.31665C39.1938 8.31665 38.5673 8.4788 38.0532 8.80185C38.0036 8.82709 37.928 8.87694 37.8658 8.93877C37.752 9.01323 37.6897 9.06433 37.6529 9.11355C37.5518 9.21198 37.515 9.23785 37.5023 9.26309C37.0378 9.83411 36.7753 10.5433 36.687 11.4386C36.6756 11.6387 36.6629 11.7869 36.6629 11.9617V19.0152H33.4806V5.70447H36.687V6.43765C37.2506 6.00165 38.0786 5.57891 39.2307 5.41801L39.394 5.39277C39.469 5.38016 39.631 5.35618 39.8197 5.34356C40.0822 5.33094 40.3961 5.29435 40.7214 5.34356C40.8097 5.33094 40.9597 5.34356 41.109 5.35618L41.2596 5.38016L41.4484 5.40539C41.5735 5.43063 41.6854 5.44199 41.7991 5.47985C41.9612 5.51644 42.1245 5.55493 42.2878 5.60415C42.4625 5.65336 42.6131 5.71709 42.7764 5.77892C43.2778 5.97768 43.715 6.25151 44.1045 6.61242C44.2036 6.71085 44.3415 6.82379 44.4425 6.93547C44.731 7.24717 45.0062 7.63205 45.2451 8.10464C45.3315 8.27942 45.4071 8.45293 45.458 8.64033C45.5075 8.72614 45.5571 8.8883 45.5959 9.05045C45.7706 9.72179 45.8456 10.3067 45.8456 10.9162" fill="white"/>
<path d="M32.0209 16.0651V19.0787H20.29V17.0032L26.9371 8.64999H20.5663V5.63574H31.7466V7.46193L24.9246 16.0651H32.0209Z" fill="white"/>
<path d="M88.4578 3.33398C88.4578 5.20631 86.6895 6.6588 84.767 6.07601C83.7584 5.77056 82.9621 4.8721 82.7908 3.82219C82.4944 2.00738 83.8879 0.436035 85.6284 0.436035C87.1862 0.436035 88.4571 1.73388 88.4571 3.33334" fill="#006EEF"/>
<path d="M60.8254 13.7955C60.9218 13.3145 60.946 13.026 60.946 12.5451C60.946 8.43316 58.0263 5.40332 54.045 5.40332C50.1118 5.40332 46.9991 8.50529 46.9991 12.4248C46.9991 16.3203 50.1601 19.3502 54.238 19.3502C56.4338 19.3502 58.147 18.5567 59.5465 16.9455C60.0532 16.3203 60.391 15.7672 60.6082 15.0939H57.1094C56.289 16.0558 55.4927 16.4165 54.1656 16.4165C52.2594 16.4165 50.8599 15.4066 50.4738 13.7955H60.8254ZM50.3772 10.9821C50.884 9.25071 52.187 8.33696 54.0932 8.33696C56.0719 8.33696 57.3748 9.27478 57.7851 10.9821H50.3772Z" fill="white"/>
<g clip-path="url(#clip0_1370_230)">
<path d="M126.409 7.60217V18.896C126.409 22.5742 123.449 24.4133 120.37 24.4133C117.292 24.4133 114.935 23.0575 114.687 20.4286H116.842C117.126 21.8315 118.097 22.5035 120.417 22.5035C122.88 22.5035 124.372 21.1124 124.372 18.896V17.222C123.425 18.6603 121.909 19.5798 119.92 19.5798C116.557 19.5798 113.881 16.8683 113.881 13.4259C113.881 9.98355 116.557 7.29565 119.92 7.29565C121.909 7.29565 123.425 8.19162 124.372 9.62988V7.60217H126.409ZM124.372 13.4259C124.372 11.0681 122.549 9.25263 120.157 9.25263C117.765 9.25263 115.942 11.0681 115.942 13.4259C115.942 15.7837 117.765 17.6228 120.157 17.6228C122.549 17.6228 124.372 15.8073 124.372 13.4259Z" fill="white"/>
<path d="M108.802 11.1151C108.802 15.6892 105.51 19.3674 100.94 19.3674H94.475V2.86279H100.94C105.51 2.86279 108.802 6.54096 108.802 11.1151ZM106.695 11.1151C106.695 7.62555 104.35 4.93766 100.94 4.93766H96.6773V17.2925H100.94C104.35 17.2925 106.695 14.6046 106.695 11.1151Z" fill="white"/>
<path d="M152.877 16.9507C152.605 16.6796 152.475 16.3023 152.475 16.1137V7.66101H150.45V9.66514C149.514 8.23867 148.022 7.35449 146.045 7.35449C142.801 7.35449 140.137 10.0306 140.137 13.473C140.137 16.9154 142.801 19.5797 146.045 19.5797C148.022 19.5797 149.941 18.6955 150.746 17.2219C150.746 17.2455 150.769 17.2808 150.781 17.3162C150.923 17.6463 151.148 17.9764 151.444 18.3065C151.74 18.613 152.084 18.8488 152.486 19.0256C153.055 19.2967 153.73 19.4264 154.499 19.4264V17.4577C153.765 17.4577 153.22 17.2808 152.889 16.9507H152.877ZM146.294 17.6345C143.961 17.6345 142.161 15.8426 142.161 13.473C142.161 11.1034 143.961 9.29968 146.294 9.29968C148.626 9.29968 150.45 11.1034 150.45 13.473C150.45 15.8426 148.65 17.6345 146.294 17.6345Z" fill="white"/>
<path d="M136.024 9.54725V14.6755C136.024 16.4556 136.817 17.2926 138.38 17.3751H138.487C138.487 17.3751 138.558 17.3869 138.593 17.3751H139.15V19.3675H138.487C135.527 19.3321 133.964 17.5991 133.964 14.6755V9.54725H132.069V7.5667H133.964V3.99463H136.024V7.5667H139.15V9.54725H136.024Z" fill="white"/>
<path d="M109.951 4.15966C109.951 3.40516 110.566 2.76855 111.348 2.76855C112.129 2.76855 112.721 3.40516 112.721 4.15966C112.721 4.91415 112.106 5.52718 111.348 5.52718C110.59 5.52718 109.951 4.91415 109.951 4.15966ZM110.306 7.57847H112.366V19.3675H110.306V7.57847Z" fill="white"/>
<path d="M128.103 4.06517C128.103 3.31068 128.718 2.67407 129.5 2.67407C130.281 2.67407 130.873 3.31068 130.873 4.06517C130.873 4.81967 130.258 5.4327 129.5 5.4327C128.742 5.4327 128.103 4.81967 128.103 4.06517ZM128.458 7.5783H130.518V19.3673H128.458V7.5783Z" fill="white"/>
<path d="M158 2.15552H155.94V19.3675H158V2.15552Z" fill="white"/>
</g>
<defs>
<clipPath id="clip0_1370_230">
<rect width="63.525" height="22.2576" fill="white" transform="translate(94.475 2.15552)"/>
</clipPath>
</defs>
</svg>
