<svg width="53" height="12" viewBox="0 0 53 12" fill="none" xmlns="http://www.w3.org/2000/svg">
<path d="M41.387 9.7767V11.5672H40.7007C38.7295 11.5456 37.5999 10.378 37.5999 8.37455V5.45296H36.4194V3.66918H37.5999V1.44531H39.4382V3.66955H41.387V5.45333H39.4382V8.37492C39.4382 9.31428 39.7995 9.73277 40.649 9.77707H41.387V9.7767Z" fill="#CFCFCF"/>
<path d="M7.05101 5.67029L7.03608 5.66282C7.03608 5.66282 6.96255 5.63294 6.84499 5.59597C7.20514 5.0585 7.38877 4.57257 7.38877 3.74788C7.38877 2.03912 5.74064 0.772949 4.27688 0.772949H0.41333V2.5919H4.27688C4.71802 2.5919 5.56485 2.83467 5.56485 3.74788C5.56485 4.83813 5.17447 5.0585 4.11528 5.11004H0.41333V11.6418H5.46856C7.33017 11.6418 8.77975 10.2128 8.77975 8.39461C8.77975 7.20837 8.13931 6.19245 7.05063 5.66992M5.46856 9.7788H2.37086V6.93646H5.46856C6.24859 6.93646 6.85133 7.55498 6.85133 8.35054C6.85133 9.14609 6.24821 9.7788 5.46856 9.7788Z" fill="#CFCFCF"/>
<path d="M11.6035 1.77254C11.6035 2.39106 11.0952 2.89939 10.4692 2.89939C9.84318 2.89939 9.32812 2.39106 9.32812 1.77254C9.32812 1.15402 9.84393 0.624023 10.4692 0.624023C11.0944 0.624023 11.6035 1.13908 11.6035 1.77254Z" fill="#CFCFCF"/>
<path d="M11.3946 3.68701H9.56445V11.6052H11.3946V3.68701Z" fill="#CFCFCF"/>
<path d="M46.1324 3.50372C43.6574 3.39634 41.6969 5.35684 41.8008 7.83339C41.8899 9.94752 43.6656 11.713 45.7793 11.7883C48.242 11.8767 50.1809 9.92999 50.0852 7.47097C50.0029 5.36095 48.2405 3.59433 46.1324 3.50372ZM45.3133 9.90986C44.515 9.72566 43.8713 9.06831 43.6947 8.26815C43.3352 6.6324 44.4189 5.2998 45.9391 5.2998C47.2612 5.2998 48.2602 6.30727 48.2602 7.64472C48.2602 9.17868 46.9322 10.2831 45.3133 9.90948" fill="#CFCFCF"/>
<path d="M27.4173 6.79663V11.5668H25.5429V6.86984C25.5429 6.73791 25.5428 6.6357 25.5211 6.54019C25.5062 6.43798 25.5062 6.39413 25.4919 6.35734L25.462 6.24696C25.4403 6.18898 25.4253 6.14475 25.4111 6.1009H25.3886L25.3224 5.93217C25.3074 5.91061 25.2782 5.85152 25.2037 5.76344C25.0791 5.62481 24.9462 5.52187 24.7905 5.44122C24.6951 5.39699 24.6217 5.368 24.5622 5.35314L24.4585 5.32415C24.4001 5.30928 24.3264 5.29516 24.2377 5.28773C24.1198 5.27286 24.0386 5.26543 23.9349 5.26543C23.5 5.26543 23.1309 5.36094 22.8281 5.55123C22.7989 5.56609 22.7544 5.59545 22.7177 5.63187C22.6507 5.67573 22.614 5.70583 22.5923 5.73482C22.5328 5.7928 22.5111 5.80804 22.5036 5.8229C22.23 6.15925 22.0754 6.57698 22.0234 7.10435C22.0167 7.22217 22.0092 7.3095 22.0092 7.41245V11.5671H20.1348V3.7268H22.0234V4.15865C22.3554 3.90184 22.8431 3.65284 23.5217 3.55807L23.6179 3.5432C23.6621 3.53577 23.7575 3.52164 23.8687 3.51421C24.0232 3.50678 24.2081 3.48522 24.3998 3.51421C24.4518 3.50678 24.5401 3.51421 24.6281 3.52164L24.7168 3.53577L24.828 3.55063C24.9017 3.5655 24.9676 3.57219 25.0346 3.59449C25.13 3.61604 25.2262 3.63871 25.3224 3.6677C25.4253 3.69669 25.514 3.73423 25.6102 3.77065C25.9055 3.88772 26.163 4.04902 26.3925 4.2616C26.4509 4.31958 26.5321 4.3861 26.5916 4.45188C26.7615 4.63548 26.9236 4.86219 27.0643 5.14055C27.1152 5.2435 27.1598 5.3457 27.1897 5.45608C27.2189 5.50663 27.2481 5.60214 27.2709 5.69766C27.3739 6.09309 27.418 6.43761 27.418 6.79663" fill="#CFCFCF"/>
<path d="M19.275 9.83014V11.6052H12.3652V10.3827L16.2805 5.46247H12.528V3.68701H19.1134V4.76268L15.0951 9.83014H19.275Z" fill="#CFCFCF"/>
<path d="M52.5163 2.33098C52.5163 3.43382 51.4747 4.28937 50.3423 3.9461C49.7482 3.76618 49.2792 3.23697 49.1783 2.61855C49.0037 1.54958 49.8245 0.624023 50.8497 0.624023C51.7673 0.624023 52.5159 1.38848 52.5159 2.33061" fill="#FF3C50"/>
<path d="M36.2402 8.49347C36.297 8.21017 36.3112 8.04021 36.3112 7.75695C36.3112 5.33494 34.5914 3.55029 32.2463 3.55029C29.9296 3.55029 28.0962 5.37743 28.0962 7.68611C28.0962 9.98067 29.9581 11.7653 32.36 11.7653C33.6534 11.7653 34.6625 11.2979 35.4869 10.3489C35.7853 9.98067 35.9843 9.65488 36.1122 9.25829H34.0514C33.5681 9.82484 33.0991 10.0373 32.3174 10.0373C31.1946 10.0373 30.3702 9.44243 30.1428 8.49347H36.2402ZM30.086 6.8363C30.3845 5.81649 31.1519 5.27828 32.2747 5.27828C33.4402 5.27828 34.2077 5.83067 34.4493 6.8363H30.086Z" fill="#CFCFCF"/>
</svg>
