<svg width="256" height="39" viewBox="0 0 256 39" fill="none" xmlns="http://www.w3.org/2000/svg">
<path d="M112.706 25.1778V30.1029H110.819C105.396 30.0435 102.289 26.8318 102.289 21.3208V13.2843H99.042V8.37753H102.289V2.26025H107.346V8.37856H112.706V13.2853H107.346V21.3218C107.346 23.9058 108.34 25.0569 110.677 25.1788H112.706V25.1778Z" fill="white"/>
<path d="M18.2585 13.8825L18.2175 13.8619C18.2175 13.8619 18.0152 13.7797 17.6919 13.678C18.6825 12.1996 19.1876 10.8629 19.1876 8.59442C19.1876 3.89404 14.6541 0.411133 10.6276 0.411133H0V5.4146H10.6276C11.8411 5.4146 14.1705 6.08241 14.1705 8.59442C14.1705 11.5934 13.0967 12.1996 10.1831 12.3414H0V30.3086H13.9057C19.0265 30.3086 23.0139 26.3778 23.0139 21.3764C23.0139 18.1133 21.2522 15.3188 18.2575 13.8814M13.9057 25.1839H5.38465V17.3654H13.9057C16.0513 17.3654 17.7093 19.0668 17.7093 21.2551C17.7093 23.4435 16.0503 25.1839 13.9057 25.1839Z" fill="white"/>
<path d="M30.7804 3.15927C30.7804 4.86065 29.3821 6.25895 27.6601 6.25895C25.9382 6.25895 24.5214 4.86065 24.5214 3.15927C24.5214 1.45789 25.9403 0 27.6601 0C29.38 0 30.7804 1.41679 30.7804 3.15927Z" fill="white"/>
<path d="M30.2063 8.4248H25.1721V30.2058H30.2063V8.4248Z" fill="white"/>
<path d="M125.763 7.92247C118.955 7.62708 113.562 13.0199 113.848 19.8323C114.093 25.6477 118.977 30.5041 124.792 30.7113C131.566 30.9544 136.899 25.5995 136.636 18.8354C136.41 13.0312 131.562 8.1717 125.763 7.92247ZM123.51 25.5441C121.314 25.0374 119.543 23.2292 119.057 21.0282C118.069 16.5287 121.049 12.863 125.231 12.863C128.868 12.863 131.616 15.6343 131.616 19.3133C131.616 23.5328 127.963 26.5708 123.51 25.5431" fill="white"/>
<path d="M74.2793 16.9804V30.1018H69.1232V17.1818C69.1232 16.8189 69.1232 16.5377 69.0635 16.275C69.0223 15.9939 69.0223 15.8732 68.9832 15.772L68.9009 15.4684C68.8411 15.3089 68.8 15.1873 68.7608 15.0666H68.6991L68.5168 14.6025C68.4756 14.5432 68.3953 14.3807 68.1904 14.1384C67.8476 13.7571 67.4821 13.4739 67.0538 13.252C66.7913 13.1304 66.5895 13.0506 66.4258 13.0097L66.1406 12.93C65.98 12.8891 65.7771 12.8503 65.5331 12.8298C65.2088 12.7889 64.9854 12.7685 64.7002 12.7685C63.5038 12.7685 62.4887 13.0312 61.6558 13.5546C61.5755 13.5955 61.4529 13.6763 61.352 13.7765C61.1678 13.8971 61.0668 13.9799 61.0071 14.0597C60.8434 14.2191 60.7837 14.2611 60.7631 14.3019C60.0105 15.2271 59.5853 16.3762 59.4422 17.8269C59.4237 18.151 59.4031 18.3912 59.4031 18.6744V30.1028H54.247V8.53609H59.4422V9.72402C60.3554 9.0176 61.6969 8.33265 63.5636 8.07196L63.8282 8.03106C63.9496 8.01062 64.2122 7.97177 64.518 7.95132C64.9432 7.93088 65.4518 7.87158 65.9789 7.95132C66.122 7.93088 66.365 7.95132 66.607 7.97177L66.851 8.01062L67.1568 8.05151C67.3596 8.0924 67.5408 8.11081 67.7251 8.17214C67.9876 8.23144 68.2522 8.2938 68.5168 8.37354C68.8 8.45328 69.044 8.55653 69.3086 8.65672C70.1209 8.97875 70.8292 9.42244 71.4604 10.0072C71.621 10.1667 71.8444 10.3497 72.0081 10.5306C72.4755 11.0356 72.9213 11.6593 73.3084 12.425C73.4485 12.7082 73.571 12.9893 73.6533 13.2929C73.7337 13.432 73.814 13.6947 73.8768 13.9574C74.1599 15.0452 74.2814 15.9929 74.2814 16.9804" fill="white"/>
<path d="M51.882 25.323V30.2058H32.875V26.843L43.6449 13.3086H33.3226V8.4248H51.4374V11.3837L40.3842 25.323H51.882Z" fill="white"/>
<path d="M143.324 4.69541C143.324 7.72904 140.459 10.0824 137.344 9.13818C135.71 8.64327 134.419 7.18754 134.142 5.48643C133.662 2.54598 135.919 0 138.739 0C141.264 0 143.323 2.10284 143.323 4.69437" fill="#006EEF"/>
<path d="M98.5524 21.6457C98.7086 20.8665 98.7478 20.3989 98.7478 19.6198C98.7478 12.9574 94.0171 8.04834 87.5664 8.04834C81.1937 8.04834 76.1504 13.0743 76.1504 19.4249C76.1504 25.7367 81.2719 30.6457 87.8791 30.6457C91.4369 30.6457 94.2127 29.3601 96.4802 26.7496C97.3012 25.7367 97.8486 24.8405 98.2005 23.7496H92.5316C91.2023 25.308 89.9121 25.8924 87.7618 25.8924C84.6733 25.8924 82.4057 24.2561 81.7802 21.6457H98.5524ZM81.6238 17.0873C82.4449 14.2821 84.556 12.8016 87.6445 12.8016C90.8505 12.8016 92.9616 14.3211 93.6263 17.0873H81.6238Z" fill="white"/>
<g clip-path="url(#clip0_1351_1561)">
<path d="M204.814 11.6106V29.9095C204.814 35.8691 200.018 38.8489 195.03 38.8489C190.042 38.8489 186.224 36.6522 185.821 32.3927H189.313C189.773 34.6657 191.346 35.7545 195.107 35.7545C199.097 35.7545 201.514 33.5006 201.514 29.9095V27.1972C199.98 29.5275 197.524 31.0174 194.301 31.0174C188.852 31.0174 184.517 26.6241 184.517 21.0466C184.517 15.4691 188.852 11.114 194.301 11.114C197.524 11.114 199.98 12.5657 201.514 14.896V11.6106H204.814ZM201.514 21.0466C201.514 17.2264 198.56 14.2848 194.685 14.2848C190.809 14.2848 187.855 17.2264 187.855 21.0466C187.855 24.8668 190.809 27.8466 194.685 27.8466C198.56 27.8466 201.514 24.905 201.514 21.0466Z" fill="white"/>
<path d="M176.287 17.3027C176.287 24.7139 170.954 30.6735 163.548 30.6735H153.073V3.93188H163.548C170.954 3.93188 176.287 9.89144 176.287 17.3027ZM172.872 17.3027C172.872 11.6487 169.073 7.29369 163.548 7.29369H156.642V27.3117H163.548C169.073 27.3117 172.872 22.9566 172.872 17.3027Z" fill="white"/>
<path d="M247.699 26.7578C247.258 26.3185 247.047 25.7072 247.047 25.4016V11.7061H243.767V14.9533C242.251 12.6421 239.834 11.2095 236.63 11.2095C231.373 11.2095 227.057 15.5454 227.057 21.123C227.057 26.7005 231.373 31.0174 236.63 31.0174C239.834 31.0174 242.942 29.5848 244.246 27.1971C244.246 27.2353 244.285 27.2926 244.304 27.3499C244.534 27.8848 244.898 28.4196 245.378 28.9544C245.858 29.4511 246.414 29.8331 247.066 30.1196C247.987 30.5589 249.081 30.769 250.328 30.769V27.5792C249.138 27.5792 248.256 27.2926 247.719 26.7578H247.699ZM237.033 27.8657C233.253 27.8657 230.337 24.9623 230.337 21.123C230.337 17.2836 233.253 14.3612 237.033 14.3612C240.812 14.3612 243.767 17.2836 243.767 21.123C243.767 24.9623 240.85 27.8657 237.033 27.8657Z" fill="white"/>
<path d="M220.393 14.7623V23.0713C220.393 25.9555 221.678 27.3117 224.211 27.4454H224.383C224.383 27.4454 224.498 27.4645 224.556 27.4454H225.458V30.6735H224.383C219.587 30.6162 217.055 27.8083 217.055 23.0713V14.7623H213.985V11.5533H217.055V5.76562H220.393V11.5533H225.458V14.7623H220.393Z" fill="white"/>
<path d="M178.148 6.03299C178.148 4.81051 179.145 3.77905 180.412 3.77905C181.678 3.77905 182.637 4.81051 182.637 6.03299C182.637 7.25546 181.639 8.24872 180.412 8.24872C179.184 8.24872 178.148 7.25546 178.148 6.03299ZM178.723 11.5723H182.061V30.6735H178.723V11.5723Z" fill="white"/>
<path d="M207.559 5.88016C207.559 4.65768 208.556 3.62622 209.822 3.62622C211.089 3.62622 212.048 4.65768 212.048 5.88016C212.048 7.10263 211.05 8.09589 209.822 8.09589C208.595 8.09589 207.559 7.10263 207.559 5.88016ZM208.134 11.5723H211.472V30.6734H208.134V11.5723Z" fill="white"/>
<path d="M256 2.78589H252.662V30.6736H256V2.78589Z" fill="white"/>
</g>
<defs>
<clipPath id="clip0_1351_1561">
<rect width="102.926" height="36.063" fill="white" transform="translate(153.073 2.78589)"/>
</clipPath>
</defs>
</svg>
