<svg width="158" height="24" viewBox="0 0 158 24" fill="none" xmlns="http://www.w3.org/2000/svg">
<path d="M69.561 15.5394V18.5792H68.3959C65.0493 18.5425 63.1316 16.5603 63.1316 13.159V8.1989H61.1274V5.17053H63.1316V1.39502H66.2525V5.17116H69.561V8.19954H66.2525V13.1596C66.2525 14.7544 66.8659 15.4649 68.3082 15.5401H69.561V15.5394Z" fill="#111111"/>
<path d="M11.269 8.56801L11.2436 8.55533C11.2436 8.55533 11.1188 8.5046 10.9192 8.44183C11.5306 7.52935 11.8424 6.70438 11.8424 5.30429C11.8424 2.40327 9.04431 0.253662 6.55925 0.253662H0V3.34174H6.55925C7.30819 3.34174 8.74588 3.75391 8.74588 5.30429C8.74588 7.15523 8.08311 7.52935 6.28489 7.61686H0V18.706H8.5824C11.7429 18.706 14.2039 16.28 14.2039 13.1932C14.2039 11.1792 13.1166 9.45449 11.2683 8.56738M8.5824 15.5431H3.32334V10.7176H8.5824C9.90667 10.7176 10.93 11.7677 10.93 13.1183C10.93 14.469 9.90604 15.5431 8.5824 15.5431Z" fill="#111111"/>
<path d="M18.9972 1.94986C18.9972 2.99994 18.1342 3.86295 17.0715 3.86295C16.0087 3.86295 15.1343 2.99994 15.1343 1.94986C15.1343 0.899791 16.01 0 17.0715 0C18.1329 0 18.9972 0.874427 18.9972 1.94986Z" fill="#111111"/>
<path d="M18.6432 5.19971H15.5361V18.6427H18.6432V5.19971Z" fill="#111111"/>
<path d="M77.6194 4.88972C73.4175 4.70741 70.089 8.03581 70.2655 12.2403C70.4166 15.8295 73.4314 18.8269 77.0198 18.9547C81.2008 19.1047 84.4926 15.7998 84.3301 11.625C84.1903 8.04277 81.1983 5.04354 77.6194 4.88972ZM76.2287 15.7656C74.8734 15.4529 73.7805 14.3369 73.4808 12.9784C72.8705 10.2014 74.7102 7.93896 77.2912 7.93896C79.5356 7.93896 81.2318 9.64937 81.2318 11.92C81.2318 14.5242 78.9772 16.3992 76.2287 15.765" fill="#111111"/>
<path d="M45.8442 10.4802V18.5785H42.6619V10.6045C42.6619 10.3805 42.6619 10.207 42.6251 10.0448C42.5996 9.87129 42.5996 9.79684 42.5755 9.73437L42.5247 9.54698C42.4878 9.44855 42.4624 9.37346 42.4382 9.29901H42.4001L42.2876 9.01255C42.2622 8.97596 42.2127 8.87564 42.0862 8.7261C41.8746 8.49075 41.649 8.31597 41.3847 8.17905C41.2227 8.10397 41.0981 8.05476 40.9971 8.02952L40.8211 7.9803C40.7219 7.95506 40.5967 7.93109 40.4461 7.91847C40.246 7.89323 40.1081 7.88061 39.9321 7.88061C39.1937 7.88061 38.5672 8.04277 38.0531 8.36582C38.0035 8.39106 37.9279 8.4409 37.8656 8.50274C37.7519 8.57719 37.6896 8.6283 37.6528 8.67751C37.5517 8.77594 37.5149 8.80181 37.5022 8.82705C37.0377 9.39807 36.7752 10.1073 36.6869 11.0026C36.6755 11.2026 36.6627 11.3509 36.6627 11.5257V18.5792H33.4805V5.26843H36.6869V6.00161C37.2505 5.56562 38.0785 5.14287 39.2306 4.98198L39.3939 4.95674C39.4688 4.94412 39.6309 4.92014 39.8196 4.90752C40.082 4.89491 40.3959 4.85831 40.7213 4.90752C40.8096 4.89491 40.9596 4.90752 41.1089 4.92014L41.2595 4.94412L41.4482 4.96936C41.5734 4.9946 41.6852 5.00595 41.799 5.04381C41.961 5.08041 42.1243 5.1189 42.2876 5.16811C42.4624 5.21733 42.613 5.28105 42.7763 5.34289C43.2777 5.54164 43.7148 5.81548 44.1044 6.17639C44.2035 6.27482 44.3414 6.38776 44.4424 6.49944C44.7309 6.81113 45.0061 7.19602 45.245 7.66861C45.3314 7.84338 45.407 8.0169 45.4578 8.20429C45.5074 8.2901 45.557 8.45226 45.5957 8.61442C45.7705 9.28576 45.8455 9.87066 45.8455 10.4802" fill="#111111"/>
<path d="M32.0209 15.6291V18.6427H20.29V16.5672L26.9371 8.21396H20.5663V5.19971H31.7466V7.02589L24.9246 15.6291H32.0209Z" fill="#111111"/>
<path d="M88.4579 2.89795C88.4579 4.77027 86.6896 6.22276 84.7671 5.63998C83.7585 5.33452 82.9622 4.43606 82.7909 3.38616C82.4945 1.57135 83.888 0 85.6285 0C87.1864 0 88.4573 1.29785 88.4573 2.89731" fill="#006EEF"/>
<path d="M60.8252 13.3594C60.9217 12.8785 60.9459 12.5899 60.9459 12.109C60.9459 7.99712 58.0262 4.96729 54.0448 4.96729C50.1117 4.96729 46.999 8.06926 46.999 11.9888C46.999 15.8843 50.16 18.9141 54.2378 18.9141C56.4337 18.9141 58.1469 18.1206 59.5464 16.5095C60.0531 15.8843 60.3909 15.3312 60.6081 14.6579H57.1093C56.2889 15.6198 55.4926 15.9804 54.1654 15.9804C52.2592 15.9804 50.8597 14.9705 50.4737 13.3594H60.8252ZM50.3771 10.546C50.8839 8.81467 52.1869 7.90093 54.0931 7.90093C56.0717 7.90093 57.3747 8.83874 57.7849 10.546H50.3771Z" fill="#111111"/>
<g clip-path="url(#clip0_1423_1958)">
<path d="M126.409 7.16613V18.46C126.409 22.1382 123.449 23.9772 120.37 23.9772C117.291 23.9772 114.935 22.6215 114.687 19.9926H116.842C117.126 21.3955 118.097 22.0674 120.417 22.0674C122.88 22.0674 124.372 20.6763 124.372 18.46V16.786C123.425 18.2242 121.909 19.1438 119.92 19.1438C116.557 19.1438 113.881 16.4323 113.881 12.9899C113.881 9.54751 116.557 6.85962 119.92 6.85962C121.909 6.85962 123.425 7.75558 124.372 9.19384V7.16613H126.409ZM124.372 12.9899C124.372 10.6321 122.549 8.81659 120.157 8.81659C117.765 8.81659 115.942 10.6321 115.942 12.9899C115.942 15.3477 117.765 17.1868 120.157 17.1868C122.549 17.1868 124.372 15.3713 124.372 12.9899Z" fill="#111111"/>
<path d="M108.802 10.6791C108.802 15.2532 105.511 18.9314 100.94 18.9314H94.4751V2.42676H100.94C105.511 2.42676 108.802 6.10493 108.802 10.6791ZM106.695 10.6791C106.695 7.18951 104.35 4.50162 100.94 4.50162H96.6775V16.8565H100.94C104.35 16.8565 106.695 14.1686 106.695 10.6791Z" fill="#111111"/>
<path d="M152.877 16.5147C152.605 16.2436 152.475 15.8663 152.475 15.6777V7.22497H150.45V9.2291C149.514 7.80263 148.023 6.91846 146.045 6.91846C142.801 6.91846 140.137 9.59456 140.137 13.0369C140.137 16.4793 142.801 19.1436 146.045 19.1436C148.023 19.1436 149.941 18.2595 150.746 16.7858C150.746 16.8094 150.77 16.8448 150.781 16.8802C150.924 17.2103 151.149 17.5403 151.445 17.8704C151.741 18.177 152.084 18.4127 152.486 18.5896C153.055 18.8607 153.73 18.9904 154.499 18.9904V17.0216C153.765 17.0216 153.221 16.8448 152.889 16.5147H152.877ZM146.294 17.1985C143.961 17.1985 142.161 15.4065 142.161 13.0369C142.161 10.6674 143.961 8.86364 146.294 8.86364C148.626 8.86364 150.45 10.6674 150.45 13.0369C150.45 15.4065 148.65 17.1985 146.294 17.1985Z" fill="#111111"/>
<path d="M136.024 9.11121V14.2394C136.024 16.0196 136.817 16.8566 138.38 16.9391H138.487C138.487 16.9391 138.558 16.9509 138.594 16.9391H139.15V18.9314H138.487C135.527 18.8961 133.964 17.1631 133.964 14.2394V9.11121H132.069V7.13066H133.964V3.55859H136.024V7.13066H139.15V9.11121H136.024Z" fill="#111111"/>
<path d="M109.951 3.72362C109.951 2.96913 110.566 2.33252 111.348 2.33252C112.129 2.33252 112.721 2.96913 112.721 3.72362C112.721 4.47812 112.106 5.09115 111.348 5.09115C110.59 5.09115 109.951 4.47812 109.951 3.72362ZM110.306 7.14243H112.366V18.9314H110.306V7.14243Z" fill="#111111"/>
<path d="M128.103 3.62914C128.103 2.87464 128.719 2.23804 129.5 2.23804C130.282 2.23804 130.874 2.87464 130.874 3.62914C130.874 4.38364 130.258 4.99666 129.5 4.99666C128.742 4.99666 128.103 4.38364 128.103 3.62914ZM128.458 7.14226H130.519V18.9313H128.458V7.14226Z" fill="#111111"/>
<path d="M158 1.71948H155.94V18.9314H158V1.71948Z" fill="#111111"/>
</g>
<defs>
<clipPath id="clip0_1423_1958">
<rect width="63.525" height="22.2576" fill="white" transform="translate(94.4751 1.71948)"/>
</clipPath>
</defs>
</svg>
