<svg width="260" height="29" viewBox="0 0 260 29" fill="none" xmlns="http://www.w3.org/2000/svg">
<path d="M102.562 23.5572V28.039H100.845C95.9103 27.9849 93.0829 25.0623 93.0829 20.0474V12.7343H90.1279V8.26925H93.0829V2.70264H97.6844V8.27018H102.562V12.7352H97.6844V20.0483C97.6844 22.3997 98.5888 23.4472 100.715 23.5581H102.562V23.5572Z" fill="white"/>
<path d="M16.6151 13.2787L16.5777 13.26C16.5777 13.26 16.3937 13.1852 16.0994 13.0927C17.0009 11.7473 17.4605 10.531 17.4605 8.46666C17.4605 4.1894 13.335 1.02002 9.67103 1.02002H0V5.57308H9.67103C10.7753 5.57308 12.895 6.18078 12.895 8.46666C12.895 11.1957 11.9178 11.7473 9.26651 11.8763H0V28.2262H12.654C17.3139 28.2262 20.9424 24.6492 20.9424 20.098C20.9424 17.1287 19.3393 14.5857 16.6141 13.2778M12.654 23.5628H4.89998V16.4481H12.654C14.6065 16.4481 16.1153 17.9963 16.1153 19.9877C16.1153 21.9791 14.6056 23.5628 12.654 23.5628Z" fill="white"/>
<path d="M28.01 3.5199C28.01 5.06813 26.7376 6.34056 25.1707 6.34056C23.6037 6.34056 22.3145 5.06813 22.3145 3.5199C22.3145 1.97167 23.6056 0.64502 25.1707 0.64502C26.7357 0.64502 28.01 1.93428 28.01 3.5199Z" fill="white"/>
<path d="M27.4874 8.31274H22.9062V28.1331H27.4874V8.31274Z" fill="white"/>
<path d="M114.442 7.85624C108.247 7.58744 103.34 12.4948 103.6 18.694C103.823 23.9859 108.268 28.4052 113.558 28.5937C119.723 28.8149 124.576 23.942 124.337 17.7868C124.131 12.5051 119.719 8.08304 114.442 7.85624ZM112.392 23.8916C110.394 23.4306 108.782 21.7851 108.34 19.7822C107.441 15.6877 110.153 12.352 113.958 12.352C117.268 12.352 119.769 14.8739 119.769 18.2217C119.769 22.0614 116.444 24.8259 112.392 23.8907" fill="white"/>
<path d="M67.5935 16.0988V28.0391H62.9015V16.2821C62.9015 15.9518 62.9015 15.696 62.8471 15.4569C62.8097 15.2011 62.8097 15.0913 62.7741 14.9992L62.6991 14.7229C62.6448 14.5778 62.6073 14.4671 62.5717 14.3573H62.5155L62.3497 13.935C62.3122 13.881 62.2391 13.7331 62.0527 13.5126C61.7407 13.1656 61.4081 12.9079 61.0183 12.706C60.7794 12.5953 60.5958 12.5228 60.4468 12.4856L60.1873 12.413C60.0411 12.3758 59.8566 12.3404 59.6345 12.3218C59.3394 12.2846 59.1361 12.266 58.8766 12.266C57.7879 12.266 56.8641 12.5051 56.1062 12.9814C56.0331 13.0186 55.9216 13.0921 55.8298 13.1833C55.6621 13.2931 55.5703 13.3684 55.5159 13.441C55.367 13.5861 55.3126 13.6242 55.2939 13.6615C54.609 14.5034 54.2221 15.549 54.0918 16.8691C54.075 17.164 54.0562 17.3826 54.0562 17.6403V28.04H49.3643V8.41462H54.0918V9.49562C54.9229 8.85279 56.1436 8.2295 57.8422 7.99227L58.083 7.95506C58.1936 7.93646 58.4325 7.9011 58.7107 7.8825C59.0977 7.86389 59.5605 7.80994 60.0402 7.8825C60.1704 7.86389 60.3915 7.8825 60.6117 7.9011L60.8338 7.93646L61.112 7.97367C61.2966 8.01088 61.4615 8.02762 61.6292 8.08344C61.8681 8.1374 62.1089 8.19415 62.3497 8.26671C62.6073 8.33927 62.8293 8.43323 63.0701 8.5244C63.8093 8.81744 64.4539 9.22118 65.0282 9.75331C65.1744 9.89843 65.3777 10.065 65.5267 10.2296C65.952 10.6892 66.3577 11.2567 66.71 11.9534C66.8374 12.2111 66.9489 12.467 67.0238 12.7433C67.0969 12.8698 67.17 13.1089 67.2271 13.3479C67.4848 14.3378 67.5953 15.2001 67.5953 16.0988" fill="white"/>
<path d="M47.2141 23.6898V28.1331H29.918V25.073L39.7185 12.757H30.3253V8.31274H46.8096V11.0053L36.7512 23.6898H47.2141Z" fill="white"/>
<path d="M130.422 4.91776C130.422 7.67831 127.815 9.81986 124.98 8.9606C123.493 8.51025 122.319 7.18556 122.067 5.63757C121.63 2.96181 123.684 0.64502 126.25 0.64502C128.547 0.64502 130.421 2.55856 130.421 4.91681" fill="#FF3C50"/>
<path d="M89.6814 20.3419C89.8237 19.6328 89.8593 19.2073 89.8593 18.4983C89.8593 12.4357 85.5544 7.96851 79.6843 7.96851C73.8853 7.96851 69.2959 12.5421 69.2959 18.321C69.2959 24.0646 73.9564 28.5317 79.9689 28.5317C83.2064 28.5317 85.7324 27.3618 87.7958 24.9863C88.5429 24.0646 89.0411 23.2491 89.3613 22.2564H84.2026C82.993 23.6745 81.8189 24.2063 79.8622 24.2063C77.0516 24.2063 74.9882 22.7173 74.4189 20.3419H89.6814ZM74.2766 16.1938C75.0238 13.6411 76.9449 12.2939 79.7554 12.2939C82.6728 12.2939 84.5939 13.6766 85.1988 16.1938H74.2766Z" fill="white"/>
<g clip-path="url(#clip0_1205_588)">
<path d="M200.74 24.664C200.341 24.2667 200.151 23.7139 200.151 23.4375V11.0519H197.186V13.9885C195.816 11.8984 193.632 10.6028 190.736 10.6028C185.986 10.6028 182.085 14.524 182.085 19.5681C182.085 24.6122 185.986 28.5162 190.736 28.5162C193.632 28.5162 196.44 27.2206 197.619 25.0613C197.619 25.0959 197.654 25.1477 197.671 25.1995C197.879 25.6832 198.209 26.1669 198.642 26.6506C199.076 27.0997 199.579 27.4452 200.168 27.7043C201 28.1016 201.989 28.2916 203.115 28.2916V25.4068C202.041 25.4068 201.243 25.1477 200.758 24.664H200.74ZM191.083 25.6832C187.668 25.6832 185.032 23.0575 185.032 19.5854C185.032 16.1133 187.668 13.4703 191.083 13.4703C194.499 13.4703 197.169 16.1133 197.169 19.5854C197.169 23.0575 194.533 25.6832 191.083 25.6832Z" fill="white"/>
<path d="M157.015 5.7825C157.015 4.67695 157.916 3.74414 159.06 3.74414C160.205 3.74414 161.072 4.67695 161.072 5.7825C161.072 6.88805 160.17 7.78632 159.06 7.78632C157.951 7.78632 157.015 6.88805 157.015 5.7825ZM157.535 10.9302H160.552V28.2045H157.535V10.9302Z" fill="white"/>
<path d="M260 19.67C260 17.9944 259.636 16.4397 258.925 15.0751C258.214 13.7104 257.174 12.6048 255.856 11.793C254.539 10.9983 252.944 10.3765 251.123 10.3765C249.303 10.3765 247.742 10.9983 246.407 11.793C245.09 12.6048 244.049 13.6931 243.339 15.0751C242.61 16.4397 242.264 17.9944 242.264 19.67C242.264 21.3456 242.628 22.6585 243.391 24.0231C244.136 25.4051 245.211 26.5279 246.546 27.3225C247.898 28.1344 249.511 28.5317 251.297 28.5317C253.412 28.5317 255.163 28.0308 256.515 27.0461C257.85 26.0615 258.838 24.7659 259.463 23.194L259.532 23.0039H256.376L256.342 23.073C255.891 23.9022 255.232 24.5932 254.4 25.1287C253.585 25.6469 252.545 25.906 251.331 25.906C250.187 25.906 249.164 25.6642 248.297 25.1805C247.43 24.6968 246.737 24.0404 246.217 23.2285C245.731 22.4512 245.384 21.7775 245.246 20.8274H260V19.67ZM251.106 13.2094C252.77 13.2094 254.105 13.7104 255.111 14.6605C256.082 15.5933 256.689 16.7679 256.949 18.1499H245.28C245.558 16.7852 246.182 15.5933 247.153 14.6605C248.141 13.7104 249.476 13.2094 251.123 13.2094H251.106Z" fill="white"/>
<path d="M179.641 17.5984V28.2048H176.538V17.7712C176.538 17.443 176.538 17.1493 176.468 16.8556C176.451 16.6656 176.434 16.4929 176.364 16.3201C176.329 16.1992 176.329 16.0956 176.277 15.9919C176.208 15.7674 176.104 15.5428 176 15.3528C176 15.3355 176 15.3182 175.965 15.3182C175.879 15.1109 175.723 14.9037 175.567 14.7309C175.237 14.3509 174.856 14.0572 174.405 13.8326C174.197 13.729 173.954 13.6254 173.729 13.5735C173.66 13.5563 173.607 13.539 173.538 13.5217C173.33 13.4526 173.087 13.4181 172.862 13.4008C172.602 13.3662 172.377 13.349 172.116 13.349H172.099C171.007 13.349 170.001 13.5908 169.169 14.109C169.065 14.1781 168.944 14.2645 168.84 14.3509C168.684 14.4545 168.562 14.5582 168.458 14.6791C168.354 14.7655 168.268 14.8518 168.198 14.9555C167.539 15.7501 167.106 16.8384 166.967 18.2721V18.3067C166.95 18.5485 166.933 18.7904 166.933 19.0495V28.2048H163.829V11.0169H166.967V12.9862C167.574 12.1225 168.84 10.9478 171.232 10.6024C171.284 10.5851 171.302 10.5851 171.371 10.5851C171.562 10.5505 171.77 10.5333 171.995 10.516C172.22 10.4987 172.463 10.4814 172.741 10.4814C172.862 10.4814 172.983 10.4814 173.105 10.4987C173.313 10.4987 173.521 10.516 173.729 10.5333C173.781 10.5505 173.868 10.5678 173.937 10.5678C174.145 10.6024 174.336 10.6196 174.526 10.6715C174.752 10.7233 174.96 10.7751 175.168 10.8442C175.393 10.9133 175.584 10.9824 175.792 11.0688C176.434 11.3279 176.971 11.6734 177.439 12.1052C177.578 12.2261 177.734 12.3643 177.855 12.5025C178.271 12.9344 178.601 13.4353 178.878 13.9881C178.982 14.1954 179.069 14.4027 179.138 14.6273C179.242 14.8518 179.294 15.0764 179.364 15.3182C179.537 16.0092 179.641 16.7693 179.641 17.5984Z" fill="white"/>
<path d="M221.06 17.5984V28.2048H217.956V17.7712C217.956 17.443 217.956 17.1493 217.887 16.8556C217.87 16.6656 217.852 16.4929 217.783 16.3201C217.748 16.1992 217.748 16.0956 217.696 15.9919C217.627 15.7674 217.523 15.5428 217.419 15.3528C217.419 15.3355 217.419 15.3182 217.384 15.3182C217.298 15.1109 217.142 14.9037 216.986 14.7309C216.656 14.3509 216.275 14.0572 215.824 13.8326C215.616 13.729 215.373 13.6254 215.148 13.5735C215.078 13.5563 215.026 13.539 214.957 13.5217C214.749 13.4526 214.506 13.4181 214.281 13.4008C214.021 13.3662 213.795 13.349 213.535 13.349H213.518C212.426 13.349 211.42 13.5908 210.588 14.109C210.484 14.1781 210.363 14.2645 210.259 14.3509C210.103 14.4545 209.981 14.5582 209.877 14.6791C209.773 14.7655 209.686 14.8518 209.617 14.9555C208.958 15.7501 208.525 16.8384 208.386 18.2721V18.3067C208.369 18.5485 208.351 18.7904 208.351 19.0495V28.2048H205.248V11.0169H208.386V12.9862C208.993 12.1225 210.259 10.9478 212.651 10.6024C212.703 10.5851 212.721 10.5851 212.79 10.5851C212.981 10.5505 213.189 10.5333 213.414 10.516C213.639 10.4987 213.882 10.4814 214.16 10.4814C214.281 10.4814 214.402 10.4814 214.524 10.4987C214.732 10.4987 214.94 10.516 215.148 10.5333C215.2 10.5505 215.287 10.5678 215.356 10.5678C215.564 10.6024 215.755 10.6196 215.945 10.6715C216.171 10.7233 216.379 10.7751 216.587 10.8442C216.812 10.9133 217.003 10.9824 217.211 11.0688C217.852 11.3279 218.39 11.6734 218.858 12.1052C218.997 12.2261 219.153 12.3643 219.274 12.5025C219.69 12.9344 220.02 13.4353 220.297 13.9881C220.401 14.1954 220.488 14.4027 220.557 14.6273C220.661 14.8518 220.713 15.0764 220.783 15.3182C220.956 16.0092 221.06 16.7693 221.06 17.5984Z" fill="white"/>
<path d="M232.347 25.5977C228.966 25.5977 226.331 22.9375 226.331 19.4481C226.331 15.9587 228.966 13.2984 232.347 13.2984C234.462 13.2984 236.282 14.3176 237.375 15.9241H240.686C239.317 12.6247 236.109 10.3618 232.347 10.3618C227.354 10.3618 223.349 14.3349 223.349 19.4481C223.349 24.5612 227.354 28.5343 232.347 28.5343C236.109 28.5343 239.334 26.2714 240.686 22.9547H237.375C236.3 24.5612 234.479 25.5977 232.347 25.5977Z" fill="white"/>
<path d="M142.521 7.062V14.9045H153.374V17.9448H142.521V28.2057H139.296V4.02173H155.073V7.062H142.521Z" fill="white"/>
</g>
<defs>
<clipPath id="clip0_1205_588">
<rect width="120.704" height="24.7885" fill="white" transform="translate(139.296 3.74414)"/>
</clipPath>
</defs>
</svg>
