<svg width="242" height="37" viewBox="0 0 242 37" fill="none" xmlns="http://www.w3.org/2000/svg">
<path d="M106.518 23.9909V28.6455H104.733C99.6089 28.5894 96.6724 25.5541 96.6724 20.3458V12.7507H93.6035V8.11352H96.6724V2.33228H101.451V8.11449H106.518V12.7517H101.451V20.3468C101.451 22.7888 102.391 23.8767 104.599 23.9919H106.518V23.9909Z" fill="white"/>
<path d="M17.2558 13.3168L17.217 13.2974C17.217 13.2974 17.0258 13.2197 16.7202 13.1236C17.6565 11.7263 18.1339 10.4631 18.1339 8.31922C18.1339 3.87703 13.8493 0.585449 10.044 0.585449H0V5.31407H10.044C11.1908 5.31407 13.3923 5.9452 13.3923 8.31922C13.3923 11.1535 12.3774 11.7263 9.62385 11.8603H0V28.8406H13.142C17.9815 28.8406 21.75 25.1257 21.75 20.399C21.75 17.3152 20.085 14.6742 17.2548 13.3158M13.142 23.9974H5.08893V16.6084H13.142C15.1698 16.6084 16.7367 18.2163 16.7367 20.2845C16.7367 22.3526 15.1688 23.9974 13.142 23.9974Z" fill="white"/>
<path d="M29.09 3.18153C29.09 4.78945 27.7685 6.11094 26.1412 6.11094C24.5138 6.11094 23.1748 4.78945 23.1748 3.18153C23.1748 1.57361 24.5157 0.195801 26.1412 0.195801C27.7666 0.195801 29.09 1.53477 29.09 3.18153Z" fill="white"/>
<path d="M28.5469 8.15747H23.7891V28.742H28.5469V8.15747Z" fill="white"/>
<path d="M118.855 7.68306C112.421 7.4039 107.324 12.5005 107.594 18.9387C107.826 24.4346 112.442 29.0243 117.937 29.2201C124.339 29.4498 129.38 24.3891 129.131 17.9965C128.917 12.5112 124.335 7.9186 118.855 7.68306ZM116.725 24.3367C114.65 23.8579 112.977 22.149 112.518 20.0689C111.583 15.8165 114.4 12.3522 118.352 12.3522C121.789 12.3522 124.387 14.9713 124.387 18.4482C124.387 22.4359 120.934 25.307 116.725 24.3358" fill="white"/>
<path d="M70.1998 16.2434V28.6441H65.3268V16.4338C65.3268 16.0908 65.3268 15.8251 65.2704 15.5768C65.2315 15.3111 65.2315 15.1971 65.1945 15.1014L65.1167 14.8145C65.0602 14.6638 65.0213 14.5488 64.9843 14.4348H64.926L64.7537 13.9962C64.7148 13.9401 64.6389 13.7865 64.4453 13.5575C64.1213 13.1971 63.7758 12.9295 63.3711 12.7199C63.1229 12.6049 62.9322 12.5295 62.7775 12.4909L62.508 12.4155C62.3562 12.3769 62.1645 12.3402 61.9339 12.3208C61.6274 12.2822 61.4162 12.2629 61.1467 12.2629C60.0161 12.2629 59.0567 12.5112 58.2695 13.0058C58.1936 13.0445 58.0778 13.1208 57.9824 13.2155C57.8083 13.3295 57.7129 13.4078 57.6565 13.4831C57.5018 13.6338 57.4453 13.6735 57.4259 13.7121C56.7146 14.5865 56.3127 15.6724 56.1775 17.0434C56.16 17.3497 56.1405 17.5767 56.1405 17.8444V28.645H51.2676V8.26298H56.1775V9.38565C57.0405 8.71804 58.3084 8.07071 60.0725 7.82434L60.3226 7.78569C60.4374 7.76637 60.6855 7.72966 60.9745 7.71033C61.3764 7.69101 61.857 7.63497 62.3552 7.71033C62.4905 7.69101 62.7201 7.71033 62.9488 7.72966L63.1794 7.76637L63.4684 7.80502C63.66 7.84366 63.8313 7.86105 64.0055 7.91902C64.2536 7.97506 64.5037 8.034 64.7537 8.10936C65.0213 8.18472 65.2519 8.2823 65.502 8.37698C66.2697 8.68132 66.9391 9.10063 67.5356 9.65328C67.6874 9.804 67.8986 9.97694 68.0533 10.1479C68.495 10.6252 68.9163 11.2146 69.2822 11.9382C69.4145 12.2059 69.5303 12.4716 69.6082 12.7585C69.6841 12.8899 69.7599 13.1382 69.8193 13.3865C70.0869 14.4145 70.2017 15.3101 70.2017 16.2434" fill="white"/>
<path d="M49.0344 24.1274V28.742H31.0713V25.5639L41.2497 12.773H31.4943V8.15747H48.6143V10.9538L38.1681 24.1274H49.0344Z" fill="white"/>
<path d="M135.452 4.63328C135.452 7.50028 132.744 9.7244 129.8 8.83201C128.256 8.36429 127.036 6.98852 126.774 5.38085C126.32 2.60192 128.454 0.195801 131.119 0.195801C133.505 0.195801 135.451 2.18313 135.451 4.6323" fill="#055CC2"/>
<path d="M93.1394 20.653C93.2871 19.9165 93.3241 19.4747 93.3241 18.7383C93.3241 12.4419 88.8533 7.80249 82.7568 7.80249C76.7342 7.80249 71.9678 12.5524 71.9678 18.5541C71.9678 24.5192 76.808 29.1586 83.0523 29.1586C86.4147 29.1586 89.0381 27.9435 91.1811 25.4764C91.957 24.5192 92.4744 23.6722 92.8069 22.6412H87.4493C86.1931 24.1141 84.9737 24.6664 82.9415 24.6664C80.0226 24.6664 77.8796 23.1199 77.2884 20.653H93.1394ZM77.1405 16.3449C77.9166 13.6938 79.9117 12.2946 82.8307 12.2946C85.8605 12.2946 87.8557 13.7307 88.4839 16.3449H77.1405Z" fill="white"/>
<g clip-path="url(#clip0_1205_607)">
<path d="M193.568 11.1698V28.4635C193.568 34.0957 189.035 36.9118 184.321 36.9118C179.607 36.9118 175.998 34.8358 175.618 30.8102H178.918C179.353 32.9584 180.839 33.9874 184.393 33.9874C188.164 33.9874 190.449 31.8573 190.449 28.4635V25.9001C188.999 28.1025 186.678 29.5105 183.632 29.5105C178.482 29.5105 174.385 25.3586 174.385 20.0874C174.385 14.8163 178.482 10.7004 183.632 10.7004C186.678 10.7004 188.999 12.0724 190.449 14.2747V11.1698H193.568ZM190.449 20.0874C190.449 16.477 187.657 13.6971 183.994 13.6971C180.332 13.6971 177.54 16.477 177.54 20.0874C177.54 23.6978 180.332 26.5139 183.994 26.5139C187.657 26.5139 190.449 23.7339 190.449 20.0874Z" fill="white"/>
<path d="M166.607 16.5482C166.607 23.5523 161.566 29.1845 154.568 29.1845H144.668V3.91187H154.568C161.566 3.91187 166.607 9.54406 166.607 16.5482ZM163.379 16.5482C163.379 11.2048 159.789 7.089 154.568 7.089H148.04V26.0074H154.568C159.789 26.0074 163.379 21.8916 163.379 16.5482Z" fill="white"/>
<path d="M234.097 25.4848C233.68 25.0696 233.481 24.4919 233.481 24.2031V11.2599H230.38V14.3287C228.948 12.1444 226.663 10.7905 223.635 10.7905C218.667 10.7905 214.588 14.8883 214.588 20.1595C214.588 25.4306 218.667 29.5103 223.635 29.5103C226.663 29.5103 229.601 28.1565 230.833 25.9C230.833 25.9361 230.87 25.9902 230.888 26.0444C231.105 26.5498 231.45 27.0553 231.903 27.5607C232.356 28.0301 232.882 28.3911 233.499 28.6619C234.369 29.0771 235.402 29.2757 236.581 29.2757V26.261C235.457 26.261 234.623 25.9902 234.115 25.4848H234.097ZM224.016 26.5318C220.444 26.5318 217.688 23.7879 217.688 20.1595C217.688 16.531 220.444 13.7691 224.016 13.7691C227.588 13.7691 230.38 16.531 230.38 20.1595C230.38 23.7879 227.624 26.5318 224.016 26.5318Z" fill="white"/>
<path d="M208.29 14.1482V22.0008C208.29 24.7266 209.505 26.0083 211.898 26.1347H212.061C212.061 26.1347 212.17 26.1527 212.225 26.1347H213.077V29.1854H212.061C207.529 29.1313 205.135 26.4776 205.135 22.0008V14.1482H202.234V11.1155H205.135V5.64575H208.29V11.1155H213.077V14.1482H208.29Z" fill="white"/>
<path d="M168.365 5.89843C168.365 4.74311 169.308 3.76831 170.505 3.76831C171.701 3.76831 172.608 4.74311 172.608 5.89843C172.608 7.05376 171.665 7.99245 170.505 7.99245C169.344 7.99245 168.365 7.05376 168.365 5.89843ZM168.909 11.1335H172.064V29.1854H168.909V11.1335Z" fill="white"/>
<path d="M196.161 5.75512C196.161 4.5998 197.104 3.625 198.301 3.625C199.497 3.625 200.404 4.5998 200.404 5.75512C200.404 6.91045 199.461 7.84914 198.301 7.84914C197.14 7.84914 196.161 6.91045 196.161 5.75512ZM196.705 11.1346H199.86V29.1865H196.705V11.1346Z" fill="white"/>
<path d="M241.942 2.83057H238.787V29.1863H241.942V2.83057Z" fill="white"/>
</g>
<defs>
<clipPath id="clip0_1205_607">
<rect width="97.2738" height="34.082" fill="white" transform="translate(144.668 2.82959)"/>
</clipPath>
</defs>
</svg>
