<svg width="113" height="17" viewBox="0 0 113 17" fill="none" xmlns="http://www.w3.org/2000/svg">
<path d="M50.2993 11.0164V13.1713H49.4733C47.1007 13.1453 45.7412 11.7401 45.7412 9.32886V5.81261H44.3203V3.66576H45.7412V0.989258H47.9538V3.66621H50.2993V5.81306H47.9538V9.32931C47.9538 10.4599 48.3886 10.9635 49.4111 11.0169H50.2993V11.0164Z" fill="#888888"/>
<path d="M8.97353 6.07481L8.95556 6.06582C8.95556 6.06582 8.86707 6.02985 8.72557 5.98535C9.15905 5.33849 9.38006 4.75366 9.38006 3.76111C9.38006 1.70455 7.39636 0.180664 5.63457 0.180664H0.984375V2.36984H5.63457C6.16553 2.36984 7.18478 2.66203 7.18478 3.76111C7.18478 5.07327 6.71491 5.33849 5.44006 5.40052H0.984375V13.2618H7.06889C9.30954 13.2618 11.0543 11.5419 11.0543 9.35363C11.0543 7.92594 10.2834 6.70324 8.97308 6.07436M7.06889 11.0196H3.34047V7.59869H7.06889C8.00773 7.59869 8.7332 8.3431 8.7332 9.30058C8.7332 10.2581 8.00728 11.0196 7.06889 11.0196Z" fill="#888888"/>
<path d="M14.4535 1.38228C14.4535 2.12669 13.8417 2.73849 13.0882 2.73849C12.3348 2.73849 11.7148 2.12669 11.7148 1.38228C11.7148 0.637873 12.3357 0 13.0882 0C13.8408 0 14.4535 0.619892 14.4535 1.38228Z" fill="#888888"/>
<path d="M14.2028 3.68555H12V13.2154H14.2028V3.68555Z" fill="#888888"/>
<path d="M56.0113 3.46509C53.0324 3.33585 50.6726 5.69539 50.7977 8.67601C50.9049 11.2204 53.0422 13.3453 55.5862 13.4359C58.5504 13.5423 60.8841 11.1994 60.7688 8.23983C60.6698 5.70033 58.5486 3.57414 56.0113 3.46509ZM55.0253 11.1751C54.0645 10.9534 53.2897 10.1623 53.0772 9.19926C52.6445 7.23058 53.9488 5.62673 55.7786 5.62673C57.3698 5.62673 58.5723 6.83927 58.5723 8.44895C58.5723 10.2951 56.9739 11.6243 55.0253 11.1747" fill="#888888"/>
<path d="M33.486 7.42817V13.1692H31.2299V7.51628C31.2299 7.35749 31.2299 7.23449 31.2038 7.11953C31.1858 6.99653 31.1858 6.94375 31.1686 6.89946L31.1326 6.76662C31.1065 6.69684 31.0885 6.64361 31.0713 6.59083H31.0443L30.9646 6.38776C30.9466 6.36181 30.9114 6.29069 30.8218 6.18469C30.6717 6.01784 30.5118 5.89394 30.3244 5.79688C30.2095 5.74365 30.1212 5.70876 30.0496 5.69087L29.9248 5.65598C29.8545 5.63809 29.7658 5.62109 29.659 5.61215C29.5171 5.59426 29.4194 5.58531 29.2946 5.58531C28.7711 5.58531 28.3269 5.70026 27.9625 5.92928C27.9273 5.94717 27.8737 5.98251 27.8296 6.02634C27.7489 6.07912 27.7048 6.11535 27.6787 6.15024C27.607 6.22002 27.5809 6.23836 27.5719 6.25625C27.2426 6.66105 27.0565 7.16381 26.9939 7.79853C26.9858 7.94032 26.9768 8.04543 26.9768 8.16934V13.1697H24.7207V3.73351H26.9939V4.25326C27.3935 3.94418 27.9805 3.64449 28.7972 3.53043L28.913 3.51254C28.9662 3.5036 29.0811 3.4866 29.2148 3.47765C29.4009 3.46871 29.6234 3.44276 29.8541 3.47765C29.9167 3.46871 30.023 3.47765 30.1289 3.4866L30.2357 3.5036L30.3695 3.52149C30.4582 3.53938 30.5375 3.54743 30.6181 3.57427C30.733 3.60021 30.8488 3.6275 30.9646 3.66239C31.0885 3.69727 31.1952 3.74245 31.311 3.78629C31.6664 3.92718 31.9764 4.12131 32.2525 4.37716C32.3228 4.44694 32.4206 4.52701 32.4922 4.60618C32.6967 4.82714 32.8918 5.09999 33.0612 5.43502C33.1224 5.55892 33.1761 5.68193 33.2121 5.81477C33.2472 5.8756 33.2824 5.99056 33.3099 6.10551C33.4337 6.58144 33.4869 6.99608 33.4869 7.42817" fill="#888888"/>
<path d="M23.6877 11.079V13.2154H15.3711V11.7441L20.0835 5.82238H15.567V3.68555H23.4932V4.98015L18.6568 11.079H23.6877Z" fill="#888888"/>
<path d="M63.6963 2.05439C63.6963 3.3817 62.4427 4.41139 61.0797 3.99825C60.3647 3.78171 59.8001 3.14478 59.6787 2.40049C59.4686 1.11395 60.4565 0 61.6904 0C62.7949 0 63.6959 0.920059 63.6959 2.05394" fill="#055CC2"/>
<path d="M44.1068 9.47097C44.1752 9.13001 44.1923 8.92545 44.1923 8.58455C44.1923 5.66955 42.1224 3.52167 39.2998 3.52167C36.5114 3.52167 34.3047 5.72069 34.3047 8.49928C34.3047 11.2609 36.5456 13.4088 39.4367 13.4088C40.9934 13.4088 42.208 12.8462 43.2002 11.7041C43.5594 11.2609 43.7989 10.8688 43.9529 10.3915H41.4724C40.8908 11.0733 40.3262 11.329 39.3853 11.329C38.0339 11.329 37.0418 10.6131 36.768 9.47097H44.1068ZM36.6996 7.47651C37.0589 6.24913 37.9826 5.60136 39.334 5.60136C40.7368 5.60136 41.6605 6.26619 41.9514 7.47651H36.6996Z" fill="#888888"/>
<g clip-path="url(#clip0_1772_7367)">
<path d="M90.604 5.08155V13.0879C90.604 15.6954 88.5054 16.9991 86.3228 16.9991C84.1403 16.9991 82.4698 16.0381 82.2935 14.1744H83.8213C84.0227 15.1689 84.7111 15.6453 86.3564 15.6453C88.1024 15.6453 89.1601 14.6591 89.1601 13.0879V11.9012C88.4886 12.9208 87.4141 13.5726 86.0038 13.5726C83.6198 13.5726 81.7227 11.6504 81.7227 9.21009C81.7227 6.76974 83.6198 4.86426 86.0038 4.86426C87.4141 4.86426 88.4886 5.49942 89.1601 6.51902V5.08155H90.604ZM89.1601 9.21009C89.1601 7.53861 87.8674 6.25158 86.1717 6.25158C84.476 6.25158 83.1833 7.53861 83.1833 9.21009C83.1833 10.8816 84.476 12.1853 86.1717 12.1853C87.8674 12.1853 89.1601 10.8983 89.1601 9.21009Z" fill="#888888"/>
<path d="M78.1202 7.57183C78.1202 10.8145 75.7865 13.422 72.5463 13.422H67.9629V1.72168H72.5463C75.7865 1.72168 78.1202 4.32918 78.1202 7.57183ZM76.626 7.57183C76.626 5.09805 74.9639 3.19258 72.5463 3.19258H69.5243V11.9511H72.5463C74.9639 11.9511 76.626 10.0456 76.626 7.57183Z" fill="#888888"/>
<path d="M109.368 11.7072C109.175 11.515 109.083 11.2475 109.083 11.1138V5.12159H107.647V6.54234C106.984 5.5311 105.927 4.9043 104.525 4.9043C102.225 4.9043 100.336 6.80142 100.336 9.24177C100.336 11.6821 102.225 13.5709 104.525 13.5709C105.927 13.5709 107.287 12.9441 107.857 11.8994C107.857 11.9161 107.874 11.9412 107.883 11.9663C107.983 12.2003 108.143 12.4343 108.353 12.6683C108.562 12.8856 108.806 13.0527 109.091 13.1781C109.494 13.3703 109.973 13.4622 110.518 13.4622V12.0666C109.998 12.0666 109.612 11.9412 109.377 11.7072H109.368ZM104.701 12.1919C103.047 12.1919 101.771 10.9216 101.771 9.24177C101.771 7.56194 103.047 6.28326 104.701 6.28326C106.355 6.28326 107.647 7.56194 107.647 9.24177C107.647 10.9216 106.372 12.1919 104.701 12.1919Z" fill="#888888"/>
<path d="M97.419 6.46195V10.0974C97.419 11.3594 97.9814 11.9527 99.0895 12.0112H99.165C99.165 12.0112 99.2154 12.0196 99.2406 12.0112H99.6351V13.4236H99.165C97.0664 13.3986 95.9583 12.17 95.9583 10.0974V6.46195H94.6152V5.05792H95.9583V2.52563H97.419V5.05792H99.6351V6.46195H97.419Z" fill="#888888"/>
<path d="M78.9336 2.64144C78.9336 2.10657 79.3701 1.65527 79.9241 1.65527C80.4782 1.65527 80.8979 2.10657 80.8979 2.64144C80.8979 3.17631 80.4614 3.6109 79.9241 3.6109C79.3869 3.6109 78.9336 3.17631 78.9336 2.64144ZM79.1854 5.06508H80.6461V13.4224H79.1854V5.06508Z" fill="#888888"/>
<path d="M91.8047 2.57504C91.8047 2.04016 92.2412 1.58887 92.7952 1.58887C93.3493 1.58887 93.769 2.04016 93.769 2.57504C93.769 3.10991 93.3325 3.54449 92.7952 3.54449C92.258 3.54449 91.8047 3.10991 91.8047 2.57504ZM92.0565 5.06553H93.5172V13.4229H92.0565V5.06553Z" fill="#888888"/>
<path d="M113 1.22168H111.539V13.4234H113V1.22168Z" fill="#888888"/>
</g>
<defs>
<clipPath id="clip0_1772_7367">
<rect width="45.0362" height="15.7787" fill="white" transform="translate(67.9629 1.22168)"/>
</clipPath>
</defs>
</svg>
