<svg width="131" height="29" viewBox="0 0 131 29" fill="none" xmlns="http://www.w3.org/2000/svg">
<path d="M102.907 22.9884V27.4854H101.184C96.2326 27.4311 93.3956 24.4986 93.3956 19.4668V12.129H90.4307V7.64888H93.3956V2.06348H98.0127V7.64982H102.907V12.1299H98.0127V19.4677C98.0127 21.827 98.9201 22.8781 101.054 22.9894H102.907V22.9884Z" fill="white"/>
<path d="M16.6712 12.6756L16.6337 12.6568C16.6337 12.6568 16.449 12.5817 16.1537 12.4889C17.0583 11.139 17.5195 9.91854 17.5195 7.84727C17.5195 3.55557 13.3801 0.375488 9.70368 0.375488H0V4.94392H9.70368C10.8117 4.94392 12.9385 5.55367 12.9385 7.84727C12.9385 10.5855 11.9581 11.139 9.2978 11.2684H0V27.6735H12.6967C17.3723 27.6735 21.0131 24.0844 21.0131 19.5179C21.0131 16.5386 19.4045 13.987 16.6702 12.6746M12.6967 22.9944H4.91652V15.8556H12.6967C14.6558 15.8556 16.1697 17.4091 16.1697 19.4072C16.1697 21.4053 14.6549 22.9944 12.6967 22.9944Z" fill="white"/>
<path d="M28.1035 2.88483C28.1035 4.43829 26.8267 5.71501 25.2545 5.71501C23.6823 5.71501 22.3887 4.43829 22.3887 2.88483C22.3887 1.33138 23.6842 0.000244141 25.2545 0.000244141C26.8249 0.000244141 28.1035 1.29385 28.1035 2.88483Z" fill="white"/>
<path d="M27.579 7.69214H22.9824V27.5794H27.579V7.69214Z" fill="white"/>
<path d="M114.829 7.23543C108.612 6.96572 103.688 11.8897 103.949 18.1097C104.173 23.4195 108.633 27.8537 113.942 28.0429C120.127 28.2648 124.997 23.3755 124.756 17.1995C124.55 11.9 120.123 7.46299 114.829 7.23543ZM112.771 23.3249C110.766 22.8623 109.149 21.2113 108.706 19.2017C107.803 15.0934 110.525 11.7464 114.343 11.7464C117.664 11.7464 120.173 14.2768 120.173 17.6359C120.173 21.4885 116.837 24.2624 112.771 23.324" fill="white"/>
<path d="M67.822 15.5058V27.4864H63.1142V15.6897C63.1142 15.3583 63.1142 15.1016 63.0597 14.8618C63.0221 14.6051 63.0221 14.4949 62.9863 14.4025L62.9111 14.1253C62.8566 13.9797 62.819 13.8686 62.7833 13.7584H62.7269L62.5605 13.3347C62.5229 13.2805 62.4496 13.1321 62.2625 12.9109C61.9494 12.5627 61.6157 12.3042 61.2247 12.1016C60.9849 11.9905 60.8007 11.9177 60.6512 11.8804L60.3908 11.8076C60.2442 11.7702 60.059 11.7348 59.8362 11.7161C59.5401 11.6788 59.3361 11.6601 59.0757 11.6601C57.9833 11.6601 57.0564 11.9 56.2959 12.3779C56.2226 12.4152 56.1107 12.489 56.0186 12.5805C55.8503 12.6906 55.7582 12.7662 55.7037 12.839C55.5542 12.9846 55.4997 13.0229 55.4809 13.0602C54.7937 13.905 54.4055 14.9542 54.2748 16.2787C54.2579 16.5746 54.2391 16.794 54.2391 17.0525V27.4873H49.5312V7.7957H54.2748V8.88034C55.1086 8.23534 56.3335 7.60994 58.0379 7.37192L58.2795 7.33458C58.3904 7.31591 58.6301 7.28044 58.9093 7.26177C59.2975 7.2431 59.7619 7.18897 60.2432 7.26177C60.3739 7.2431 60.5958 7.26177 60.8167 7.28044L61.0395 7.31591L61.3187 7.35325C61.5039 7.39059 61.6693 7.40739 61.8376 7.46339C62.0773 7.51753 62.3189 7.57447 62.5605 7.64728C62.819 7.72009 63.0418 7.81436 63.2834 7.90584C64.0251 8.19987 64.6719 8.60498 65.2481 9.1389C65.3948 9.28451 65.5988 9.4516 65.7482 9.61681C66.175 10.0779 66.5821 10.6473 66.9355 11.3465C67.0634 11.605 67.1752 11.8617 67.2504 12.1389C67.3238 12.2659 67.3971 12.5058 67.4544 12.7457C67.713 13.7388 67.8239 14.6041 67.8239 15.5058" fill="white"/>
<path d="M47.3731 23.1211V27.5794H30.0186V24.509L39.8521 12.1514H30.4273V7.69214H46.9672V10.3938L36.8749 23.1211H47.3731Z" fill="white"/>
<path d="M130.863 5.03765C130.863 7.80752 128.247 9.9563 125.403 9.09414C123.91 8.64227 122.732 7.3131 122.479 5.75989C122.041 3.0751 124.102 0.750488 126.677 0.750488C128.982 0.750488 130.862 2.67049 130.862 5.0367" fill="#FF3C50"/>
<path d="M90.0556 17.8646C90.0349 15.9786 89.6561 14.2174 88.8374 12.625C88.0178 11.0738 86.8419 9.7956 85.3079 8.85216C81.7371 6.71395 78.1239 6.65111 74.4685 8.85216C72.9139 9.7956 71.7164 11.0738 70.9184 12.625C70.0987 14.1761 69.7002 15.9364 69.7002 17.8646C69.7002 19.7927 70.0997 21.2388 71.003 22.8528C71.8226 24.4461 73.0614 25.7244 74.6161 26.6462C76.1491 27.5681 77.9773 28.0502 80.0565 28.0502C82.4514 28.0502 84.4676 27.4631 86.0429 26.3105C87.576 25.1786 88.7105 23.7118 89.4249 21.8671L89.6561 21.2801H84.7825C84.32 22.035 83.7326 22.6427 82.9966 23.1248C82.2399 23.6068 81.253 23.8581 80.0978 23.8581C78.9426 23.8581 78.0177 23.6274 77.199 23.166C76.3587 22.7046 75.7074 22.0763 75.2242 21.3007C74.8877 20.7765 74.6358 20.316 74.4892 19.7918H89.9287C89.9287 19.7918 90.0753 18.8071 90.0546 17.8636M74.5324 15.5594C74.8689 14.5531 75.3934 13.6941 76.1078 13.0029C77.0534 12.1017 78.3138 11.6403 79.8675 11.6403C81.4213 11.6403 82.7033 12.1017 83.6696 13.0029C84.384 13.7157 84.9094 14.5747 85.2243 15.5594H74.5324Z" fill="white"/>
</svg>
