<svg width="21" height="22" viewBox="0 0 21 22" fill="none" xmlns="http://www.w3.org/2000/svg">
<path d="M16.0838 12.5744L16.3903 12.2704H15.9586L1.96032 12.2704C1.25063 12.2704 0.677778 11.7001 0.677778 10.9997C0.677778 10.2992 1.25063 9.72896 1.96032 9.72896L15.9586 9.72896H16.3903L16.0838 9.42496L9.28332 2.67953C8.78314 2.1834 8.78314 1.37961 9.28332 0.88348C9.7843 0.386554 10.5971 0.386554 11.0981 0.88348L20.3915 10.1017C20.8917 10.5978 20.8917 11.4016 20.3915 11.8977L11.0981 21.1159C10.5971 21.6128 9.7843 21.6128 9.28332 21.1159C8.78314 20.6197 8.78314 19.816 9.28332 19.3198L16.0838 12.5744Z" fill="#111111" stroke="white" stroke-width="0.355556"/>
</svg>
