<svg width="24" height="24" viewBox="0 0 24 24" fill="none" xmlns="http://www.w3.org/2000/svg">
<path d="M12.0007 2.625C11.9013 2.625 11.8059 2.66451 11.7355 2.73484C11.6652 2.80516 11.6257 2.90054 11.6257 3V8.25C11.6257 8.34946 11.6652 8.44484 11.7355 8.51517C11.8059 8.58549 11.9013 8.625 12.0007 8.625C12.7437 8.62506 13.4658 8.87027 14.0552 9.32259C14.6446 9.7749 15.0682 10.4091 15.2605 11.1267C15.4527 11.8443 15.4028 12.6054 15.1184 13.2917C14.8341 13.9781 14.3312 14.5515 13.6878 14.9229C13.0444 15.2944 12.2964 15.4431 11.5598 15.3461C10.8232 15.2491 10.1392 14.9118 9.61389 14.3864C9.08856 13.8611 8.75126 13.1771 8.65429 12.4405C8.55733 11.7039 8.70612 10.9559 9.07759 10.3125C9.10227 10.2698 9.11829 10.2226 9.12473 10.1737C9.13116 10.1248 9.12788 10.0751 9.11508 10.0275C9.10228 9.97986 9.0802 9.93522 9.05012 9.89613C9.02004 9.85704 8.98254 9.82426 8.93977 9.79969L4.3929 7.17469C4.30674 7.12513 4.20442 7.1118 4.10844 7.13765C4.01246 7.16349 3.93066 7.22638 3.88103 7.3125C2.84916 9.09974 2.43585 11.1775 2.70521 13.2236C2.97456 15.2697 3.91151 17.1697 5.37076 18.629C6.83001 20.0883 8.73 21.0253 10.7761 21.2948C12.8221 21.5642 14.8999 21.151 16.6872 20.1192C18.4745 19.0874 19.8714 17.4947 20.6612 15.5881C21.4511 13.6815 21.5897 11.5675 21.0557 9.57408C20.5217 7.58064 19.3448 5.81911 17.7076 4.56269C16.0705 3.30626 14.0644 2.62515 12.0007 2.625ZM4.34884 8.01562L8.2554 10.2656C7.90442 11.0247 7.79323 11.8727 7.93665 12.6966L3.58009 13.8684C3.1415 11.8877 3.41363 9.81588 4.34884 8.01562ZM3.77415 14.5922L8.12978 13.425C8.4004 14.1562 8.87219 14.7959 9.49075 15.2705C10.1093 15.7451 10.8494 16.0351 11.6257 16.1072V20.6166C9.85753 20.5374 8.15629 19.9172 6.75206 18.8397C5.34783 17.7623 4.30834 16.2796 3.77415 14.5922ZM12.3757 20.6166V16.1072C13.4 16.013 14.3521 15.5395 15.0453 14.7795C15.7385 14.0196 16.1228 13.0281 16.1228 11.9995C16.1228 10.9709 15.7385 9.97944 15.0453 9.21952C14.3521 8.45961 13.4 7.9861 12.3757 7.89188V3.38344C14.595 3.48167 16.6908 4.43241 18.2265 6.03758C19.7622 7.64274 20.6193 9.77854 20.6193 12C20.6193 14.2215 19.7622 16.3573 18.2265 17.9624C16.6908 19.5676 14.595 20.5183 12.3757 20.6166Z" fill="#111111"/>
</svg>
