<svg width="48" height="48" viewBox="0 0 48 48" fill="none" xmlns="http://www.w3.org/2000/svg">
<path d="M23.9995 5.25024C23.8006 5.25024 23.6098 5.32926 23.4691 5.46991C23.3285 5.61057 23.2495 5.80133 23.2495 6.00024V16.5002C23.2495 16.6992 23.3285 16.8899 23.4691 17.0306C23.6098 17.1712 23.8006 17.2502 23.9995 17.2502C25.4854 17.2504 26.9297 17.7408 28.1084 18.6454C29.2872 19.5501 30.1345 20.8184 30.519 22.2536C30.9035 23.6889 30.8036 25.2109 30.2349 26.5837C29.6662 27.9564 28.6605 29.1032 27.3736 29.8461C26.0868 30.5889 24.5908 30.8865 23.1176 30.6925C21.6445 30.4985 20.2765 29.8238 19.2258 28.7731C18.1752 27.7224 17.5006 26.3544 17.3066 24.8812C17.1127 23.4081 17.4103 21.9121 18.1532 20.6252C18.2026 20.5398 18.2346 20.4455 18.2475 20.3477C18.2604 20.2499 18.2538 20.1505 18.2282 20.0552C18.2026 19.96 18.1585 19.8707 18.0983 19.7925C18.0381 19.7143 17.9631 19.6488 17.8776 19.5996L8.78385 14.3496C8.61152 14.2505 8.40689 14.2239 8.21492 14.2755C8.02296 14.3272 7.85937 14.453 7.7601 14.6252C5.69637 18.1997 4.86976 22.3553 5.40846 26.4474C5.94716 30.5396 7.82108 34.3396 10.7396 37.2583C13.6581 40.1769 17.4581 42.0509 21.5502 42.5898C25.6423 43.1286 29.7979 42.3022 33.3725 40.2386C36.947 38.175 39.7408 34.9896 41.3205 31.1764C42.9002 27.3632 43.1775 23.1353 42.1095 19.1484C41.0414 15.1615 38.6877 11.6385 35.4133 9.12561C32.139 6.61276 28.1269 5.25055 23.9995 5.25024ZM8.69572 16.0315L16.5088 20.5315C15.8069 22.0496 15.5845 23.7456 15.8713 25.3934L7.15822 27.7371C6.28104 23.7757 6.82531 19.632 8.69572 16.0315ZM7.54635 29.1846L16.2576 26.8502C16.7988 28.3126 17.7424 29.5921 18.9795 30.5412C20.2167 31.4904 21.6969 32.0705 23.2495 32.2146V41.2334C19.7131 41.0751 16.3106 39.8346 13.5022 37.6797C10.6937 35.5248 8.61473 32.5595 7.54635 29.1846ZM24.7495 41.2334V32.2146C26.798 32.0262 28.7023 31.0792 30.0887 29.5593C31.4751 28.0395 32.2437 26.0565 32.2437 23.9993C32.2437 21.9421 31.4751 19.9591 30.0887 18.4393C28.7023 16.9195 26.798 15.9724 24.7495 15.784V6.76712C29.188 6.96359 33.3797 8.86507 36.451 12.0754C39.5224 15.2857 41.2366 19.5573 41.2366 24.0002C41.2366 28.4432 39.5224 32.7148 36.451 35.9251C33.3797 39.1354 29.188 41.0369 24.7495 41.2334Z" fill="white"/>
</svg>
