<svg width="15" height="11" viewBox="0 0 15 11" fill="none" xmlns="http://www.w3.org/2000/svg">
<path d="M14.8766 0.79369L5.06567 10.862C4.97944 10.9504 4.86255 11 4.74068 11C4.61881 11 4.50193 10.9504 4.4157 10.862L0.123428 6.4571C0.042194 6.36764 -0.00203047 6.2493 7.16486e-05 6.12704C0.00217377 6.00477 0.0504384 5.88811 0.134697 5.80164C0.218957 5.71517 0.332631 5.66564 0.451773 5.66348C0.570915 5.66133 0.686222 5.70671 0.773401 5.79008L4.74068 9.86065L14.2266 0.126667C14.3138 0.0433015 14.4291 -0.00208374 14.5482 7.35274e-05C14.6674 0.00223079 14.781 0.0517622 14.8653 0.138232C14.9496 0.224701 14.9978 0.341358 14.9999 0.463626C15.002 0.585893 14.9578 0.704224 14.8766 0.79369Z" fill="white"/>
</svg>
