<svg width="22" height="22" viewBox="0 0 22 22" fill="none" xmlns="http://www.w3.org/2000/svg">
<circle cx="10.852" cy="10.8134" r="10.8134" fill="#909090"/>
<path fill-rule="evenodd" clip-rule="evenodd" d="M14.4225 6.06052C14.7473 5.73568 15.274 5.73568 15.5988 6.06052C15.9237 6.38536 15.9237 6.91203 15.5988 7.23687L12.0281 10.8076L15.5991 14.3785C15.9239 14.7034 15.9239 15.23 15.5991 15.5549C15.2742 15.8797 14.7476 15.8797 14.4227 15.5549L10.8518 11.9839L7.28081 15.5549C6.95598 15.8797 6.42931 15.8797 6.10447 15.5549C5.77963 15.23 5.77963 14.7034 6.10447 14.3785L9.67543 10.8076L6.10472 7.23687C5.77988 6.91203 5.77988 6.38536 6.10472 6.06052C6.42956 5.73568 6.95622 5.73568 7.28106 6.06052L10.8518 9.63123L14.4225 6.06052Z" fill="white"/>
</svg>
