<svg width="18" height="18" viewBox="0 0 18 18" fill="none" xmlns="http://www.w3.org/2000/svg">
<path fill-rule="evenodd" clip-rule="evenodd" d="M14.9075 1.24933C15.4476 0.709209 16.3233 0.709209 16.8634 1.24933C17.4035 1.78944 17.4035 2.66514 16.8634 3.20526L10.9305 9.13821L16.8721 15.0799C17.4122 15.62 17.4122 16.4957 16.8721 17.0358C16.332 17.5759 15.4563 17.5759 14.9162 17.0358L8.97453 11.0941L3.03289 17.0358C2.49278 17.5759 1.61708 17.5759 1.07696 17.0358C0.536846 16.4957 0.536846 15.62 1.07696 15.0799L7.0186 9.13821L1.08565 3.20526C0.545536 2.66514 0.545536 1.78944 1.08565 1.24933C1.62577 0.709209 2.50147 0.709209 3.04158 1.24933L8.97453 7.18228L14.9075 1.24933Z" fill="#CFCFCF"/>
</svg>
