<svg width="26" height="26" viewBox="0 0 26 26" fill="none" xmlns="http://www.w3.org/2000/svg">
<path d="M7.49111 0.65918C3.62078 0.65918 0.482178 3.79778 0.482178 7.66811V18.8824C0.482178 22.7527 3.62078 25.8913 7.49111 25.8913H18.7054C22.5757 25.8913 25.7143 22.7527 25.7143 18.8824V7.66811C25.7143 3.79778 22.5757 0.65918 18.7054 0.65918H7.49111ZM21.509 3.46275C22.2827 3.46275 22.9107 4.09075 22.9107 4.86454C22.9107 5.63832 22.2827 6.26632 21.509 6.26632C20.7352 6.26632 20.1072 5.63832 20.1072 4.86454C20.1072 4.09075 20.7352 3.46275 21.509 3.46275ZM13.0982 6.26632C16.9686 6.26632 20.1072 9.40492 20.1072 13.2753C20.1072 17.1456 16.9686 20.2842 13.0982 20.2842C9.22792 20.2842 6.08932 17.1456 6.08932 13.2753C6.08932 9.40492 9.22792 6.26632 13.0982 6.26632ZM13.0982 9.06989C11.9829 9.06989 10.9133 9.51296 10.1246 10.3016C9.33595 11.0903 8.89289 12.1599 8.89289 13.2753C8.89289 14.3906 9.33595 15.4602 10.1246 16.2489C10.9133 17.0375 11.9829 17.4806 13.0982 17.4806C14.2136 17.4806 15.2832 17.0375 16.0719 16.2489C16.8605 15.4602 17.3036 14.3906 17.3036 13.2753C17.3036 12.1599 16.8605 11.0903 16.0719 10.3016C15.2832 9.51296 14.2136 9.06989 13.0982 9.06989Z" fill="#CFCFCF"/>
</svg>
