<svg width="200" height="200" viewBox="0 0 200 200" fill="none" xmlns="http://www.w3.org/2000/svg">
<rect width="200" height="200" rx="100" fill="white"/>
<path d="M36.52 108.5V91.7H43.072C44.544 91.7 45.8 91.932 46.84 92.396C47.88 92.86 48.68 93.532 49.24 94.412C49.8 95.292 50.08 96.34 50.08 97.556C50.08 98.772 49.8 99.82 49.24 100.7C48.68 101.564 47.88 102.236 46.84 102.716C45.8 103.18 44.544 103.412 43.072 103.412H37.84L38.92 102.284V108.5H36.52ZM38.92 102.524L37.84 101.324H43C44.536 101.324 45.696 100.996 46.48 100.34C47.28 99.684 47.68 98.756 47.68 97.556C47.68 96.356 47.28 95.428 46.48 94.772C45.696 94.116 44.536 93.788 43 93.788H37.84L38.92 92.588V102.524ZM58.6711 108.644C57.3911 108.644 56.2551 108.364 55.2631 107.804C54.2711 107.244 53.4871 106.476 52.9111 105.5C52.3351 104.508 52.0471 103.388 52.0471 102.14C52.0471 100.876 52.3351 99.756 52.9111 98.78C53.4871 97.804 54.2711 97.044 55.2631 96.5C56.2551 95.94 57.3911 95.66 58.6711 95.66C59.9351 95.66 61.0631 95.94 62.0551 96.5C63.0631 97.044 63.8471 97.804 64.4071 98.78C64.9831 99.74 65.2711 100.86 65.2711 102.14C65.2711 103.404 64.9831 104.524 64.4071 105.5C63.8471 106.476 63.0631 107.244 62.0551 107.804C61.0631 108.364 59.9351 108.644 58.6711 108.644ZM58.6711 106.628C59.4871 106.628 60.2151 106.444 60.8551 106.076C61.5111 105.708 62.0231 105.188 62.3911 104.516C62.7591 103.828 62.9431 103.036 62.9431 102.14C62.9431 101.228 62.7591 100.444 62.3911 99.788C62.0231 99.116 61.5111 98.596 60.8551 98.228C60.2151 97.86 59.4871 97.676 58.6711 97.676C57.8551 97.676 57.1271 97.86 56.4871 98.228C55.8471 98.596 55.3351 99.116 54.9511 99.788C54.5671 100.444 54.3751 101.228 54.3751 102.14C54.3751 103.036 54.5671 103.828 54.9511 104.516C55.3351 105.188 55.8471 105.708 56.4871 106.076C57.1271 106.444 57.8551 106.628 58.6711 106.628ZM67.0459 108.5V107.012L75.2059 96.884L75.6619 97.676H67.1899V95.78H77.5099V97.292L69.3499 107.396L68.8219 106.604H77.7019V108.5H67.0459ZM87.5776 95.66C88.6176 95.66 89.5296 95.86 90.3136 96.26C91.1136 96.66 91.7376 97.268 92.1856 98.084C92.6336 98.9 92.8576 99.932 92.8576 101.18V108.5H90.5536V101.444C90.5536 100.212 90.2496 99.284 89.6416 98.66C89.0496 98.036 88.2096 97.724 87.1216 97.724C86.3056 97.724 85.5936 97.884 84.9856 98.204C84.3776 98.524 83.9056 98.996 83.5696 99.62C83.2496 100.244 83.0896 101.02 83.0896 101.948V108.5H80.7856V95.78H82.9936V99.212L82.6336 98.3C83.0496 97.468 83.6896 96.82 84.5536 96.356C85.4176 95.892 86.4256 95.66 87.5776 95.66ZM105.018 108.5V105.812L104.898 105.308V100.724C104.898 99.748 104.61 98.996 104.034 98.468C103.474 97.924 102.626 97.652 101.49 97.652C100.738 97.652 100.002 97.78 99.2815 98.036C98.5615 98.276 97.9535 98.604 97.4575 99.02L96.4975 97.292C97.1535 96.764 97.9375 96.364 98.8495 96.092C99.7775 95.804 100.746 95.66 101.754 95.66C103.498 95.66 104.842 96.084 105.786 96.932C106.73 97.78 107.202 99.076 107.202 100.82V108.5H105.018ZM100.842 108.644C99.8975 108.644 99.0655 108.484 98.3455 108.164C97.6415 107.844 97.0975 107.404 96.7135 106.844C96.3295 106.268 96.1375 105.62 96.1375 104.9C96.1375 104.212 96.2975 103.588 96.6175 103.028C96.9535 102.468 97.4895 102.02 98.2255 101.684C98.9775 101.348 99.9855 101.18 101.25 101.18H105.282V102.836H101.346C100.194 102.836 99.4175 103.028 99.0175 103.412C98.6175 103.796 98.4175 104.26 98.4175 104.804C98.4175 105.428 98.6655 105.932 99.1615 106.316C99.6575 106.684 100.346 106.868 101.226 106.868C102.09 106.868 102.842 106.676 103.482 106.292C104.138 105.908 104.61 105.348 104.898 104.612L105.354 106.196C105.05 106.948 104.514 107.548 103.746 107.996C102.978 108.428 102.01 108.644 100.842 108.644ZM109.833 113.3C109.305 113.3 108.801 113.236 108.321 113.108C107.825 112.98 107.409 112.788 107.073 112.532L107.817 110.756C108.297 111.156 108.921 111.356 109.689 111.356C110.297 111.356 110.761 111.164 111.081 110.78C111.417 110.412 111.585 109.86 111.585 109.124V95.78H113.889V109.076C113.889 110.372 113.537 111.396 112.833 112.148C112.145 112.916 111.145 113.3 109.833 113.3ZM112.737 93.332C112.289 93.332 111.913 93.188 111.609 92.9C111.321 92.612 111.177 92.26 111.177 91.844C111.177 91.412 111.321 91.052 111.609 90.764C111.913 90.476 112.289 90.332 112.737 90.332C113.185 90.332 113.553 90.476 113.841 90.764C114.145 91.036 114.297 91.38 114.297 91.796C114.297 92.228 114.153 92.596 113.865 92.9C113.577 93.188 113.201 93.332 112.737 93.332ZM131.523 95.66C132.563 95.66 133.475 95.86 134.259 96.26C135.059 96.66 135.683 97.268 136.131 98.084C136.579 98.9 136.803 99.932 136.803 101.18V108.5H134.499V101.444C134.499 100.212 134.195 99.284 133.587 98.66C132.995 98.036 132.155 97.724 131.067 97.724C130.251 97.724 129.539 97.884 128.931 98.204C128.323 98.524 127.851 98.996 127.515 99.62C127.195 100.244 127.035 101.02 127.035 101.948V108.5H124.731V95.78H126.939V99.212L126.579 98.3C126.995 97.468 127.635 96.82 128.499 96.356C129.363 95.892 130.371 95.66 131.523 95.66ZM148.963 108.5V105.812L148.843 105.308V100.724C148.843 99.748 148.555 98.996 147.979 98.468C147.419 97.924 146.571 97.652 145.435 97.652C144.683 97.652 143.947 97.78 143.227 98.036C142.507 98.276 141.899 98.604 141.403 99.02L140.443 97.292C141.099 96.764 141.883 96.364 142.795 96.092C143.723 95.804 144.691 95.66 145.699 95.66C147.443 95.66 148.787 96.084 149.731 96.932C150.675 97.78 151.147 99.076 151.147 100.82V108.5H148.963ZM144.787 108.644C143.843 108.644 143.011 108.484 142.291 108.164C141.587 107.844 141.043 107.404 140.659 106.844C140.275 106.268 140.083 105.62 140.083 104.9C140.083 104.212 140.243 103.588 140.563 103.028C140.899 102.468 141.435 102.02 142.171 101.684C142.923 101.348 143.931 101.18 145.195 101.18H149.227V102.836H145.291C144.139 102.836 143.363 103.028 142.963 103.412C142.563 103.796 142.363 104.26 142.363 104.804C142.363 105.428 142.611 105.932 143.107 106.316C143.603 106.684 144.291 106.868 145.171 106.868C146.035 106.868 146.787 106.676 147.427 106.292C148.083 105.908 148.555 105.348 148.843 104.612L149.299 106.196C148.995 106.948 148.459 107.548 147.691 107.996C146.923 108.428 145.955 108.644 144.787 108.644ZM159.059 108.644C158.003 108.644 156.995 108.5 156.035 108.212C155.091 107.924 154.347 107.572 153.803 107.156L154.763 105.332C155.307 105.7 155.979 106.012 156.779 106.268C157.579 106.524 158.395 106.652 159.227 106.652C160.299 106.652 161.067 106.5 161.531 106.196C162.011 105.892 162.251 105.468 162.251 104.924C162.251 104.524 162.107 104.212 161.819 103.988C161.531 103.764 161.147 103.596 160.667 103.484C160.203 103.372 159.683 103.276 159.107 103.196C158.531 103.1 157.955 102.988 157.379 102.86C156.803 102.716 156.275 102.524 155.795 102.284C155.315 102.028 154.931 101.684 154.643 101.252C154.355 100.804 154.211 100.212 154.211 99.476C154.211 98.708 154.427 98.036 154.859 97.46C155.291 96.884 155.899 96.444 156.683 96.14C157.483 95.82 158.427 95.66 159.515 95.66C160.347 95.66 161.187 95.764 162.035 95.972C162.899 96.164 163.603 96.444 164.147 96.812L163.163 98.636C162.587 98.252 161.987 97.988 161.363 97.844C160.739 97.7 160.115 97.628 159.491 97.628C158.483 97.628 157.731 97.796 157.235 98.132C156.739 98.452 156.491 98.868 156.491 99.38C156.491 99.812 156.635 100.148 156.923 100.388C157.227 100.612 157.611 100.788 158.075 100.916C158.555 101.044 159.083 101.156 159.659 101.252C160.235 101.332 160.811 101.444 161.387 101.588C161.963 101.716 162.483 101.9 162.947 102.14C163.427 102.38 163.811 102.716 164.099 103.148C164.403 103.58 164.555 104.156 164.555 104.876C164.555 105.644 164.331 106.308 163.883 106.868C163.435 107.428 162.803 107.868 161.987 108.188C161.171 108.492 160.195 108.644 159.059 108.644Z" fill="black"/>
</svg>
