<svg width="48" height="49" viewBox="0 0 48 49" fill="none" xmlns="http://www.w3.org/2000/svg">
<rect y="0.5" width="48" height="48" rx="4" fill="#E8F2FF"/>
<path d="M32.725 26.0385C32.1681 23.8726 30.8302 21.989 28.9684 20.75H34.4997C34.6986 20.75 34.8894 20.671 35.03 20.5304C35.1707 20.3897 35.2497 20.1989 35.2497 20C35.2497 19.8011 35.1707 19.6103 35.03 19.4697C34.8894 19.329 34.6986 19.25 34.4997 19.25H26.9059C26.7407 18.6047 26.3654 18.0327 25.8392 17.6243C25.313 17.2158 24.6658 16.9941 23.9997 16.9941C23.3336 16.9941 22.6864 17.2158 22.1602 17.6243C21.634 18.0327 21.2587 18.6047 21.0934 19.25H13.4997C13.3008 19.25 13.11 19.329 12.9694 19.4697C12.8287 19.6103 12.7497 19.8011 12.7497 20C12.7497 20.1989 12.8287 20.3897 12.9694 20.5304C13.11 20.671 13.3008 20.75 13.4997 20.75H19.0309C17.1692 21.989 15.8313 23.8726 15.2744 26.0385C14.5542 26.1534 13.9006 26.5266 13.4357 27.0885C12.9709 27.6503 12.7265 28.3622 12.7484 29.0911C12.7703 29.82 13.057 30.516 13.5548 31.0489C14.0526 31.5818 14.7274 31.9151 15.4531 31.9866C16.1789 32.058 16.9058 31.8627 17.4979 31.4371C18.0901 31.0115 18.5069 30.3848 18.6706 29.6742C18.8342 28.9635 18.7334 28.2176 18.387 27.5759C18.0406 26.9342 17.4723 26.4407 16.7884 26.1875C17.1104 25.0773 17.6829 24.0557 18.4618 23.2014C19.2406 22.3472 20.2051 21.683 21.2809 21.26C21.5216 21.7791 21.9057 22.2184 22.388 22.5263C22.8702 22.8342 23.4304 22.9978 24.0025 22.9978C24.5746 22.9978 25.1348 22.8342 25.617 22.5263C26.0992 22.2184 26.4833 21.7791 26.7241 21.26C27.7989 21.6837 28.7622 22.3482 29.5401 23.2024C30.3179 24.0566 30.8895 25.0778 31.2109 26.1875C30.5267 26.4398 29.9578 26.9326 29.6106 27.5739C29.2634 28.2152 29.1617 28.961 29.3244 29.6718C29.4872 30.3827 29.9033 31.0099 30.4949 31.4362C31.0865 31.8625 31.8132 32.0588 32.539 31.9882C33.2648 31.9177 33.9401 31.5851 34.4386 31.0528C34.937 30.5206 35.2245 29.8249 35.2473 29.096C35.2701 28.3672 35.0266 27.6549 34.5624 27.0925C34.0982 26.5302 33.445 26.1561 32.725 26.0403V26.0385ZM17.2497 29C17.2497 29.2967 17.1617 29.5867 16.9969 29.8334C16.8321 30.0801 16.5978 30.2723 16.3237 30.3858C16.0496 30.4994 15.748 30.5291 15.457 30.4712C15.1661 30.4133 14.8988 30.2705 14.689 30.0607C14.4792 29.8509 14.3364 29.5836 14.2785 29.2927C14.2206 29.0017 14.2503 28.7001 14.3639 28.426C14.4774 28.1519 14.6697 27.9176 14.9163 27.7528C15.163 27.588 15.453 27.5 15.7497 27.5C16.1475 27.5 16.529 27.6581 16.8103 27.9394C17.0916 28.2207 17.2497 28.6022 17.2497 29ZM23.9997 21.5C23.703 21.5 23.413 21.412 23.1663 21.2472C22.9197 21.0824 22.7274 20.8481 22.6139 20.574C22.5003 20.3 22.4706 19.9984 22.5285 19.7074C22.5864 19.4164 22.7292 19.1491 22.939 18.9394C23.1488 18.7296 23.4161 18.5867 23.707 18.5288C23.998 18.471 24.2996 18.5007 24.5737 18.6142C24.8478 18.7277 25.0821 18.92 25.2469 19.1667C25.4117 19.4133 25.4997 19.7034 25.4997 20C25.4997 20.3978 25.3416 20.7794 25.0603 21.0607C24.779 21.342 24.3975 21.5 23.9997 21.5ZM32.2497 30.5C31.953 30.5 31.663 30.412 31.4163 30.2472C31.1697 30.0824 30.9774 29.8481 30.8639 29.574C30.7503 29.3 30.7206 28.9984 30.7785 28.7074C30.8364 28.4164 30.9792 28.1491 31.189 27.9394C31.3988 27.7296 31.6661 27.5867 31.957 27.5288C32.248 27.471 32.5496 27.5007 32.8237 27.6142C33.0978 27.7277 33.3321 27.92 33.4969 28.1667C33.6617 28.4133 33.7497 28.7034 33.7497 29C33.7497 29.3978 33.5916 29.7794 33.3103 30.0607C33.029 30.342 32.6475 30.5 32.2497 30.5Z" fill="black"/>
</svg>
