<svg width="48" height="48" viewBox="0 0 48 48" fill="none" xmlns="http://www.w3.org/2000/svg">
<rect width="48" height="48" rx="4" fill="#006EEF"/>
<path d="M24.375 14.25C21.8894 14.2527 19.5065 15.2413 17.7489 16.9989C15.9913 18.7565 15.0027 21.1394 15 23.625V31.5C15 31.8978 15.158 32.2794 15.4393 32.5607C15.7206 32.842 16.1022 33 16.5 33H24.375C26.8614 33 29.246 32.0123 31.0041 30.2541C32.7623 28.496 33.75 26.1114 33.75 23.625C33.75 21.1386 32.7623 18.754 31.0041 16.9959C29.246 15.2377 26.8614 14.25 24.375 14.25ZM24.375 31.5H16.5V23.625C16.5 22.0675 16.9619 20.5449 17.8272 19.2499C18.6925 17.9548 19.9224 16.9455 21.3614 16.3494C22.8003 15.7534 24.3837 15.5975 25.9113 15.9013C27.4389 16.2052 28.8421 16.9552 29.9435 18.0565C31.0448 19.1579 31.7948 20.5611 32.0987 22.0887C32.4025 23.6163 32.2466 25.1997 31.6506 26.6386C31.0545 28.0776 30.0452 29.3075 28.7501 30.1728C27.4551 31.0381 25.9325 31.5 24.375 31.5ZM25.5 24C25.5 24.2225 25.434 24.44 25.3104 24.625C25.1868 24.81 25.0111 24.9542 24.8055 25.0394C24.6 25.1245 24.3738 25.1468 24.1555 25.1034C23.9373 25.06 23.7368 24.9528 23.5795 24.7955C23.4222 24.6382 23.315 24.4377 23.2716 24.2195C23.2282 24.0012 23.2505 23.775 23.3356 23.5695C23.4208 23.3639 23.565 23.1882 23.75 23.0646C23.935 22.941 24.1525 22.875 24.375 22.875C24.6734 22.875 24.9595 22.9935 25.1705 23.2045C25.3815 23.4155 25.5 23.7016 25.5 24ZM21.375 24C21.375 24.2225 21.309 24.44 21.1854 24.625C21.0618 24.81 20.8861 24.9542 20.6805 25.0394C20.475 25.1245 20.2488 25.1468 20.0305 25.1034C19.8123 25.06 19.6118 24.9528 19.4545 24.7955C19.2972 24.6382 19.19 24.4377 19.1466 24.2195C19.1032 24.0012 19.1255 23.775 19.2106 23.5695C19.2958 23.3639 19.44 23.1882 19.625 23.0646C19.81 22.941 20.0275 22.875 20.25 22.875C20.5484 22.875 20.8345 22.9935 21.0455 23.2045C21.2565 23.4155 21.375 23.7016 21.375 24ZM29.625 24C29.625 24.2225 29.559 24.44 29.4354 24.625C29.3118 24.81 29.1361 24.9542 28.9305 25.0394C28.725 25.1245 28.4988 25.1468 28.2805 25.1034C28.0623 25.06 27.8618 24.9528 27.7045 24.7955C27.5472 24.6382 27.44 24.4377 27.3966 24.2195C27.3532 24.0012 27.3755 23.775 27.4606 23.5695C27.5458 23.3639 27.69 23.1882 27.875 23.0646C28.06 22.941 28.2775 22.875 28.5 22.875C28.7984 22.875 29.0845 22.9935 29.2955 23.2045C29.5065 23.4155 29.625 23.7016 29.625 24Z" fill="white"/>
</svg>
