<svg width="48" height="48" viewBox="0 0 48 48" fill="none" xmlns="http://www.w3.org/2000/svg">
<rect width="48" height="48" rx="4" fill="#006EEF"/>
<path d="M32.725 25.5385C32.1681 23.3726 30.8302 21.489 28.9684 20.25H34.4997C34.6986 20.25 34.8894 20.171 35.03 20.0304C35.1707 19.8897 35.2497 19.6989 35.2497 19.5C35.2497 19.3011 35.1707 19.1103 35.03 18.9697C34.8894 18.829 34.6986 18.75 34.4997 18.75H26.9059C26.7407 18.1047 26.3654 17.5327 25.8392 17.1243C25.313 16.7158 24.6658 16.4941 23.9997 16.4941C23.3336 16.4941 22.6864 16.7158 22.1602 17.1243C21.634 17.5327 21.2587 18.1047 21.0934 18.75H13.4997C13.3008 18.75 13.11 18.829 12.9694 18.9697C12.8287 19.1103 12.7497 19.3011 12.7497 19.5C12.7497 19.6989 12.8287 19.8897 12.9694 20.0304C13.11 20.171 13.3008 20.25 13.4997 20.25H19.0309C17.1692 21.489 15.8313 23.3726 15.2744 25.5385C14.5542 25.6534 13.9006 26.0266 13.4357 26.5885C12.9709 27.1503 12.7265 27.8622 12.7484 28.5911C12.7703 29.32 13.057 30.016 13.5548 30.5489C14.0526 31.0818 14.7274 31.4151 15.4531 31.4866C16.1789 31.558 16.9058 31.3627 17.4979 30.9371C18.0901 30.5115 18.5069 29.8848 18.6706 29.1742C18.8342 28.4635 18.7334 27.7176 18.387 27.0759C18.0406 26.4342 17.4723 25.9407 16.7884 25.6875C17.1104 24.5773 17.6829 23.5557 18.4618 22.7014C19.2406 21.8472 20.2051 21.183 21.2809 20.76C21.5216 21.2791 21.9057 21.7184 22.388 22.0263C22.8702 22.3342 23.4304 22.4978 24.0025 22.4978C24.5746 22.4978 25.1348 22.3342 25.617 22.0263C26.0992 21.7184 26.4833 21.2791 26.7241 20.76C27.7989 21.1837 28.7622 21.8482 29.5401 22.7024C30.3179 23.5566 30.8895 24.5778 31.2109 25.6875C30.5267 25.9398 29.9578 26.4326 29.6106 27.0739C29.2634 27.7152 29.1617 28.461 29.3244 29.1718C29.4872 29.8827 29.9033 30.5099 30.4949 30.9362C31.0865 31.3625 31.8132 31.5588 32.539 31.4882C33.2648 31.4177 33.9401 31.0851 34.4386 30.5528C34.937 30.0206 35.2245 29.3249 35.2473 28.596C35.2701 27.8672 35.0266 27.1549 34.5624 26.5925C34.0982 26.0302 33.445 25.6561 32.725 25.5403V25.5385ZM17.2497 28.5C17.2497 28.7967 17.1617 29.0867 16.9969 29.3334C16.8321 29.5801 16.5978 29.7723 16.3237 29.8858C16.0496 29.9994 15.748 30.0291 15.457 29.9712C15.1661 29.9133 14.8988 29.7705 14.689 29.5607C14.4792 29.3509 14.3364 29.0836 14.2785 28.7927C14.2206 28.5017 14.2503 28.2001 14.3639 27.926C14.4774 27.6519 14.6697 27.4176 14.9163 27.2528C15.163 27.088 15.453 27 15.7497 27C16.1475 27 16.529 27.1581 16.8103 27.4394C17.0916 27.7207 17.2497 28.1022 17.2497 28.5ZM23.9997 21C23.703 21 23.413 20.912 23.1663 20.7472C22.9197 20.5824 22.7274 20.3481 22.6139 20.074C22.5003 19.8 22.4706 19.4984 22.5285 19.2074C22.5864 18.9164 22.7292 18.6491 22.939 18.4394C23.1488 18.2296 23.4161 18.0867 23.707 18.0288C23.998 17.971 24.2996 18.0007 24.5737 18.1142C24.8478 18.2277 25.0821 18.42 25.2469 18.6667C25.4117 18.9133 25.4997 19.2034 25.4997 19.5C25.4997 19.8978 25.3416 20.2794 25.0603 20.5607C24.779 20.842 24.3975 21 23.9997 21ZM32.2497 30C31.953 30 31.663 29.912 31.4163 29.7472C31.1697 29.5824 30.9774 29.3481 30.8639 29.074C30.7503 28.8 30.7206 28.4984 30.7785 28.2074C30.8364 27.9164 30.9792 27.6491 31.189 27.4394C31.3988 27.2296 31.6661 27.0867 31.957 27.0288C32.248 26.971 32.5496 27.0007 32.8237 27.1142C33.0978 27.2277 33.3321 27.42 33.4969 27.6667C33.6617 27.9133 33.7497 28.2034 33.7497 28.5C33.7497 28.8978 33.5916 29.2794 33.3103 29.5607C33.029 29.842 32.6475 30 32.2497 30Z" fill="white"/>
</svg>
