<svg width="48" height="49" viewBox="0 0 48 49" fill="none" xmlns="http://www.w3.org/2000/svg">
<rect y="0.5" width="48" height="48" rx="4" fill="#E8F2FF"/>
<path d="M35.25 21.1887C35.2506 20.9917 35.212 20.7965 35.1366 20.6144C35.0611 20.4324 34.9502 20.2672 34.8103 20.1284L28.3715 13.6887C28.2322 13.5494 28.0669 13.4389 27.8849 13.3635C27.7028 13.2881 27.5078 13.2493 27.3107 13.2493C27.1137 13.2493 26.9187 13.2881 26.7366 13.3635C26.5546 13.4389 26.3893 13.5494 26.25 13.6887L23.5847 16.354L18.1472 18.395C17.9 18.4871 17.6815 18.6426 17.5133 18.8458C17.3452 19.049 17.2333 19.2928 17.189 19.5528L15.0103 32.6262C14.9923 32.7337 14.998 32.8438 15.0268 32.9488C15.0557 33.0539 15.1072 33.1514 15.1776 33.2346C15.248 33.3177 15.3357 33.3846 15.4345 33.4304C15.5334 33.4762 15.641 33.5 15.75 33.5C15.7914 33.4998 15.8328 33.4964 15.8737 33.4897L28.9462 31.3109C29.2059 31.2676 29.4496 31.1567 29.6528 30.9893C29.8561 30.8219 30.0117 30.604 30.104 30.3575L32.145 24.92L34.8103 22.25C34.9502 22.1111 35.0612 21.9457 35.1367 21.7635C35.2122 21.5813 35.2507 21.3859 35.25 21.1887ZM28.6997 29.8315L17.9362 31.625L22.3772 27.184C22.9318 27.4838 23.5759 27.5739 24.1915 27.4379C24.8072 27.3019 25.3533 26.9488 25.73 26.4433C26.1068 25.9377 26.289 25.3135 26.2433 24.6846C26.1977 24.0558 25.9272 23.4644 25.4814 23.0186C25.0356 22.5727 24.4442 22.3023 23.8153 22.2566C23.1865 22.211 22.5622 22.3932 22.0567 22.7699C21.5511 23.1467 21.198 23.6928 21.062 24.3084C20.926 24.9241 21.0161 25.5681 21.3159 26.1228L16.875 30.5656L18.6684 19.7994L23.8125 17.8709L30.6281 24.6875L28.6997 29.8315ZM22.5 24.875C22.5 24.6525 22.5659 24.435 22.6896 24.25C22.8132 24.065 22.9889 23.9208 23.1944 23.8356C23.4 23.7505 23.6262 23.7282 23.8444 23.7716C24.0627 23.815 24.2631 23.9221 24.4205 24.0795C24.5778 24.2368 24.6849 24.4373 24.7284 24.6555C24.7718 24.8737 24.7495 25.0999 24.6643 25.3055C24.5792 25.5111 24.435 25.6868 24.25 25.8104C24.065 25.934 23.8475 26 23.625 26C23.3266 26 23.0405 25.8815 22.8295 25.6705C22.6185 25.4595 22.5 25.1733 22.5 24.875ZM31.5 23.4387L25.0603 17L27.3103 14.75L33.75 21.1887L31.5 23.4387Z" fill="black"/>
</svg>
