<svg width="48" height="48" viewBox="0 0 48 48" fill="none" xmlns="http://www.w3.org/2000/svg">
<rect width="48" height="48" rx="4" fill="#006EEF"/>
<path d="M18.7298 20.8266L14.9216 24L18.7298 27.1735C18.8076 27.2358 18.8723 27.313 18.9199 27.4006C18.9676 27.4882 18.9973 27.5845 19.0073 27.6837C19.0173 27.7829 19.0074 27.8831 18.9782 27.9785C18.949 28.0739 18.9011 28.1624 18.8373 28.2391C18.7734 28.3157 18.695 28.3788 18.6064 28.4247C18.5179 28.4706 18.4211 28.4984 18.3217 28.5065C18.2223 28.5146 18.1223 28.5027 18.0275 28.4717C17.9328 28.4406 17.8451 28.391 17.7698 28.3256L13.2698 24.5757C13.1853 24.5053 13.1174 24.4172 13.0708 24.3176C13.0242 24.2181 13 24.1095 13 23.9996C13 23.8896 13.0242 23.781 13.0708 23.6815C13.1174 23.5819 13.1853 23.4938 13.2698 23.4235L17.7698 19.6735C17.9227 19.5462 18.1199 19.4848 18.3181 19.5029C18.5162 19.521 18.699 19.6171 18.8263 19.77C18.9536 19.9229 19.015 20.1202 18.9969 20.3183C18.9788 20.5164 18.8827 20.6993 18.7298 20.8266ZM35.2298 23.4235L30.7298 19.6735C30.6541 19.6104 30.5667 19.5629 30.4726 19.5337C30.3785 19.5044 30.2796 19.494 30.1815 19.5029C30.0834 19.5119 29.988 19.5401 29.9008 19.5859C29.8136 19.6318 29.7362 19.6943 29.6732 19.77C29.5459 19.9229 29.4846 20.1202 29.5027 20.3183C29.5208 20.5164 29.6169 20.6993 29.7698 20.8266L33.5779 24L29.7698 27.1735C29.6919 27.2358 29.6273 27.313 29.5796 27.4006C29.532 27.4882 29.5023 27.5845 29.4923 27.6837C29.4823 27.7829 29.4921 27.8831 29.5213 27.9785C29.5505 28.0739 29.5984 28.1624 29.6623 28.2391C29.7261 28.3157 29.8046 28.3788 29.8931 28.4247C29.9816 28.4706 30.0784 28.4984 30.1778 28.5065C30.2772 28.5146 30.3773 28.5027 30.472 28.4717C30.5668 28.4406 30.6544 28.391 30.7298 28.3256L35.2298 24.5757C35.3142 24.5053 35.3821 24.4172 35.4288 24.3176C35.4754 24.2181 35.4995 24.1095 35.4995 23.9996C35.4995 23.8896 35.4754 23.781 35.4288 23.6815C35.3821 23.5819 35.3142 23.4938 35.2298 23.4235ZM27.5057 15.045C27.4131 15.0114 27.3148 14.9964 27.2164 15.0007C27.118 15.0051 27.0215 15.0288 26.9322 15.0705C26.843 15.1122 26.7629 15.1711 26.6964 15.2438C26.6299 15.3164 26.5784 15.4015 26.5448 15.4941L20.5448 31.9941C20.511 32.0867 20.4959 32.1851 20.5002 32.2836C20.5045 32.3821 20.5282 32.4788 20.5699 32.5681C20.6116 32.6575 20.6705 32.7377 20.7432 32.8043C20.816 32.8708 20.9011 32.9224 20.9938 32.956C21.076 32.9852 21.1626 33.0001 21.2498 33C21.4038 33 21.5541 32.9526 21.6802 32.8642C21.8064 32.7758 21.9022 32.6507 21.9548 32.506L27.9548 16.006C27.9884 15.9134 28.0034 15.8151 27.9991 15.7167C27.9947 15.6183 27.971 15.5217 27.9293 15.4325C27.8876 15.3433 27.8287 15.2631 27.756 15.1966C27.6834 15.1301 27.5983 15.0786 27.5057 15.045Z" fill="white"/>
</svg>
