<svg width="48" height="49" viewBox="0 0 48 49" fill="none" xmlns="http://www.w3.org/2000/svg">
<rect y="0.5" width="48" height="48" rx="4" fill="#E8F2FF"/>
<path d="M24.375 14.75C21.8894 14.7527 19.5065 15.7413 17.7489 17.4989C15.9913 19.2565 15.0027 21.6394 15 24.125V32C15 32.3978 15.158 32.7794 15.4393 33.0607C15.7206 33.342 16.1022 33.5 16.5 33.5H24.375C26.8614 33.5 29.246 32.5123 31.0041 30.7541C32.7623 28.996 33.75 26.6114 33.75 24.125C33.75 21.6386 32.7623 19.254 31.0041 17.4959C29.246 15.7377 26.8614 14.75 24.375 14.75ZM24.375 32H16.5V24.125C16.5 22.5675 16.9619 21.0449 17.8272 19.7499C18.6925 18.4548 19.9224 17.4455 21.3614 16.8494C22.8003 16.2534 24.3837 16.0975 25.9113 16.4013C27.4389 16.7052 28.8421 17.4552 29.9435 18.5565C31.0448 19.6579 31.7948 21.0611 32.0987 22.5887C32.4025 24.1163 32.2466 25.6997 31.6506 27.1386C31.0545 28.5776 30.0452 29.8075 28.7501 30.6728C27.4551 31.5381 25.9325 32 24.375 32ZM25.5 24.5C25.5 24.7225 25.434 24.94 25.3104 25.125C25.1868 25.31 25.0111 25.4542 24.8055 25.5394C24.6 25.6245 24.3738 25.6468 24.1555 25.6034C23.9373 25.56 23.7368 25.4528 23.5795 25.2955C23.4222 25.1382 23.315 24.9377 23.2716 24.7195C23.2282 24.5012 23.2505 24.275 23.3356 24.0695C23.4208 23.8639 23.565 23.6882 23.75 23.5646C23.935 23.441 24.1525 23.375 24.375 23.375C24.6734 23.375 24.9595 23.4935 25.1705 23.7045C25.3815 23.9155 25.5 24.2016 25.5 24.5ZM21.375 24.5C21.375 24.7225 21.309 24.94 21.1854 25.125C21.0618 25.31 20.8861 25.4542 20.6805 25.5394C20.475 25.6245 20.2488 25.6468 20.0305 25.6034C19.8123 25.56 19.6118 25.4528 19.4545 25.2955C19.2972 25.1382 19.19 24.9377 19.1466 24.7195C19.1032 24.5012 19.1255 24.275 19.2106 24.0695C19.2958 23.8639 19.44 23.6882 19.625 23.5646C19.81 23.441 20.0275 23.375 20.25 23.375C20.5484 23.375 20.8345 23.4935 21.0455 23.7045C21.2565 23.9155 21.375 24.2016 21.375 24.5ZM29.625 24.5C29.625 24.7225 29.559 24.94 29.4354 25.125C29.3118 25.31 29.1361 25.4542 28.9305 25.5394C28.725 25.6245 28.4988 25.6468 28.2805 25.6034C28.0623 25.56 27.8618 25.4528 27.7045 25.2955C27.5472 25.1382 27.44 24.9377 27.3966 24.7195C27.3532 24.5012 27.3755 24.275 27.4606 24.0695C27.5458 23.8639 27.69 23.6882 27.875 23.5646C28.06 23.441 28.2775 23.375 28.5 23.375C28.7984 23.375 29.0845 23.4935 29.2955 23.7045C29.5065 23.9155 29.625 24.2016 29.625 24.5Z" fill="black"/>
</svg>
