<svg width="48" height="48" viewBox="0 0 48 48" fill="none" xmlns="http://www.w3.org/2000/svg">
<rect width="48" height="48" rx="4" fill="#006EEF"/>
<path d="M35.25 20.6887C35.2506 20.4917 35.212 20.2965 35.1366 20.1144C35.0611 19.9324 34.9502 19.7672 34.8103 19.6284L28.3715 13.1887C28.2322 13.0494 28.0669 12.9389 27.8849 12.8635C27.7028 12.7881 27.5078 12.7493 27.3107 12.7493C27.1137 12.7493 26.9187 12.7881 26.7366 12.8635C26.5546 12.9389 26.3893 13.0494 26.25 13.1887L23.5847 15.854L18.1472 17.895C17.9 17.9871 17.6815 18.1426 17.5133 18.3458C17.3452 18.549 17.2333 18.7928 17.189 19.0528L15.0103 32.1262C14.9923 32.2337 14.998 32.3438 15.0268 32.4488C15.0557 32.5539 15.1072 32.6514 15.1776 32.7346C15.248 32.8177 15.3357 32.8846 15.4345 32.9304C15.5334 32.9762 15.641 33 15.75 33C15.7914 32.9998 15.8328 32.9964 15.8737 32.9897L28.9462 30.8109C29.2059 30.7676 29.4496 30.6567 29.6528 30.4893C29.8561 30.3219 30.0117 30.104 30.104 29.8575L32.145 24.42L34.8103 21.75C34.9502 21.6111 35.0612 21.4457 35.1367 21.2635C35.2122 21.0813 35.2507 20.8859 35.25 20.6887ZM28.6997 29.3315L17.9362 31.125L22.3772 26.684C22.9318 26.9838 23.5759 27.0739 24.1915 26.9379C24.8072 26.8019 25.3533 26.4488 25.73 25.9433C26.1068 25.4377 26.289 24.8135 26.2433 24.1846C26.1977 23.5558 25.9272 22.9644 25.4814 22.5186C25.0356 22.0727 24.4442 21.8023 23.8153 21.7566C23.1865 21.711 22.5622 21.8932 22.0567 22.2699C21.5511 22.6467 21.198 23.1928 21.062 23.8084C20.926 24.4241 21.0161 25.0681 21.3159 25.6228L16.875 30.0656L18.6684 19.2994L23.8125 17.3709L30.6281 24.1875L28.6997 29.3315ZM22.5 24.375C22.5 24.1525 22.5659 23.935 22.6896 23.75C22.8132 23.565 22.9889 23.4208 23.1944 23.3356C23.4 23.2505 23.6262 23.2282 23.8444 23.2716C24.0627 23.315 24.2631 23.4221 24.4205 23.5795C24.5778 23.7368 24.6849 23.9373 24.7284 24.1555C24.7718 24.3737 24.7495 24.5999 24.6643 24.8055C24.5792 25.0111 24.435 25.1868 24.25 25.3104C24.065 25.434 23.8475 25.5 23.625 25.5C23.3266 25.5 23.0405 25.3815 22.8295 25.1705C22.6185 24.9595 22.5 24.6733 22.5 24.375ZM31.5 22.9387L25.0603 16.5L27.3103 14.25L33.75 20.6887L31.5 22.9387Z" fill="white"/>
</svg>
