<svg width="48" height="49" viewBox="0 0 48 49" fill="none" xmlns="http://www.w3.org/2000/svg">
<rect y="0.5" width="48" height="48" rx="4" fill="#E8F2FF"/>
<path d="M18.7298 21.3266L14.9216 24.5L18.7298 27.6735C18.8076 27.7358 18.8723 27.813 18.9199 27.9006C18.9676 27.9882 18.9973 28.0845 19.0073 28.1837C19.0173 28.2829 19.0074 28.3831 18.9782 28.4785C18.949 28.5739 18.9011 28.6624 18.8373 28.7391C18.7734 28.8157 18.695 28.8788 18.6064 28.9247C18.5179 28.9706 18.4211 28.9984 18.3217 29.0065C18.2223 29.0146 18.1223 29.0027 18.0275 28.9717C17.9328 28.9406 17.8451 28.891 17.7698 28.8256L13.2698 25.0757C13.1853 25.0053 13.1174 24.9172 13.0708 24.8176C13.0242 24.7181 13 24.6095 13 24.4996C13 24.3896 13.0242 24.281 13.0708 24.1815C13.1174 24.0819 13.1853 23.9938 13.2698 23.9235L17.7698 20.1735C17.9227 20.0462 18.1199 19.9848 18.3181 20.0029C18.5162 20.021 18.699 20.1171 18.8263 20.27C18.9536 20.4229 19.015 20.6202 18.9969 20.8183C18.9788 21.0164 18.8827 21.1993 18.7298 21.3266ZM35.2298 23.9235L30.7298 20.1735C30.6541 20.1104 30.5667 20.0629 30.4726 20.0337C30.3785 20.0044 30.2796 19.994 30.1815 20.0029C30.0834 20.0119 29.988 20.0401 29.9008 20.0859C29.8136 20.1318 29.7362 20.1943 29.6732 20.27C29.5459 20.4229 29.4846 20.6202 29.5027 20.8183C29.5208 21.0164 29.6169 21.1993 29.7698 21.3266L33.5779 24.5L29.7698 27.6735C29.6919 27.7358 29.6273 27.813 29.5796 27.9006C29.532 27.9882 29.5023 28.0845 29.4923 28.1837C29.4823 28.2829 29.4921 28.3831 29.5213 28.4785C29.5505 28.5739 29.5984 28.6624 29.6623 28.7391C29.7261 28.8157 29.8046 28.8788 29.8931 28.9247C29.9816 28.9706 30.0784 28.9984 30.1778 29.0065C30.2772 29.0146 30.3773 29.0027 30.472 28.9717C30.5668 28.9406 30.6544 28.891 30.7298 28.8256L35.2298 25.0757C35.3142 25.0053 35.3821 24.9172 35.4288 24.8176C35.4754 24.7181 35.4995 24.6095 35.4995 24.4996C35.4995 24.3896 35.4754 24.281 35.4288 24.1815C35.3821 24.0819 35.3142 23.9938 35.2298 23.9235ZM27.5057 15.545C27.4131 15.5114 27.3148 15.4964 27.2164 15.5007C27.118 15.5051 27.0215 15.5288 26.9322 15.5705C26.843 15.6122 26.7629 15.6711 26.6964 15.7438C26.6299 15.8164 26.5784 15.9015 26.5448 15.9941L20.5448 32.4941C20.511 32.5867 20.4959 32.6851 20.5002 32.7836C20.5045 32.8821 20.5282 32.9788 20.5699 33.0681C20.6116 33.1575 20.6705 33.2377 20.7432 33.3043C20.816 33.3708 20.9011 33.4224 20.9938 33.456C21.076 33.4852 21.1626 33.5001 21.2498 33.5C21.4038 33.5 21.5541 33.4526 21.6802 33.3642C21.8064 33.2758 21.9022 33.1507 21.9548 33.006L27.9548 16.506C27.9884 16.4134 28.0034 16.3151 27.9991 16.2167C27.9947 16.1183 27.971 16.0217 27.9293 15.9325C27.8876 15.8433 27.8287 15.7631 27.756 15.6966C27.6834 15.6301 27.5983 15.5786 27.5057 15.545Z" fill="black"/>
</svg>
