<svg width="24" height="24" viewBox="0 0 24 24" fill="none" xmlns="http://www.w3.org/2000/svg">
<path d="M22.8755 8.68862C22.8758 8.54095 22.8469 8.39466 22.7904 8.25821C22.7339 8.12176 22.651 7.99785 22.5464 7.89362L16.1067 1.45393C16.0022 1.34905 15.878 1.26584 15.7412 1.20906C15.6045 1.15228 15.4579 1.12305 15.3098 1.12305C15.1618 1.12305 15.0152 1.15228 14.8784 1.20906C14.7417 1.26584 14.6175 1.34905 14.513 1.45393L11.7923 4.17737L6.2742 6.24643C6.08958 6.31613 5.92641 6.43293 5.80092 6.58523C5.67543 6.73752 5.59199 6.92002 5.55889 7.11456L3.38014 20.188C3.37114 20.2418 3.37398 20.2969 3.38845 20.3494C3.40293 20.402 3.42869 20.4508 3.46394 20.4923C3.49919 20.5339 3.54309 20.5673 3.59257 20.5902C3.64205 20.6131 3.69593 20.6249 3.75045 20.6249C3.77116 20.6247 3.79183 20.6231 3.81233 20.6202L16.8848 18.4405C17.0796 18.4082 17.2625 18.3251 17.4151 18.1997C17.5676 18.0743 17.6845 17.911 17.7539 17.7261L19.823 12.208L22.5417 9.48925C22.6479 9.38478 22.7321 9.26013 22.7894 9.12264C22.8467 8.98515 22.876 8.83758 22.8755 8.68862ZM17.0517 17.4627C17.0286 17.5243 16.9896 17.5788 16.9388 17.6206C16.8879 17.6624 16.827 17.69 16.762 17.7008L4.84358 19.6874L10.3233 14.2077C10.7831 14.5345 11.349 14.6766 11.9086 14.6059C12.4683 14.5352 12.9811 14.2568 13.3452 13.8259C13.7093 13.3951 13.8983 12.8431 13.8747 12.2794C13.8511 11.7158 13.6166 11.1816 13.2177 10.7827C12.8187 10.3838 12.2845 10.1493 11.7209 10.1256C11.1572 10.102 10.6053 10.291 10.1744 10.6551C9.74349 11.0193 9.46511 11.532 9.39441 12.0917C9.3237 12.6514 9.46584 13.2172 9.79264 13.6771L4.31295 19.1577L6.29952 7.23831C6.31029 7.17337 6.33797 7.11241 6.37977 7.06156C6.42157 7.01071 6.47602 6.97176 6.53764 6.94862L11.9067 4.93487L19.0645 12.0936L17.0517 17.4627ZM10.1255 12.3749C10.1255 12.0782 10.2134 11.7882 10.3782 11.5415C10.5431 11.2948 10.7773 11.1026 11.0514 10.9891C11.3255 10.8755 11.6271 10.8458 11.9181 10.9037C12.2091 10.9616 12.4763 11.1044 12.6861 11.3142C12.8959 11.524 13.0388 11.7913 13.0966 12.0822C13.1545 12.3732 13.1248 12.6748 13.0113 12.9489C12.8977 13.223 12.7055 13.4573 12.4588 13.6221C12.2121 13.7869 11.9221 13.8749 11.6255 13.8749C11.2276 13.8749 10.8461 13.7168 10.5648 13.4355C10.2835 13.1542 10.1255 12.7727 10.1255 12.3749ZM22.0158 8.95393L19.5005 11.4692L12.5311 4.49987L15.0455 1.9855C15.0803 1.95063 15.1216 1.92297 15.1672 1.9041C15.2127 1.88523 15.2615 1.87551 15.3108 1.87551C15.36 1.87551 15.4088 1.88523 15.4544 1.9041C15.4999 1.92297 15.5412 1.95063 15.5761 1.9855L22.0158 8.42518C22.0859 8.49548 22.1253 8.59073 22.1253 8.69003C22.1253 8.78933 22.0859 8.88457 22.0158 8.95487V8.95393Z" fill="#111111"/>
</svg>
