<svg width="48" height="48" viewBox="0 0 48 48" fill="none" xmlns="http://www.w3.org/2000/svg">
<path d="M45.7499 17.3775C45.7506 17.0821 45.6928 16.7896 45.5799 16.5167C45.4669 16.2438 45.301 15.9959 45.0918 15.7875L32.2124 2.90811C32.0034 2.69835 31.755 2.53192 31.4815 2.41836C31.208 2.30479 30.9148 2.24634 30.6187 2.24634C30.3225 2.24634 30.0293 2.30479 29.7558 2.41836C29.4823 2.53192 29.234 2.69835 29.0249 2.90811L23.5837 8.35499L12.5474 12.4931C12.1782 12.6325 11.8519 12.8661 11.6009 13.1707C11.3499 13.4753 11.183 13.8403 11.1168 14.2294L6.7593 40.3762C6.74131 40.4838 6.74699 40.594 6.77593 40.6991C6.80488 40.8042 6.8564 40.9018 6.9269 40.9849C6.99741 41.0681 7.0852 41.1349 7.18417 41.1807C7.28313 41.2265 7.39089 41.2501 7.49993 41.25C7.54134 41.2497 7.58269 41.2465 7.62368 41.2406L33.7687 36.8812C34.1583 36.8166 34.524 36.6505 34.8292 36.3997C35.1343 36.1489 35.368 35.8222 35.5068 35.4525L39.6449 24.4162L45.0824 18.9787C45.2948 18.7698 45.4632 18.5205 45.5779 18.2455C45.6925 17.9705 45.751 17.6754 45.7499 17.3775ZM34.1024 34.9256C34.0562 35.0489 33.9782 35.1578 33.8765 35.2414C33.7748 35.325 33.6529 35.3803 33.5231 35.4019L9.68618 39.375L20.6456 28.4156C21.5653 29.0692 22.6969 29.3535 23.8163 29.2121C24.9357 29.0707 25.9612 28.5139 26.6894 27.6521C27.4177 26.7904 27.7957 25.6864 27.7484 24.5591C27.7012 23.4318 27.2322 22.3634 26.4343 21.5656C25.6365 20.7678 24.5681 20.2988 23.4408 20.2515C22.3135 20.2043 21.2096 20.5822 20.3478 21.3105C19.486 22.0388 18.9292 23.0642 18.7878 24.1836C18.6464 25.303 18.9307 26.4347 19.5843 27.3544L8.62493 38.3156L12.5981 14.4769C12.6196 14.347 12.675 14.2251 12.7586 14.1234C12.8422 14.0217 12.9511 13.9438 13.0743 13.8975L23.8124 9.86999L38.1281 24.1875L34.1024 34.9256ZM20.2499 24.75C20.2499 24.1566 20.4259 23.5766 20.7555 23.0833C21.0852 22.5899 21.5537 22.2054 22.1019 21.9783C22.6501 21.7513 23.2533 21.6919 23.8352 21.8076C24.4171 21.9234 24.9517 22.2091 25.3712 22.6287C25.7908 23.0482 26.0765 23.5828 26.1923 24.1647C26.308 24.7467 26.2486 25.3499 26.0216 25.898C25.7945 26.4462 25.41 26.9147 24.9166 27.2444C24.4233 27.574 23.8433 27.75 23.2499 27.75C22.4543 27.75 21.6912 27.4339 21.1286 26.8713C20.566 26.3087 20.2499 25.5456 20.2499 24.75ZM44.0306 17.9081L38.9999 22.9387L25.0612 8.99999L30.0899 3.97124C30.1596 3.9015 30.2423 3.84619 30.3333 3.80844C30.4244 3.7707 30.522 3.75127 30.6206 3.75127C30.7191 3.75127 30.8167 3.7707 30.9078 3.80844C30.9988 3.84619 31.0815 3.9015 31.1512 3.97124L44.0306 16.8506C44.1708 16.9912 44.2496 17.1817 44.2496 17.3803C44.2496 17.5789 44.1708 17.7694 44.0306 17.91V17.9081Z" fill="white"/>
</svg>
