<svg width="110" height="47" viewBox="0 0 110 47" fill="none" xmlns="http://www.w3.org/2000/svg">
<path fill-rule="evenodd" clip-rule="evenodd" d="M50.1708 29.8109C50.1708 29.8109 49.8832 31.0052 49.7924 31.5948C49.7016 32.1844 49.8376 33.4844 50.0496 33.953C50.2616 34.4216 50.3373 34.6483 50.3373 34.6483C50.3373 34.6483 49.066 35.495 48.6572 35.8123C48.2484 36.1297 47.9608 37.2181 47.5824 37.9437C47.204 38.6693 46.3563 40.0599 45.6751 40.8914C44.9939 41.7229 44.7669 43.0683 45.2513 43.6275C45.7357 44.1868 46.0991 44.6556 46.1141 44.9729C46.1291 45.2903 46.1291 45.4114 46.1291 45.4114C46.1291 45.4114 44.8125 44.1265 44.4491 43.8694C44.0857 43.6124 42.9354 43.159 41.1492 43.4008C39.3629 43.6427 37.8493 44.1566 37.3801 43.3102C36.9108 42.4637 35.6692 41.9724 35.1773 41.9346C34.6854 41.8967 33.7393 42.471 32.8538 43.1136C31.9682 43.7562 30.5906 44.2627 30.2803 43.2498C29.97 42.237 29.6447 41.3903 28.7061 41.2165C27.7675 41.0426 26.8667 41.8136 26.5337 42.0328C26.2007 42.252 26.0947 42.305 26.0947 42.305C26.0947 42.305 24.4298 40.1884 24.233 39.7122C24.0362 39.2359 23.7334 38.5105 23.7334 38.5105C23.7334 38.5105 22.4997 38.4726 22.4695 38.4273C22.4393 38.3819 21.6219 37.7018 21.463 37.4901C21.3041 37.2784 20.4412 37.3163 20.1611 37.3843C19.881 37.4523 19.7902 37.4824 19.7902 37.4824C19.7902 37.4824 19.4949 36.9609 19.0636 36.8853C18.6323 36.8098 18.4355 36.9232 18.4355 36.9232C18.4355 36.9232 18.8066 35.88 18.6929 35.4719C18.5792 35.0639 18.0042 34.7163 17.7014 34.8825C17.3986 35.0487 16.9824 35.3207 16.8158 35.2452C16.6492 35.1697 16.2029 35.1015 15.6427 34.6103C15.0825 34.119 14.9159 34.255 14.6435 34.3004C14.3711 34.3457 14.5071 34.4744 14.3332 34.7691C14.1593 35.0639 14.0531 35.2001 14.197 35.5476C14.3409 35.8952 13.9625 36.2279 13.6597 36.2807C13.3568 36.3336 12.7664 36.0314 12.3805 35.0639C11.9946 34.0964 11.4192 34.1494 11.1468 33.9982C10.8744 33.847 10.7232 33.6881 10.7534 33.2195C10.7836 32.751 10.39 32.2145 10.1857 32.1162C9.98135 32.0178 8.62661 31.9197 8.3011 31.6324C7.9756 31.3452 7.24129 30.854 6.49967 30.6348C5.75804 30.4156 4.79672 30.5439 4.77402 30.2945C4.75131 30.0451 4.66069 28.8886 5.35693 28.0648C6.05315 27.241 5.69744 25.9713 5.50064 25.7974C5.30384 25.6235 4.7515 25.7067 4.51679 24.7544C4.2821 23.8021 4.2669 22.6154 4.2669 22.6154L2.77614 22.6682C2.77614 22.6682 2.58702 24.6325 3.20765 25.6605C3.82826 26.6885 4.20668 26.8547 4.20668 26.8547C4.20668 26.8547 3.07143 28.3059 3.25305 30.1501C3.43465 31.9942 4.84248 31.8129 5.93232 32.0699C7.02216 32.327 7.21877 33.0224 8.2784 33.2793C9.33803 33.5362 9.38344 33.4757 9.38344 33.4757C9.38344 33.4757 9.21683 34.5642 10.0041 35.1386C10.7913 35.7131 10.8669 35.5619 10.8669 35.5619C10.8669 35.5619 11.7147 37.4969 12.7591 37.7084C13.8035 37.9199 14.7874 37.7386 15.2112 37.134C15.635 36.5294 15.635 36.4689 15.635 36.4689C15.635 36.4689 15.8472 36.7409 16.1952 36.7862C16.5432 36.8316 16.8308 36.8316 16.8308 36.8316C16.8308 36.8316 16.7706 38.464 17.6787 38.5851C18.5867 38.7061 18.9653 38.2223 18.9653 38.2223L19.6313 39.0085L20.7059 38.812C20.7059 38.812 20.933 39.235 21.5536 39.5979C22.1742 39.9608 22.6586 39.9305 22.6586 39.9305C22.6586 39.9305 24.3994 42.8935 25.0503 43.4074C25.7011 43.9213 26.2007 44.0122 27.0635 43.4981C27.9263 42.984 28.4109 42.5456 28.5622 42.848C28.7134 43.1504 29.1978 46.1587 31.7409 45.3121C34.2839 44.4654 35.0559 43.5888 35.0559 43.5888C35.0559 43.5888 35.8128 43.6793 36.0852 44.1329C36.3576 44.5865 37.0842 45.5236 38.9007 45.3271C40.7171 45.1305 43.033 44.6016 43.578 45.1609C44.123 45.7201 45.9699 47.3678 46.9385 46.6271C47.9071 45.8865 47.9073 44.6771 47.2261 43.6643C46.5449 42.6514 46.5297 42.6211 46.8173 41.8351C47.1049 41.0492 48.3613 39.9005 48.8458 38.7666C49.3302 37.6327 49.118 37.0583 49.9052 36.7711C50.6924 36.4839 51.873 35.7432 51.9639 34.9874C52.0547 34.2316 51.3432 33.4757 51.2676 33.0676C51.192 32.6595 51.9639 30.3315 50.1708 29.8109Z" fill="#E30016"/>
<path fill-rule="evenodd" clip-rule="evenodd" d="M46.9169 10.3779C46.9169 10.3779 46.7354 12.1012 47.7268 12.0785C48.7181 12.0558 48.408 10.2418 48.2414 9.45568C48.0748 8.66955 48.0294 8.29914 47.8705 8.11028C47.7116 7.92142 47.5754 7.74738 47.7116 7.61136C47.8478 7.47534 47.8705 6.3793 47.3786 5.88805C46.8866 5.3968 46.8411 5.76738 46.2356 5.18528C45.6302 4.60316 45.1306 4.82986 44.9944 4.47463C44.8582 4.11941 44.3738 3.59799 43.7759 3.84737C43.178 4.09673 43.1627 4.36896 42.4967 4.36896C41.8307 4.36896 36.7369 4.76971 35.8741 4.69403C35.0112 4.61834 35.0717 4.37646 34.6024 4.48232C34.1332 4.58817 33.6792 4.14975 33.2856 4.24044C32.892 4.33112 32.6346 4.02872 31.9232 4.0439C31.2117 4.05908 31.1359 4.14975 30.4397 3.92306C29.7435 3.69636 28.7595 3.5905 28.2903 3.9684C27.821 4.3463 27.6396 4.6942 27.3216 4.37664C27.0036 4.05908 24.8392 4.3463 24.4455 4.1951C24.0519 4.0439 23.4919 3.42413 23.9611 3.52998C24.4303 3.63584 25.2022 3.18243 25.1418 2.50215C25.0814 1.82185 22.5079 0.219397 21.7511 0.0532078C20.9942 -0.11297 20.9186 0.15907 20.2374 0.204406C19.5562 0.249753 19.2232 0.098556 18.9356 0.385774C18.648 0.672992 18.1636 0.400763 17.9366 0.612475C17.7095 0.824176 16.8167 0.612476 16.5441 0.91486C16.2715 1.21726 15.5599 0.869712 15.1211 1.36846C14.6823 1.8672 14.3794 1.92753 14.0464 1.9427C13.7134 1.95788 13.5016 2.07872 13.1534 2.24509C12.8052 2.41147 12.442 2.19975 12.1846 2.54748C11.9272 2.89522 11.0038 3.92323 10.0047 4.37664C9.00571 4.83005 7.99148 4.75454 7.18925 4.75454C6.38702 4.75454 5.9482 5.17778 5.46379 5.3138C4.97938 5.44982 4.78239 5.22293 4.19216 5.58584C3.60194 5.94875 3.01153 5.75203 2.54232 6.05443C2.07309 6.35681 0.968068 5.99391 0.771266 6.68937C0.574465 7.38483 0.680457 7.65669 0.877259 7.97426C1.07406 8.29183 0.72568 8.44302 0.801463 9.18364C0.877259 9.92427 1.17988 10.9369 1.37668 11.4964C1.57348 12.0558 1.39188 12.0708 1.19508 12.6906C0.998278 13.3104 0.680459 13.5672 0.256645 13.8394C-0.167169 14.1117 -0.0307768 16.3185 0.408049 16.5303C0.846874 16.742 1.34629 17.0444 1.46749 17.4978C1.58868 17.9512 2.02751 18.1327 1.9973 18.692C1.9671 19.2512 2.25471 20.2489 2.0579 20.6268C1.86109 21.0047 2.01268 22.1839 2.3607 22.3199C2.70872 22.456 3.91994 22.5315 3.60194 21.5338C3.28394 20.5361 3.45035 20.3096 3.52615 19.7048C3.60194 19.1 3.45054 17.3769 2.96613 17.0292C2.48172 16.6815 2.48172 16.3335 2.33031 15.8953C2.17891 15.4571 1.57331 15.5929 1.60369 15.0337C1.63408 14.4744 1.8761 14.7165 2.17891 14.3989C2.48172 14.0813 2.51192 13.4312 2.66332 12.8418C2.81472 12.2524 3.10251 11.9346 2.78451 11.2092C2.46652 10.4837 2.26989 9.8941 2.39091 9.50103C2.51192 9.10795 2.79953 8.57886 2.70872 8.21614C2.61792 7.85342 2.1639 7.59637 2.4969 7.59637C2.82992 7.59637 3.61713 7.20347 4.16196 7.1883C4.70678 7.17313 5.78161 6.49283 6.35682 6.55335C6.93204 6.61386 7.31045 6.06978 8.15807 6.2813C9.00571 6.49283 10.5347 6.00908 11.0948 5.47999C11.6548 4.95089 12.2752 4.87557 12.684 4.27079C13.0928 3.666 13.3652 3.62066 14.4551 3.37878C15.5449 3.13691 15.8781 2.53249 16.6349 2.41146C17.3917 2.29044 19.087 2.03339 19.6168 1.76134C20.1466 1.4893 21.3575 1.38345 21.5241 1.62532C21.6907 1.8672 21.5997 2.42664 22.0387 3.31845C22.4777 4.21028 22.1901 4.49748 22.5837 4.58817C22.9773 4.67885 22.9317 5.34397 23.7643 5.40449C24.5969 5.465 25.4444 5.43464 25.5202 5.73704C25.596 6.03944 26.0804 6.68955 27.0188 6.61386C27.9573 6.53818 27.8058 5.79737 28.1541 5.76721C28.5023 5.73704 28.9563 4.98125 29.4559 5.11727C29.9555 5.25329 30.5459 5.51034 31.3329 5.465C32.12 5.41965 31.8629 5.72205 32.7256 5.75222C33.5882 5.78238 33.9212 5.96392 34.4964 5.9034C35.0717 5.84289 35.0414 6.23578 35.8589 6.09976C36.6763 5.96374 42.9431 5.84289 43.5939 5.54051C44.2447 5.23811 44.0933 6.06942 44.6685 6.1451C45.2437 6.22079 45.607 6.56852 46.0006 6.70454C46.3942 6.84056 46.364 7.35467 46.1672 7.67205C45.9704 7.98944 46.364 8.48818 46.6516 8.7754C46.9392 9.06262 46.9169 10.3779 46.9169 10.3779Z" fill="white"/>
<path fill-rule="evenodd" clip-rule="evenodd" d="M10.4033 26.0095H12.4689V21.9461H13.0982C13.9463 21.9614 14.343 22.3141 14.5893 23.6021C14.8628 24.8749 15.0816 25.7181 15.2322 26.0095H17.366C17.1882 25.6108 16.901 24.2615 16.6137 23.0962C16.3812 22.1455 16.0255 21.4555 15.3825 21.1641V21.118C16.176 20.7961 17.0104 19.8915 17.0104 18.5728C17.0104 17.6221 16.7093 16.9014 16.1622 16.4107C15.5057 15.828 14.5481 15.598 13.1803 15.598C12.0724 15.598 11.0737 15.69 10.4033 15.8127V26.0095ZM12.4689 17.4074C12.6194 17.3767 12.9068 17.3308 13.4129 17.3308C14.3703 17.346 14.9448 17.8213 14.9448 18.772C14.9448 19.6768 14.3293 20.2595 13.2896 20.2595H12.4689V17.4074ZM17.9269 26.0095H25.0946V24.0774H20.731V24.0162L25.0263 17.024V15.6748H18.3372V17.6067H22.3177V17.6681L17.9269 24.7522V26.0095ZM31.893 19.7381H28.5008V17.5914H32.0982V15.6748H26.4078V26.0095H32.2899V24.0928H28.5008V21.6395H31.893V19.7381ZM35.559 26.0095H37.6519V17.6374H40.1688V15.6748H33.0831V17.6374H35.559V26.0095ZM46.762 19.7381H43.3698V17.5914H46.9672V15.6748H41.2768V26.0095H47.1589V24.0928H43.3698V21.6395H46.762V19.7381ZM48.5814 26.0095H54.3403V24.0469H50.6744V15.6748H48.5814V26.0095ZM57.4864 26.0095V22.8967C57.4864 21.2102 57.4591 19.7534 57.4044 18.3888L57.4456 18.3735C57.8969 19.5847 58.4988 20.9188 59.0458 22.0228L61.0157 26.0095H63.2043V15.6748H61.2892V18.6954C61.2892 20.2441 61.3304 21.6395 61.467 23.0041H61.4262C61.0157 21.8387 60.4685 20.5507 59.9213 19.4622L58.0063 15.6748H55.5715V26.0095H57.4864ZM69.7975 23.3567L70.5088 26.0095H72.7521L69.8933 15.6748H67.1574L64.3398 26.0095H66.5009L67.1574 23.3567H69.7975ZM67.4584 21.6087L68.0056 19.4161C68.1561 18.8181 68.2929 18.0362 68.4296 17.4228H68.4571C68.5936 18.0362 68.758 18.8028 68.9221 19.4161L69.4966 21.6087H67.4584Z" fill="#E30016"/>
<path fill-rule="evenodd" clip-rule="evenodd" d="M76.7466 26.0095H78.8397V21.8541H82.1498V19.9527H78.8397V17.5914H82.3825V15.6748H76.7466V26.0095ZM85.6926 26.0095V18.5115H83.6135V26.0095H85.6926ZM84.6531 15.2454C83.9829 15.2454 83.5452 15.7514 83.5589 16.426C83.5452 17.0701 83.9829 17.5914 84.6394 17.5914C85.3234 17.5914 85.7611 17.0701 85.7611 16.426C85.7476 15.7514 85.3234 15.2454 84.6531 15.2454ZM87.3615 26.0095H89.4407V22.2068C89.4407 22.0228 89.4544 21.8387 89.4817 21.6855C89.6186 20.9648 90.1384 20.5049 90.9044 20.5049C91.1369 20.5049 91.3146 20.5354 91.4651 20.5661V18.3735C91.3146 18.3428 91.2189 18.3428 91.0274 18.3428C90.3844 18.3428 89.5637 18.8028 89.2217 19.8915H89.1672L89.0987 18.5115H87.3068C87.3341 19.1554 87.3615 19.8761 87.3615 20.9802V26.0095ZM92.5595 26.0095H94.5841V21.6395C94.5841 21.4555 94.5977 21.2407 94.6661 21.0568C94.7892 20.6734 95.1039 20.2134 95.6374 20.2134C96.294 20.2134 96.5948 20.8575 96.5948 21.8082V26.0095H98.6192V21.6241C98.6192 21.4402 98.6467 21.1948 98.7014 21.0261C98.8382 20.5815 99.1802 20.2134 99.6589 20.2134C100.329 20.2134 100.644 20.8422 100.644 21.9309V26.0095H102.668V21.5934C102.668 19.3547 101.697 18.3428 100.411 18.3428C99.9189 18.3428 99.5084 18.4654 99.1392 18.7108C98.8247 18.9254 98.5235 19.232 98.2774 19.6154H98.25C97.9628 18.8335 97.2788 18.3428 96.4169 18.3428C95.2679 18.3428 94.6799 19.0481 94.3926 19.5234H94.3514L94.2557 18.5115H92.505C92.5321 19.1708 92.5595 19.9681 92.5595 20.9034V26.0095ZM110 26.0095C109.932 25.5956 109.904 24.9054 109.904 24.1847V21.5782C109.904 19.8149 109.193 18.3428 106.964 18.3428C105.746 18.3428 104.829 18.7108 104.364 19.002L104.747 20.5049C105.185 20.1981 105.91 19.9374 106.594 19.9374C107.62 19.9374 107.812 20.5049 107.812 20.9034V21.0107C105.445 20.9956 103.886 21.9309 103.886 23.8782C103.886 25.0742 104.693 26.1783 106.047 26.1783C106.84 26.1783 107.524 25.8561 107.962 25.2581H108.003L108.126 26.0095H110ZM107.88 23.2801C107.88 23.4182 107.866 23.5562 107.839 23.6789C107.702 24.1542 107.278 24.5374 106.758 24.5374C106.293 24.5374 105.938 24.2462 105.938 23.6482C105.938 22.7435 106.786 22.4521 107.88 22.4675V23.2801Z" fill="white"/>
</svg>
