<svg width="26" height="26" viewBox="0 0 26 26" fill="none" xmlns="http://www.w3.org/2000/svg">
<path d="M4.97318 0.65918C2.66728 0.65918 0.767822 2.55864 0.767822 4.86454V21.686C0.767822 23.9919 2.66728 25.8913 4.97318 25.8913H21.7946C24.1005 25.8913 26 23.9919 26 21.686V4.86454C26 2.55864 24.1005 0.65918 21.7946 0.65918H4.97318ZM13.3839 6.26632H16.1875C16.1875 7.67512 18.2495 9.06989 18.991 9.06989V11.8735C18.143 11.8735 17.1239 11.5008 16.1875 10.8714V16.0788C16.1875 18.3974 14.3007 20.2842 11.9821 20.2842C9.66355 20.2842 7.77675 18.3974 7.77675 16.0788C7.77675 13.7603 9.66355 11.8735 11.9821 11.8735V14.677C11.2083 14.677 10.5803 15.3064 10.5803 16.0788C10.5803 16.8512 11.2083 17.4806 11.9821 17.4806C12.7559 17.4806 13.3839 16.8512 13.3839 16.0788V6.26632Z" fill="#CFCFCF"/>
</svg>
