<svg width="48" height="48" viewBox="0 0 48 48" fill="none" xmlns="http://www.w3.org/2000/svg">
<path d="M44.4375 27.6459C44.2664 27.7473 44.0621 27.7767 43.8694 27.7274C43.6767 27.6782 43.5115 27.5545 43.41 27.3834C41.8481 24.7584 39.4856 23.2584 36.93 23.2584C36.8535 23.2575 36.7777 23.2448 36.705 23.2209C36.4683 23.2457 36.2305 23.2582 35.9925 23.2584C35.7936 23.2584 35.6028 23.1794 35.4622 23.0388C35.3215 22.8981 35.2425 22.7073 35.2425 22.5084C35.2425 22.3095 35.3215 22.1187 35.4622 21.9781C35.6028 21.8374 35.7936 21.7584 35.9925 21.7584C36.9744 21.7581 37.9364 21.4825 38.7695 20.9628C39.6026 20.4431 40.2732 19.7002 40.7052 18.8186C41.1373 17.9369 41.3134 16.9517 41.2136 15.9749C41.1138 14.9981 40.7421 14.0689 40.1408 13.2928C39.5394 12.5167 38.7324 11.9247 37.8115 11.5842C36.8905 11.2437 35.8926 11.1683 34.931 11.3665C33.9693 11.5647 33.0825 12.0286 32.3713 12.7055C31.6601 13.3825 31.153 14.2452 30.9075 15.1959C30.8578 15.3886 30.7335 15.5537 30.5621 15.6548C30.3907 15.7559 30.1861 15.7847 29.9934 15.735C29.8007 15.6853 29.6357 15.561 29.5346 15.3896C29.4335 15.2182 29.4046 15.0136 29.4544 14.8209C29.7296 13.7537 30.262 12.7701 31.005 11.956C31.7481 11.142 32.6791 10.5222 33.7169 10.151C34.7547 9.77975 35.8676 9.66827 36.9583 9.8263C38.0491 9.98433 39.0846 10.4071 39.9743 11.0576C40.8641 11.708 41.581 12.5665 42.0625 13.558C42.5439 14.5494 42.7753 15.6437 42.7363 16.7452C42.6973 17.8467 42.3892 18.9218 41.8389 19.8768C41.2886 20.8317 40.5129 21.6374 39.5794 22.2234C41.6063 22.9453 43.425 24.4734 44.7 26.6259C44.7991 26.7963 44.827 26.9989 44.7779 27.1898C44.7288 27.3806 44.6065 27.5445 44.4375 27.6459ZM35.1488 40.1259C35.248 40.298 35.275 40.5025 35.2236 40.6944C35.1723 40.8864 35.0469 41.0501 34.875 41.1497C34.7613 41.2164 34.6318 41.2513 34.5 41.2509C34.3685 41.2508 34.2393 41.2161 34.1254 41.1502C34.0116 41.0844 33.917 40.9898 33.8513 40.8759C32.8404 39.1623 31.4 37.742 29.6724 36.7553C27.9447 35.7685 25.9896 35.2496 24 35.2496C22.0104 35.2496 20.0553 35.7685 18.3276 36.7553C16.6 37.742 15.1596 39.1623 14.1488 40.8759C14.045 41.0392 13.8821 41.156 13.6942 41.202C13.5064 41.2481 13.308 41.2197 13.1405 41.1229C12.973 41.0261 12.8494 40.8683 12.7955 40.6825C12.7416 40.4968 12.7616 40.2973 12.8513 40.1259C14.4792 37.3304 17.1042 35.2541 20.1994 34.3134C18.5593 33.4622 17.2526 32.085 16.4885 30.4026C15.7243 28.7202 15.5471 26.83 15.9853 25.0349C16.4234 23.2398 17.4514 21.6438 18.9047 20.5026C20.3579 19.3613 22.1522 18.741 24 18.741C25.8478 18.741 27.6421 19.3613 29.0953 20.5026C30.5486 21.6438 31.5766 23.2398 32.0148 25.0349C32.4529 26.83 32.2757 28.7202 31.5116 30.4026C30.7474 32.085 29.4407 33.4622 27.8006 34.3134C30.8958 35.2541 33.5208 37.3304 35.1488 40.1259ZM24 33.7509C25.335 33.7509 26.6401 33.355 27.7501 32.6133C28.8601 31.8716 29.7253 30.8174 30.2362 29.584C30.7471 28.3506 30.8808 26.9934 30.6203 25.6841C30.3599 24.3747 29.717 23.172 28.773 22.228C27.829 21.284 26.6262 20.6411 25.3169 20.3806C24.0075 20.1202 22.6503 20.2538 21.4169 20.7647C20.1835 21.2756 19.1293 22.1408 18.3876 23.2508C17.6459 24.3609 17.25 25.6659 17.25 27.0009C17.25 28.7911 17.9612 30.508 19.227 31.7739C20.4929 33.0398 22.2098 33.7509 24 33.7509ZM12 21.7509C11.0181 21.7506 10.0561 21.475 9.22301 20.9553C8.38995 20.4356 7.71932 19.6927 7.28728 18.8111C6.85525 17.9294 6.67911 16.9442 6.77889 15.9674C6.87867 14.9906 7.25036 14.0614 7.85175 13.2853C8.45313 12.5092 9.26011 11.9172 10.181 11.5767C11.102 11.2362 12.0999 11.1608 13.0615 11.359C14.0232 11.5572 14.91 12.0211 15.6212 12.698C16.3324 13.375 16.8395 14.2377 17.085 15.1884C17.1347 15.3811 17.259 15.5462 17.4304 15.6473C17.6018 15.7484 17.8064 15.7772 17.9991 15.7275C18.1918 15.6778 18.3568 15.5535 18.4579 15.3821C18.559 15.2107 18.5879 15.0061 18.5381 14.8134C18.2617 13.7424 17.7264 12.7557 16.9792 11.9401C16.2319 11.1245 15.2957 10.5051 14.2529 10.1363C13.2101 9.76746 12.0926 9.66057 10.9988 9.82501C9.90492 9.98945 8.86826 10.4202 7.97997 11.0793C7.09168 11.7384 6.37898 12.6058 5.90457 13.605C5.43017 14.6042 5.20859 15.7047 5.25934 16.8097C5.31008 17.9146 5.6316 18.9902 6.19559 19.9417C6.75959 20.8933 7.54879 21.6916 8.49375 22.2666C6.05683 23.0067 3.92118 24.5083 2.4 26.5509C2.28066 26.7101 2.22941 26.9101 2.25754 27.107C2.28567 27.3039 2.39087 27.4816 2.55 27.6009C2.70913 27.7203 2.90916 27.7715 3.10607 27.7434C3.30298 27.7153 3.48066 27.6101 3.6 27.4509C4.57345 26.142 5.84073 25.08 7.29976 24.3504C8.75879 23.6209 10.3688 23.2443 12 23.2509C12.1989 23.2509 12.3897 23.1719 12.5303 23.0313C12.671 22.8906 12.75 22.6998 12.75 22.5009C12.75 22.302 12.671 22.1112 12.5303 21.9706C12.3897 21.8299 12.1989 21.7509 12 21.7509Z" fill="white"/>
</svg>
