<svg width="24" height="24" viewBox="0 0 24 24" fill="none" xmlns="http://www.w3.org/2000/svg">
<path d="M22.2188 13.823C22.1332 13.8737 22.031 13.8883 21.9347 13.8637C21.8384 13.8391 21.7557 13.7772 21.705 13.6917C20.9241 12.3792 19.7428 11.6292 18.465 11.6292C18.4268 11.6287 18.3888 11.6224 18.3525 11.6105C18.2342 11.6229 18.1152 11.6291 17.9963 11.6292C17.8968 11.6292 17.8014 11.5897 17.7311 11.5194C17.6608 11.4491 17.6213 11.3537 17.6213 11.2542C17.6213 11.1548 17.6608 11.0594 17.7311 10.989C17.8014 10.9187 17.8968 10.8792 17.9963 10.8792C18.4872 10.8791 18.9682 10.7412 19.3848 10.4814C19.8013 10.2216 20.1366 9.85012 20.3526 9.40928C20.5686 8.96843 20.6567 8.47584 20.6068 7.98745C20.5569 7.49907 20.3711 7.03446 20.0704 6.6464C19.7697 6.25833 19.3662 5.96237 18.9057 5.79212C18.4453 5.62187 17.9463 5.58415 17.4655 5.68326C16.9847 5.78236 16.5413 6.01432 16.1857 6.35277C15.8301 6.69123 15.5765 7.12262 15.4538 7.59796C15.4289 7.69431 15.3668 7.77684 15.2811 7.82738C15.1953 7.87793 15.0931 7.89236 14.9967 7.86749C14.9004 7.84263 14.8178 7.78051 14.7673 7.6948C14.7168 7.60909 14.7023 7.50681 14.7272 7.41046C14.8648 6.87684 15.131 6.38503 15.5025 5.978C15.874 5.57098 16.3396 5.26112 16.8585 5.0755C17.3773 4.88987 17.9338 4.83413 18.4792 4.91315C19.0246 4.99216 19.5423 5.20353 19.9872 5.52878C20.432 5.85402 20.7905 6.28326 21.0312 6.77899C21.272 7.27471 21.3876 7.82185 21.3682 8.37259C21.3487 8.92333 21.1946 9.46092 20.9195 9.9384C20.6443 10.4159 20.2564 10.8187 19.7897 11.1117C20.8031 11.4727 21.7125 12.2367 22.35 13.313C22.3995 13.3982 22.4135 13.4994 22.389 13.5949C22.3644 13.6903 22.3033 13.7723 22.2188 13.823ZM17.5744 20.063C17.624 20.149 17.6375 20.2512 17.6118 20.3472C17.5862 20.4432 17.5235 20.525 17.4375 20.5748C17.3807 20.6082 17.3159 20.6257 17.25 20.6255C17.1842 20.6254 17.1197 20.608 17.0627 20.5751C17.0058 20.5422 16.9585 20.4949 16.9256 20.438C16.4202 19.5811 15.7 18.871 14.8362 18.3776C13.9724 17.8843 12.9948 17.6248 12 17.6248C11.0052 17.6248 10.0276 17.8843 9.16382 18.3776C8.29999 18.871 7.5798 19.5811 7.07438 20.438C7.02249 20.5196 6.94107 20.578 6.84712 20.601C6.75318 20.624 6.65398 20.6098 6.57024 20.5614C6.4865 20.513 6.42471 20.4342 6.39776 20.3413C6.37081 20.2484 6.38079 20.1487 6.42563 20.063C7.23962 18.6652 8.55209 17.627 10.0997 17.1567C9.27967 16.7311 8.62628 16.0425 8.24423 15.2013C7.86217 14.3601 7.77357 13.415 7.99263 12.5175C8.21168 11.6199 8.72571 10.8219 9.45234 10.2513C10.179 9.68066 11.0761 9.37051 12 9.37051C12.9239 9.37051 13.821 9.68066 14.5477 10.2513C15.2743 10.8219 15.7883 11.6199 16.0074 12.5175C16.2264 13.415 16.1378 14.3601 15.7558 15.2013C15.3737 16.0425 14.7203 16.7311 13.9003 17.1567C15.4479 17.627 16.7604 18.6652 17.5744 20.063ZM12 16.8755C12.6675 16.8755 13.32 16.6775 13.8751 16.3067C14.4301 15.9358 14.8626 15.4087 15.1181 14.792C15.3735 14.1753 15.4404 13.4967 15.3102 12.842C15.1799 12.1873 14.8585 11.586 14.3865 11.114C13.9145 10.642 13.3131 10.3205 12.6584 10.1903C12.0037 10.0601 11.3251 10.1269 10.7084 10.3824C10.0917 10.6378 9.56464 11.0704 9.19379 11.6254C8.82294 12.1804 8.625 12.833 8.625 13.5005C8.625 14.3956 8.98058 15.254 9.61352 15.8869C10.2465 16.5199 11.1049 16.8755 12 16.8755ZM6 10.8755C5.50907 10.8753 5.02803 10.7375 4.6115 10.4776C4.19498 10.2178 3.85966 9.84637 3.64364 9.40553C3.42762 8.96468 3.33956 8.47209 3.38945 7.9837C3.43933 7.49532 3.62518 7.03071 3.92587 6.64265C4.22657 6.25458 4.63006 5.95862 5.09052 5.78837C5.55098 5.61812 6.04995 5.5804 6.53077 5.67951C7.01159 5.77861 7.45499 6.01057 7.81059 6.34902C8.1662 6.68748 8.41977 7.11887 8.5425 7.59421C8.56737 7.69056 8.62949 7.77309 8.7152 7.82363C8.80091 7.87418 8.90318 7.88861 8.99953 7.86374C9.09588 7.83888 9.17841 7.77676 9.22895 7.69105C9.2795 7.60534 9.29393 7.50306 9.26906 7.40671C9.13087 6.87119 8.8632 6.37784 8.48958 5.97005C8.11597 5.56227 7.64786 5.25255 7.12645 5.06814C6.60504 4.88373 6.04629 4.83028 5.49938 4.9125C4.95246 4.99472 4.43413 5.21009 3.98998 5.53965C3.54584 5.86922 3.18949 6.30288 2.95229 6.8025C2.71508 7.30211 2.6043 7.85236 2.62967 8.40484C2.65504 8.95732 2.8158 9.4951 3.0978 9.97086C3.3798 10.4466 3.77439 10.8458 4.24688 11.1333C3.02841 11.5034 1.96059 12.2541 1.2 13.2755C1.14033 13.355 1.11471 13.455 1.12877 13.5535C1.14284 13.652 1.19544 13.7408 1.275 13.8005C1.35457 13.8601 1.45458 13.8858 1.55303 13.8717C1.65149 13.8576 1.74033 13.805 1.8 13.7255C2.28673 13.071 2.92037 12.54 3.64988 12.1752C4.3794 11.8105 5.18439 11.6222 6 11.6255C6.09946 11.6255 6.19484 11.586 6.26517 11.5156C6.33549 11.4453 6.375 11.3499 6.375 11.2505C6.375 11.151 6.33549 11.0556 6.26517 10.9853C6.19484 10.915 6.09946 10.8755 6 10.8755Z" fill="#111111"/>
</svg>
