<svg width="46" height="46" viewBox="0 0 46 46" fill="none" xmlns="http://www.w3.org/2000/svg">
<rect x="0.6" y="0.6" width="44.8" height="44.8" rx="22.4" stroke="#111111" stroke-width="1.2"/>
<path fill-rule="evenodd" clip-rule="evenodd" d="M28.4141 17.5377C28.4265 17.5481 28.4386 17.5591 28.4502 17.5708C28.6643 17.7848 28.6643 18.1319 28.4502 18.346L23.7962 23.0001L28.4502 27.6542C28.6643 27.8683 28.6643 28.2153 28.4502 28.4294C28.4387 28.441 28.4267 28.4519 28.4145 28.4622C28.6319 28.2076 28.6202 27.8244 28.3794 27.5835L23.796 23.0002L28.3794 18.4168C28.6203 18.1758 28.6319 17.7923 28.4141 17.5377ZM27.4703 17.4926C27.4677 17.4951 27.4652 17.4976 27.4627 17.5001L23.0209 21.9419L18.5083 17.4294C18.2161 17.1372 17.7424 17.1372 17.4502 17.4294C17.438 17.4416 17.4263 17.4541 17.4152 17.4669C17.4029 17.4774 17.3909 17.4885 17.3793 17.5001C17.1262 17.7533 17.1262 18.1637 17.3793 18.4168L21.9626 23.0002L17.3793 27.5835C17.1262 27.8366 17.1262 28.247 17.3793 28.5002C17.3911 28.5119 17.4032 28.5231 17.4156 28.5338C17.4266 28.5464 17.4382 28.5588 17.4502 28.5708C17.7424 28.863 18.2161 28.863 18.5083 28.5708L23.0208 24.0583L27.4627 28.5002C27.4662 28.5037 27.4698 28.5072 27.4734 28.5106L27.5336 28.5708C27.8258 28.863 28.2995 28.863 28.5917 28.5708C28.8839 28.2787 28.8839 27.8049 28.5917 27.5128L24.079 23.0001L28.5917 18.4874C28.8839 18.1953 28.8839 17.7215 28.5917 17.4293C28.2995 17.1372 27.8258 17.1372 27.5336 17.4293L27.4703 17.4926ZM22.8794 23.9169L22.8793 23.9168L18.3599 28.4363C18.3622 28.434 18.3645 28.4317 18.3669 28.4294L22.8794 23.9169ZM18.357 17.5612L22.8793 22.0835L22.8794 22.0834L18.3669 17.5708C18.3636 17.5675 18.3603 17.5643 18.357 17.5612Z" fill="black"/>
</svg>
